STARTFONT 2.1
COMMENT $Xorg: $
COMMENT ISO10646-1 extension by Markus Kuhn <mkuhn@acm.org>, 2001-03-20
COMMENT  (c) Copyright Bigelow & Holmes 1986, 1985. Lucida is a registered
COMMENT  trademark of Bigelow & Holmes. See LEGAL NOTICE file for terms 
COMMENT  of the license. 
FONT -B&H-Lucida-Bold-I-Normal-Sans-25-180-100-100-P-159-ISO10646-1
SIZE 18 100 100
FONTBOUNDINGBOX 51 38 -17 -11
STARTPROPERTIES 22
COMMENT Begin LogicalFontDescription
FONTNAME_REGISTRY ""
FOUNDRY "B&H"
FAMILY_NAME "Lucida"
WEIGHT_NAME "Bold"
SLANT "I"
SETWIDTH_NAME "Normal"
ADD_STYLE_NAME "Sans"
PIXEL_SIZE 25
POINT_SIZE 180
RESOLUTION_X 100
RESOLUTION_Y 100
SPACING "P"
AVERAGE_WIDTH 159
CHARSET_REGISTRY "ISO10646"
CHARSET_ENCODING "1"
COMMENT END LogicalFontDescription
FONT_ASCENT 23
FONT_DESCENT 6
DEFAULT_CHAR 0
COPYRIGHT "Copyright Bigelow & Holmes 1986, 1985."
FACE_NAME "Lucida Sans Bold Italic"
X_HEIGHT 13
CAP_HEIGHT 18
ENDPROPERTIES
CHARS 723
STARTCHAR char0
ENCODING 0
SWIDTH 813 0
DWIDTH 20 0
BBX 19 17 2 0
BITMAP
AAAAA0
000000
800020
000000
800020
000000
800020
000000
800020
000000
800020
000000
800020
000000
800020
000000
AAAAA0
ENDCHAR
STARTCHAR space
ENCODING 32
SWIDTH 343 0
DWIDTH 9 0
BBX 1 1 0 0
BITMAP
00
ENDCHAR
STARTCHAR exclam
ENCODING 33
SWIDTH 343 0
DWIDTH 9 0
BBX 8 18 2 0
BITMAP
1F
1F
1F
1E
1E
1E
3C
3C
3C
3C
38
38
38
00
00
78
F8
F8
ENDCHAR
STARTCHAR quotedbl
ENCODING 34
SWIDTH 530 0
DWIDTH 13 0
BBX 11 8 4 11
BITMAP
FBE0
FBE0
F1E0
F1E0
71C0
71C0
71C0
71C0
ENDCHAR
STARTCHAR numbersign
ENCODING 35
SWIDTH 687 0
DWIDTH 17 0
BBX 16 18 2 0
BITMAP
0067
00C6
00CE
018C
018C
3FFF
7FFF
0630
0630
0C60
0C60
FFFE
FFFC
3180
3180
7300
6300
E600
ENDCHAR
STARTCHAR dollar
ENCODING 36
SWIDTH 687 0
DWIDTH 17 0
BBX 15 24 3 -3
BITMAP
0070
0060
00E0
03FC
07FE
0FFE
1EC4
1EC0
1FC0
1FC0
0FC0
07E0
03F0
03F8
03F8
0378
0378
6378
FFF0
FFF0
FFC0
0700
0600
0E00
ENDCHAR
STARTCHAR percent
ENCODING 37
SWIDTH 908 0
DWIDTH 23 0
BBX 21 18 3 0
BITMAP
1F0078
3F80E0
7FC1E0
F3C3C0
F3C780
F38F00
FF9E00
7F3C00
3E7800
00F3E0
01E7F0
03CFF8
078E78
0F1E78
1E1E78
3C1FF0
380FE0
F007C0
ENDCHAR
STARTCHAR ampersand
ENCODING 38
SWIDTH 816 0
DWIDTH 20 0
BBX 19 18 2 0
BITMAP
00FC00
03FE00
03FF00
07CF00
07CF00
07DE00
03FC00
03F0E0
1FE1E0
3DF1C0
78F1C0
F0FB80
F07F80
F83F00
FC3E00
7FFE00
7FFF00
1F8F80
ENDCHAR
STARTCHAR quotesingle
ENCODING 39
SWIDTH 265 0
DWIDTH 7 0
BBX 5 9 4 10
BITMAP
F8
F8
F8
F8
70
70
70
70
70
ENDCHAR
STARTCHAR parenleft
ENCODING 40
SWIDTH 386 0
DWIDTH 10 0
BBX 10 24 2 -5
BITMAP
0040
01C0
0380
0780
0F00
1E00
1E00
3C00
7C00
7C00
7800
F800
F800
F800
F800
F800
F800
F800
7800
7800
7C00
3C00
1C00
0800
ENDCHAR
STARTCHAR parenright
ENCODING 41
SWIDTH 386 0
DWIDTH 10 0
BBX 10 24 1 -5
BITMAP
0400
0E00
0F00
0F00
0780
0780
07C0
07C0
07C0
07C0
07C0
07C0
07C0
0780
0F80
0F80
0F00
1E00
1E00
3C00
7800
F000
E000
8000
ENDCHAR
STARTCHAR asterisk
ENCODING 42
SWIDTH 464 0
DWIDTH 12 0
BBX 10 9 3 9
BITMAP
0F00
0E00
6EC0
73C0
F3C0
1200
FF00
7700
2400
ENDCHAR
STARTCHAR plus
ENCODING 43
SWIDTH 687 0
DWIDTH 17 0
BBX 15 15 2 0
BITMAP
00C0
01C0
01C0
01C0
0180
0180
FFFE
FFFE
FFFE
0380
0300
0700
0700
0700
0700
ENDCHAR
STARTCHAR comma
ENCODING 44
SWIDTH 343 0
DWIDTH 9 0
BBX 6 9 1 -4
BITMAP
7C
7C
7C
78
78
38
38
F0
E0
ENDCHAR
STARTCHAR hyphen
ENCODING 45
SWIDTH 289 0
DWIDTH 7 0
BBX 6 3 2 6
BITMAP
FC
FC
FC
ENDCHAR
STARTCHAR period
ENCODING 46
SWIDTH 343 0
DWIDTH 9 0
BBX 6 5 2 0
BITMAP
7C
7C
FC
F8
F8
ENDCHAR
STARTCHAR slash
ENCODING 47
SWIDTH 596 0
DWIDTH 15 0
BBX 19 23 0 -4
BITMAP
0001E0
0003C0
000380
000780
000F00
000E00
001E00
003C00
003800
007800
00F000
00E000
01E000
03C000
038000
078000
0F0000
0E0000
1E0000
3C0000
380000
780000
F00000
ENDCHAR
STARTCHAR zero
ENCODING 48
SWIDTH 687 0
DWIDTH 17 0
BBX 16 18 2 0
BITMAP
01F0
07FC
0FFE
1F1E
3E1F
3C1F
7C1F
7C1F
FC1F
F83F
F83E
F83E
F83C
F87C
78F8
7FF0
3FE0
0F80
ENDCHAR
STARTCHAR one
ENCODING 49
SWIDTH 687 0
DWIDTH 17 0
BBX 8 18 6 0
BITMAP
7F
7F
FF
1E
1E
3E
3E
3E
3C
3C
7C
7C
7C
78
78
F8
F8
F8
ENDCHAR
STARTCHAR two
ENCODING 50
SWIDTH 687 0
DWIDTH 17 0
BBX 16 18 2 0
BITMAP
07F8
0FFE
1FFF
183F
001F
001F
003E
007E
00FC
01F0
07E0
0F80
1F00
3E00
7C00
7FFC
FFFC
FFF8
ENDCHAR
STARTCHAR three
ENCODING 51
SWIDTH 687 0
DWIDTH 17 0
BBX 15 18 3 0
BITMAP
07F8
0FFC
1FFE
183E
003E
003C
00F8
1FF0
1FE0
1FF0
00F8
007C
007C
007C
41F8
FFF8
FFE0
7F80
ENDCHAR
STARTCHAR four
ENCODING 52
SWIDTH 687 0
DWIDTH 17 0
BBX 15 18 2 0
BITMAP
003E
007E
00FC
01FC
03FC
07BC
0F7C
1E78
3C78
7878
7FFE
FFFE
FFFC
00F0
00F0
00F0
01F0
01E0
ENDCHAR
STARTCHAR five
ENCODING 53
SWIDTH 687 0
DWIDTH 17 0
BBX 16 18 3 0
BITMAP
0FFF
0FFF
1FFE
1C00
1C00
1800
1F80
3FE0
3FF8
03F8
00FC
007C
007C
00FC
41F8
FFF8
FFE0
FF80
ENDCHAR
STARTCHAR six
ENCODING 54
SWIDTH 687 0
DWIDTH 17 0
BBX 16 18 3 0
BITMAP
01FF
07FF
0FFF
1F82
3E00
3E00
7C00
7FF0
FFFC
FFFC
FC7E
F83E
F83E
F83C
7C7C
7FF8
3FF0
0FC0
ENDCHAR
STARTCHAR seven
ENCODING 55
SWIDTH 687 0
DWIDTH 17 0
BBX 14 18 5 0
BITMAP
7FFC
7FFC
FFFC
0078
00F8
01F0
03E0
03C0
0780
0F00
1F00
1E00
3C00
7C00
7C00
7800
F800
F800
ENDCHAR
STARTCHAR eight
ENCODING 56
SWIDTH 687 0
DWIDTH 17 0
BBX 15 18 3 0
BITMAP
01F8
07FC
0FFE
1E1E
1E1E
1E1E
1F3C
0FF0
0FF0
1FF8
7CFC
787C
F03C
F03C
F87C
FFF8
7FF0
1FC0
ENDCHAR
STARTCHAR nine
ENCODING 57
SWIDTH 687 0
DWIDTH 17 0
BBX 16 18 2 0
BITMAP
03F0
0FFC
1FFE
3E3E
3C1F
7C1F
7C1F
7E3F
3FFF
3FFF
0FFE
003E
007C
007C
41F8
FFF0
FFE0
FF80
ENDCHAR
STARTCHAR colon
ENCODING 58
SWIDTH 343 0
DWIDTH 9 0
BBX 8 13 2 0
BITMAP
1F
1F
3E
3E
3E
00
00
00
7C
7C
FC
F8
F8
ENDCHAR
STARTCHAR semicolon
ENCODING 59
SWIDTH 343 0
DWIDTH 9 0
BBX 8 17 1 -4
BITMAP
1F
1F
1F
1E
3E
00
00
00
3C
7C
7C
7C
7C
38
38
F0
E0
ENDCHAR
STARTCHAR less
ENCODING 60
SWIDTH 687 0
DWIDTH 17 0
BBX 16 15 3 0
BITMAP
0001
0007
001F
007E
03F8
0FE0
3F80
FE00
3E00
0F80
07E0
01F0
007C
0018
0008
ENDCHAR
STARTCHAR equal
ENCODING 61
SWIDTH 687 0
DWIDTH 17 0
BBX 16 8 2 3
BITMAP
3FFF
7FFF
7FFE
0000
0000
FFFE
FFFE
FFFC
ENDCHAR
STARTCHAR greater
ENCODING 62
SWIDTH 687 0
DWIDTH 17 0
BBX 16 15 1 0
BITMAP
1000
1800
3E00
0F80
07E0
01F0
007C
007F
01FC
07F0
1FC0
7E00
7800
E000
8000
ENDCHAR
STARTCHAR question
ENCODING 63
SWIDTH 539 0
DWIDTH 13 0
BBX 12 18 3 0
BITMAP
3F80
7FE0
FFF0
83F0
01F0
01E0
03E0
07C0
0F80
1F00
3E00
3C00
7C00
0000
0000
7800
F800
F800
ENDCHAR
STARTCHAR at
ENCODING 64
SWIDTH 833 0
DWIDTH 21 0
BBX 19 18 3 0
BITMAP
00FC00
03FF00
0F0380
1C00C0
3800E0
30FC60
63FC60
671C60
C61860
CC3860
CC78C0
CFD9C0
CF9F80
671E00
600000
383000
1FF000
07E000
ENDCHAR
STARTCHAR A
ENCODING 65
SWIDTH 771 0
DWIDTH 19 0
BBX 18 18 1 0
BITMAP
003E00
007E00
007E00
00FE00
01FE00
01DF00
03DF00
039F00
078F00
070F00
0F0F80
0FFF80
1FFF80
1FFF80
380780
3807C0
7007C0
F007C0
ENDCHAR
STARTCHAR B
ENCODING 66
SWIDTH 660 0
DWIDTH 16 0
BBX 15 18 2 0
BITMAP
1FF8
1FFC
1FFE
1E3E
1E3E
3E3C
3C7C
3FF0
3FC0
3FF0
7CF8
7C7C
787C
787C
78FC
FFF8
FFF8
FFE0
ENDCHAR
STARTCHAR C
ENCODING 67
SWIDTH 737 0
DWIDTH 18 0
BBX 18 18 2 0
BITMAP
007F80
03FFC0
07FFC0
0FC080
1F0000
3E0000
7C0000
7C0000
780000
F80000
F80000
F80000
F80000
FC0000
7E0600
7FFE00
3FFE00
0FF800
ENDCHAR
STARTCHAR D
ENCODING 68
SWIDTH 822 0
DWIDTH 21 0
BBX 20 18 2 0
BITMAP
0FFF00
1FFFC0
1FFFE0
1F07F0
1F03F0
1F01F0
3E01F0
3E01F0
3E01F0
3E03F0
3C03E0
7C03E0
7C07C0
7C0FC0
7C3F80
7FFF00
FFFC00
FFF000
ENDCHAR
STARTCHAR E
ENCODING 69
SWIDTH 642 0
DWIDTH 16 0
BBX 16 18 2 0
BITMAP
0FFF
1FFF
1FFE
1F00
1F00
1E00
3E00
3FF8
3FF8
3FF8
3C00
7C00
7C00
7C00
7C00
7FFC
FFF8
FFF8
ENDCHAR
STARTCHAR F
ENCODING 70
SWIDTH 614 0
DWIDTH 15 0
BBX 16 18 2 0
BITMAP
0FFF
1FFF
1FFE
1F00
1F00
1E00
3E00
3E00
3FF8
3FF8
3FF0
7C00
7C00
7C00
7C00
7800
F800
F800
ENDCHAR
STARTCHAR G
ENCODING 71
SWIDTH 755 0
DWIDTH 19 0
BBX 18 18 2 0
BITMAP
007F80
03FFC0
07FFC0
0FC080
1F0000
3E0000
7C0000
7C0000
780000
F80F00
F80F00
F81F00
F81F00
FC1E00
7E1E00
7FFE00
3FFE00
0FF800
ENDCHAR
STARTCHAR H
ENCODING 72
SWIDTH 813 0
DWIDTH 20 0
BBX 20 18 2 0
BITMAP
0F81F0
1F01F0
1F01E0
1F03E0
1F03E0
1E03E0
3E03E0
3FFFC0
3FFFC0
3FFFC0
3C07C0
7C07C0
7C0780
7C0F80
7C0F80
780F80
F80F80
F81F00
ENDCHAR
STARTCHAR I
ENCODING 73
SWIDTH 361 0
DWIDTH 9 0
BBX 8 18 2 0
BITMAP
1F
1F
1F
1E
1E
3E
3E
3E
3C
3C
7C
7C
7C
78
78
F8
F8
F8
ENDCHAR
STARTCHAR J
ENCODING 74
SWIDTH 502 0
DWIDTH 13 0
BBX 14 22 0 -4
BITMAP
007C
007C
007C
0078
00F8
00F8
00F8
00F8
00F0
01F0
01F0
01F0
01F0
01E0
03E0
03E0
03E0
03E0
47C0
FFC0
FF80
FE00
ENDCHAR
STARTCHAR K
ENCODING 75
SWIDTH 753 0
DWIDTH 19 0
BBX 17 18 2 0
BITMAP
1F0780
1F0F00
1F1E00
1F1C00
1E3800
3E7800
3EF000
3FE000
3FE000
3FF000
7DF000
7CF800
7CF800
7C7C00
787E00
F83E00
F83F00
F81F00
ENDCHAR
STARTCHAR L
ENCODING 76
SWIDTH 623 0
DWIDTH 16 0
BBX 14 18 2 0
BITMAP
0F80
1F00
1F00
1F00
1F00
1F00
3E00
3E00
3E00
3E00
3C00
7C00
7C00
7C00
7C00
7FFC
FFFC
FFFC
ENDCHAR
STARTCHAR M
ENCODING 77
SWIDTH 940 0
DWIDTH 23 0
BBX 23 18 2 0
BITMAP
0FC07E
1FC07E
1FC0FC
1FC0FC
1FC1FC
1FC3FC
3FE3FC
3FE778
39E778
39EE78
39EEF8
79FCF8
79FCF0
79F8F0
71F0F0
71F1F0
F0E1F0
F001E0
ENDCHAR
STARTCHAR N
ENCODING 78
SWIDTH 789 0
DWIDTH 20 0
BBX 19 18 2 0
BITMAP
1F01E0
1F01E0
1F81E0
1F81C0
1FC3C0
3FC3C0
3FE3C0
3FE3C0
3DF380
39F780
78FF80
78FF80
787F80
787F00
703F00
F03F00
F01F00
F01F00
ENDCHAR
STARTCHAR O
ENCODING 79
SWIDTH 855 0
DWIDTH 21 0
BBX 20 18 2 0
BITMAP
007F00
03FFC0
07FFE0
0F87E0
1F03F0
3E01F0
7C01F0
7C01F0
F801F0
F801F0
F803E0
F803E0
F807C0
FC0F80
7E1F00
7FFE00
3FFC00
0FE000
ENDCHAR
STARTCHAR P
ENCODING 80
SWIDTH 645 0
DWIDTH 16 0
BBX 16 18 2 0
BITMAP
1FFC
1FFE
1FFF
1E1F
1E1F
3E1F
3E1E
3E7E
3FFC
3FF8
7FE0
7C00
7C00
7800
7800
F800
F800
F800
ENDCHAR
STARTCHAR Q
ENCODING 81
SWIDTH 855 0
DWIDTH 21 0
BBX 21 22 2 -4
BITMAP
007F00
03FFC0
07FFE0
0F87E0
1F03F0
3E01F0
7C01F0
7C01F0
F801F0
F801F0
F803E0
F803E0
F807C0
FC0F80
7E1F00
7FFE00
3FFC00
0FFC00
003FC0
001FF8
0007E0
0000C0
ENDCHAR
STARTCHAR R
ENCODING 82
SWIDTH 708 0
DWIDTH 18 0
BBX 16 18 2 0
BITMAP
1FFC
1FFF
1FFF
1E1F
1E1F
3E1F
3E3E
3C7C
3FF8
3FF0
7FF0
7CF0
7CF8
78F8
7878
F87C
F87C
F83E
ENDCHAR
STARTCHAR S
ENCODING 83
SWIDTH 639 0
DWIDTH 16 0
BBX 15 18 2 0
BITMAP
01FC
07FE
1FFE
1F04
3E00
3E00
1F80
1FC0
0FE0
07F8
01F8
00FC
00FC
00FC
40F8
FFF0
FFE0
FF80
ENDCHAR
STARTCHAR T
ENCODING 84
SWIDTH 747 0
DWIDTH 19 0
BBX 19 18 3 0
BITMAP
FFFFE0
FFFFE0
FFFFE0
01F000
03E000
03E000
03E000
03E000
03E000
07C000
07C000
07C000
07C000
07C000
0F8000
0F8000
0F8000
0F8000
ENDCHAR
STARTCHAR U
ENCODING 85
SWIDTH 759 0
DWIDTH 19 0
BBX 18 18 3 0
BITMAP
3E03C0
3E07C0
3E0780
3E0780
3C0780
7C0780
7C0F80
7C0F00
780F00
F80F00
F80F00
F81F00
F81E00
F81E00
FC3C00
7FFC00
3FF800
0FE000
ENDCHAR
STARTCHAR V
ENCODING 86
SWIDTH 765 0
DWIDTH 19 0
BBX 18 18 4 0
BITMAP
F803C0
F80380
F80780
7C0700
7C0E00
7C1E00
7C1C00
7C3C00
7C3800
3E7800
3E7000
3EF000
3EE000
3FC000
1FC000
1F8000
1F8000
1F0000
ENDCHAR
STARTCHAR W
ENCODING 87
SWIDTH 991 0
DWIDTH 25 0
BBX 23 18 4 0
BITMAP
F03C1E
F07C1C
F07C3C
F87C38
F8FC78
F8FC70
F9FC70
F9FCE0
FBBCE0
FBBDE0
FBBDC0
7F3FC0
7F3F80
7E3F80
7E3F00
7C3F00
7C3E00
7C3E00
ENDCHAR
STARTCHAR X
ENCODING 88
SWIDTH 696 0
DWIDTH 17 0
BBX 20 18 0 0
BITMAP
0F80F0
07C1E0
07C3C0
07E780
03EF00
03FE00
01FC00
01FC00
01F800
01F800
03F800
03FC00
07FC00
0F7E00
1E3E00
3C3E00
781F00
F01F00
ENDCHAR
STARTCHAR Y
ENCODING 89
SWIDTH 681 0
DWIDTH 17 0
BBX 16 18 4 0
BITMAP
F80F
781E
7C3C
7C38
3C78
3EF0
3FE0
1FC0
1F80
1F80
1F00
1F00
1F00
1F00
1F00
3E00
3E00
3E00
ENDCHAR
STARTCHAR Z
ENCODING 90
SWIDTH 687 0
DWIDTH 17 0
BBX 17 18 2 0
BITMAP
0FFF80
0FFF80
0FFF80
003F00
007E00
00FC00
00FC00
01F800
03F000
07E000
0FC000
1F8000
1F8000
3F0000
7E0000
7FFC00
FFFC00
FFFC00
ENDCHAR
STARTCHAR bracketleft
ENCODING 91
SWIDTH 386 0
DWIDTH 10 0
BBX 11 23 1 -4
BITMAP
07E0
0FE0
0FC0
0F00
0F00
0F00
1E00
1E00
1E00
1E00
1E00
3C00
3C00
3C00
3C00
3C00
7800
7800
7800
7800
7E00
FE00
FC00
ENDCHAR
STARTCHAR backslash
ENCODING 92
SWIDTH 566 0
DWIDTH 14 0
BBX 9 23 4 -4
BITMAP
E000
F000
7000
7000
7000
7800
3800
3800
3800
3C00
1C00
1C00
1C00
1E00
0E00
0E00
0E00
0F00
0700
0700
0700
0780
0380
ENDCHAR
STARTCHAR bracketright
ENCODING 93
SWIDTH 386 0
DWIDTH 10 0
BBX 11 23 1 -4
BITMAP
0FE0
0FE0
0FC0
03C0
03C0
03C0
03C0
0780
0780
0780
0780
0780
0F00
0F00
0F00
0F00
0F00
1E00
1E00
1E00
FE00
FE00
FC00
ENDCHAR
STARTCHAR asciicircum
ENCODING 94
SWIDTH 687 0
DWIDTH 17 0
BBX 14 15 2 3
BITMAP
0040
0040
00E0
01E0
01E0
03E0
03F0
0770
0E70
0E30
1C38
3C38
3838
701C
F01C
ENDCHAR
STARTCHAR underscore
ENCODING 95
SWIDTH 500 0
DWIDTH 13 0
BBX 11 3 1 -3
BITMAP
FFE0
FFE0
FFE0
ENDCHAR
STARTCHAR grave
ENCODING 96
SWIDTH 663 0
DWIDTH 17 0
BBX 6 3 9 16
BITMAP
F0
38
1C
ENDCHAR
STARTCHAR a
ENCODING 97
SWIDTH 681 0
DWIDTH 17 0
BBX 16 13 2 0
BITMAP
01FF
07FF
0FFE
1F1E
3E3E
7C3E
787E
F8FC
F9BC
FB7C
FF7C
FE7C
78F8
ENDCHAR
STARTCHAR b
ENCODING 98
SWIDTH 681 0
DWIDTH 17 0
BBX 16 19 2 0
BITMAP
0F80
0F80
1F00
1F00
1F00
1F00
1E1E
3E3F
3E7F
3EFF
3D9F
3F1F
7E1E
7C3E
7C3C
78F8
7FF0
FFE0
FF80
ENDCHAR
STARTCHAR c
ENCODING 99
SWIDTH 548 0
DWIDTH 14 0
BBX 13 13 2 0
BITMAP
01F0
07F8
1FF8
3F18
7C00
7C00
F800
F800
F800
FC30
FFE0
7FE0
1F80
ENDCHAR
STARTCHAR d
ENCODING 100
SWIDTH 681 0
DWIDTH 17 0
BBX 17 19 2 0
BITMAP
000F80
000F80
000F00
001F00
001F00
001F00
01FF00
07FE00
0FFE00
1F3E00
3E3E00
7C3E00
787C00
F8FC00
F9BC00
FB7C00
FF7C00
FE7800
78F800
ENDCHAR
STARTCHAR e
ENCODING 101
SWIDTH 612 0
DWIDTH 15 0
BBX 13 13 2 0
BITMAP
03E0
0FF0
1FF8
3CF8
78F0
7FF0
FFC0
FF00
F808
F838
FFF8
7FF0
1F80
ENDCHAR
STARTCHAR f
ENCODING 102
SWIDTH 464 0
DWIDTH 12 0
BBX 15 24 1 -5
BITMAP
00FC
01FE
03FE
07C6
0F80
0F80
3FF0
3FF0
7FF0
1F00
1F00
1F00
3E00
3E00
3E00
3E00
3E00
7C00
7C00
7C00
7C00
7800
F800
F800
ENDCHAR
STARTCHAR g
ENCODING 103
SWIDTH 674 0
DWIDTH 17 0
BBX 16 18 1 -5
BITMAP
01FF
07FF
0FFF
1F1E
3E3E
3C3E
7C7E
7CFE
7DBC
7FBC
7F7C
7E7C
3C7C
80F8
E0F8
FFF0
7FE0
7F80
ENDCHAR
STARTCHAR h
ENCODING 104
SWIDTH 675 0
DWIDTH 17 0
BBX 15 19 2 0
BITMAP
0F00
1F00
1F00
1F00
1F00
1E00
3E1C
3E7E
3EFE
3CFE
3DBE
7F3E
7E3C
7C7C
7C7C
787C
F87C
F8F8
F8F8
ENDCHAR
STARTCHAR i
ENCODING 105
SWIDTH 343 0
DWIDTH 9 0
BBX 9 19 2 0
BITMAP
0F80
0F80
1F00
1F00
0000
0000
1F00
3E00
3E00
3E00
3E00
3E00
7C00
7C00
7C00
7C00
7800
F800
F800
ENDCHAR
STARTCHAR j
ENCODING 106
SWIDTH 407 0
DWIDTH 10 0
BBX 15 24 -2 -5
BITMAP
003E
003E
003C
007C
0000
0000
007C
0078
00F8
00F8
00F8
00F8
00F0
01F0
01F0
01F0
01F0
03E0
03E0
03E0
C7C0
FF80
FF00
7C00
ENDCHAR
STARTCHAR k
ENCODING 107
SWIDTH 666 0
DWIDTH 17 0
BBX 16 19 2 0
BITMAP
0F80
0F00
1F00
1F00
1F00
1F00
1E0F
3E1E
3E3C
3E78
3EF0
3DE0
7FE0
7DF0
7DF0
7CF8
78F8
F87C
F87C
ENDCHAR
STARTCHAR l
ENCODING 108
SWIDTH 343 0
DWIDTH 9 0
BBX 9 19 2 0
BITMAP
0F80
0F80
1F00
1F00
1F00
1F00
1F00
3E00
3E00
3E00
3E00
3E00
7C00
7C00
7C00
7C00
7C00
F800
F800
ENDCHAR
STARTCHAR m
ENCODING 109
SWIDTH 991 0
DWIDTH 25 0
BBX 23 13 2 0
BITMAP
1E3C3C
3E7E7E
3CFEFE
3DFDFE
3FBFBE
3F3F3C
7E3F3C
7E7E3C
7C7C7C
78787C
787878
F87878
F8F8F8
ENDCHAR
STARTCHAR n
ENCODING 110
SWIDTH 675 0
DWIDTH 17 0
BBX 15 13 2 0
BITMAP
1E1C
3E7E
3EFE
3DFE
3DBE
3F3E
7E3C
7C7C
7C7C
787C
787C
F8F8
F8F8
ENDCHAR
STARTCHAR o
ENCODING 111
SWIDTH 663 0
DWIDTH 17 0
BBX 15 13 2 0
BITMAP
01F8
0FFC
1FFE
3E3E
7C3E
783E
F83E
F83E
F87C
FCF8
FFF0
7FE0
1F80
ENDCHAR
STARTCHAR p
ENCODING 112
SWIDTH 681 0
DWIDTH 17 0
BBX 17 18 1 -5
BITMAP
0F8F00
1F3F80
1F7F80
1F6F80
1ECF80
1F8F80
3F0F00
3E1F00
3E3E00
3C7C00
3FF800
7FF000
7FC000
7C0000
7C0000
780000
F80000
F80000
ENDCHAR
STARTCHAR q
ENCODING 113
SWIDTH 681 0
DWIDTH 17 0
BBX 16 18 2 -5
BITMAP
01FF
07FF
0FFE
1F1E
3E3E
7C3E
787E
F8FC
F9BC
FF7C
FF7C
FE7C
7878
00F8
00F8
00F8
00F8
01F0
ENDCHAR
STARTCHAR r
ENCODING 114
SWIDTH 542 0
DWIDTH 14 0
BBX 14 13 2 0
BITMAP
1F1C
3E38
3E78
3EF8
3DC0
3F00
7E00
7E00
7C00
7C00
7800
F800
F800
ENDCHAR
STARTCHAR s
ENCODING 115
SWIDTH 527 0
DWIDTH 13 0
BBX 13 13 1 0
BITMAP
07F8
0FF8
1FF0
1F00
1E00
1F80
0FC0
03E0
01F0
41F0
FFE0
FFE0
7F80
ENDCHAR
STARTCHAR t
ENCODING 116
SWIDTH 437 0
DWIDTH 11 0
BBX 9 17 3 0
BITMAP
0600
3E00
3E00
3E00
FF80
FF80
FF80
7C00
7C00
7C00
7C00
7800
F800
F800
FF00
FE00
7E00
ENDCHAR
STARTCHAR u
ENCODING 117
SWIDTH 675 0
DWIDTH 17 0
BBX 15 13 3 0
BITMAP
3E3E
3C3E
7C3C
7C3C
7C7C
7C7C
78FC
F9F8
FB78
FF78
FEF8
FCF8
70F0
ENDCHAR
STARTCHAR v
ENCODING 118
SWIDTH 630 0
DWIDTH 16 0
BBX 15 13 3 0
BITMAP
F81E
F81C
F83C
7878
7C70
7CF0
7CE0
7DE0
3FC0
3F80
3F80
3F00
3F00
ENDCHAR
STARTCHAR w
ENCODING 119
SWIDTH 878 0
DWIDTH 22 0
BBX 21 13 3 0
BITMAP
F07878
F0F870
F0F8F0
F1F8E0
F3F9E0
F3F9C0
F7FBC0
FF7B80
FE7F80
FE7F00
FC3E00
FC3E00
783C00
ENDCHAR
STARTCHAR x
ENCODING 120
SWIDTH 563 0
DWIDTH 14 0
BBX 16 13 0 0
BITMAP
1F0F
0F9E
0FBC
0FF8
07F0
07E0
03E0
07E0
0FF0
1FF0
3DF0
78F8
F0F8
ENDCHAR
STARTCHAR y
ENCODING 121
SWIDTH 633 0
DWIDTH 16 0
BBX 17 18 1 -5
BITMAP
3E0780
3E0F00
3E0E00
1E1E00
1F3C00
1F3800
1F7800
1FF000
0FE000
0FE000
0FC000
0F8000
0F8000
0F0000
1E0000
3E0000
7C0000
F80000
ENDCHAR
STARTCHAR z
ENCODING 122
SWIDTH 630 0
DWIDTH 16 0
BBX 15 13 1 0
BITMAP
1FFE
1FFE
3FFC
00FC
01F8
03E0
07C0
0F80
3F00
7E00
7FFC
FFF8
FFF8
ENDCHAR
STARTCHAR braceleft
ENCODING 123
SWIDTH 386 0
DWIDTH 10 0
BBX 10 23 2 -4
BITMAP
03C0
0FC0
0F80
1F00
1F00
1F00
0F00
0F00
0F00
1E00
7C00
7000
F800
3C00
3C00
3C00
7C00
7C00
F800
F800
FC00
7C00
3800
ENDCHAR
STARTCHAR bar
ENCODING 124
SWIDTH 259 0
DWIDTH 6 0
BBX 7 23 1 -4
BITMAP
0E
0E
0E
0C
1C
1C
1C
1C
18
18
38
38
38
30
30
70
70
70
70
60
E0
E0
E0
ENDCHAR
STARTCHAR braceright
ENCODING 125
SWIDTH 386 0
DWIDTH 10 0
BBX 10 23 1 -4
BITMAP
0F00
0F80
0FC0
07C0
07C0
0F80
0F80
0F00
0F00
0F00
0FC0
0380
0F80
1E00
3C00
3C00
3C00
3E00
3E00
3E00
FC00
FC00
F000
ENDCHAR
STARTCHAR asciitilde
ENCODING 126
SWIDTH 687 0
DWIDTH 17 0
BBX 15 6 3 4
BITMAP
3C06
7F0E
7F8C
E3FC
E1FC
C078
ENDCHAR
STARTCHAR space
ENCODING 160
SWIDTH 343 0
DWIDTH 9 0
BBX 1 1 0 0
BITMAP
00
ENDCHAR
STARTCHAR exclamdown
ENCODING 161
SWIDTH 343 0
DWIDTH 9 0
BBX 8 18 1 -5
BITMAP
1F
1F
1E
00
00
1C
1C
1C
3C
3C
3C
3C
78
78
78
F8
F8
F8
ENDCHAR
STARTCHAR cent
ENCODING 162
SWIDTH 687 0
DWIDTH 17 0
BBX 14 18 4 0
BITMAP
0070
0060
01F8
07FC
0FFC
3E08
3C00
7C00
7800
F800
F800
FC08
FFF0
7FF0
3FF0
0700
0300
0700
ENDCHAR
STARTCHAR sterling
ENCODING 163
SWIDTH 687 0
DWIDTH 17 0
BBX 16 18 3 0
BITMAP
007E
01FF
03FF
03E2
07C0
07C0
07C0
1FF0
3FE0
3FE0
0F80
0F80
1F00
1E00
3C00
7FF8
FFF8
FFF8
ENDCHAR
STARTCHAR currency
ENCODING 164
SWIDTH 687 0
DWIDTH 17 0
BBX 20 18 0 0
BITMAP
040020
1C0060
1C00F0
0E01E0
0F7B80
07FF00
07FE00
079E00
070F00
0F0E00
070E00
079E00
0FFC00
1FFE00
3DE700
F80780
600380
400200
ENDCHAR
STARTCHAR yen
ENCODING 165
SWIDTH 687 0
DWIDTH 17 0
BBX 16 18 4 0
BITMAP
F80F
7C1E
7C3C
3C38
3E70
3EE0
1FE0
1FC0
0F80
7FE0
7FE0
1F00
FFE0
FFC0
1F00
1E00
3E00
3E00
ENDCHAR
STARTCHAR brokenbar
ENCODING 166
SWIDTH 259 0
DWIDTH 6 0
BBX 7 23 1 -4
BITMAP
0E
0E
0E
0C
1C
1C
1C
1C
18
00
00
00
00
00
30
70
70
70
70
60
E0
E0
E0
ENDCHAR
STARTCHAR section
ENCODING 167
SWIDTH 687 0
DWIDTH 17 0
BBX 15 23 3 -5
BITMAP
03FC
0FFE
0FFE
1F06
1F00
1F80
1FC0
0FF0
1FF8
1DFC
3C7C
3C3C
3E3C
3FB8
1FF0
0FF0
03F8
01F8
00F8
41F0
FFF0
FFE0
7F80
ENDCHAR
STARTCHAR dieresis
ENCODING 168
SWIDTH 663 0
DWIDTH 17 0
BBX 9 3 8 15
BITMAP
7380
E380
E700
ENDCHAR
STARTCHAR copyright
ENCODING 169
SWIDTH 834 0
DWIDTH 21 0
BBX 18 18 3 0
BITMAP
03F000
0FFC00
1E0E00
380300
70F980
63FDC0
C784C0
CE00C0
CE00C0
CE00C0
CE00C0
CE08C0
67F1C0
73F180
380300
1E0E00
0FFC00
03F000
ENDCHAR
STARTCHAR ordfeminine
ENCODING 170
SWIDTH 539 0
DWIDTH 13 0
BBX 12 10 4 8
BITMAP
07F0
1FF0
3DF0
79E0
73E0
F3E0
F7E0
FDE0
FBC0
73C0
ENDCHAR
STARTCHAR guillemotleft
ENCODING 171
SWIDTH 633 0
DWIDTH 16 0
BBX 15 11 2 1
BITMAP
020C
071E
0FBC
1E78
7CF0
FBE0
79F0
3CF0
3C78
1E38
0820
ENDCHAR
STARTCHAR logicalnot
ENCODING 172
SWIDTH 687 0
DWIDTH 17 0
BBX 15 8 3 3
BITMAP
FFFE
FFFE
FFFC
000C
001C
001C
001C
0018
ENDCHAR
STARTCHAR hyphen
ENCODING 173
SWIDTH 289 0
DWIDTH 7 0
BBX 6 3 2 6
BITMAP
FC
FC
FC
ENDCHAR
STARTCHAR registered
ENCODING 174
SWIDTH 691 0
DWIDTH 17 0
BBX 13 13 4 5
BITMAP
0F80
1FE0
3070
67F0
C7D8
CED8
CF98
CF98
CD98
6DB0
7070
3FE0
0F80
ENDCHAR
STARTCHAR macron
ENCODING 175
SWIDTH 663 0
DWIDTH 17 0
BBX 9 3 8 15
BITMAP
FF80
FF80
FF80
ENDCHAR
STARTCHAR degree
ENCODING 176
SWIDTH 241 0
DWIDTH 6 0
BBX 4 4 4 14
BITMAP
70
90
90
70
ENDCHAR
STARTCHAR plusminus
ENCODING 177
SWIDTH 687 0
DWIDTH 17 0
BBX 17 15 1 0
BITMAP
007000
007000
006000
00E000
3FFF80
3FFF80
3FFF80
00C000
01C000
01C000
01C000
000000
7FFE00
FFFE00
FFFE00
ENDCHAR
STARTCHAR twosuperior
ENCODING 178
SWIDTH 539 0
DWIDTH 10 0
BBX 10 11 -14 7
BITMAP
1F80
3FC0
21C0
01C0
0380
0700
1E00
3800
7000
FF80
FF00
ENDCHAR
STARTCHAR threesuperior
ENCODING 179
SWIDTH 539 0
DWIDTH 10 0
BBX 9 11 -15 7
BITMAP
3F00
3F80
0380
0700
3E00
3E00
0700
0700
8700
FF00
FC00
ENDCHAR
STARTCHAR acute
ENCODING 180
SWIDTH 663 0
DWIDTH 17 0
BBX 7 3 9 16
BITMAP
1E
38
E0
ENDCHAR
STARTCHAR mu
ENCODING 181
SWIDTH 681 0
DWIDTH 17 0
BBX 17 17 1 -4
BITMAP
1F0F80
1F0F80
1F1F00
1F1F00
1E1F00
3E3F00
3E7F00
3E7E00
3EDE00
3FBE00
7FBE00
7F3E00
7E7C00
7C0000
780000
F80000
F80000
ENDCHAR
STARTCHAR paragraph
ENCODING 182
SWIDTH 687 0
DWIDTH 17 0
BBX 11 22 5 -4
BITMAP
3FE0
7FE0
FEE0
FEC0
FEC0
FEC0
FDC0
7DC0
3D80
1D80
1D80
1B80
1B80
1B00
3B00
3B00
3300
3700
3600
7600
7600
7E00
ENDCHAR
STARTCHAR periodcentered
ENCODING 183
SWIDTH 343 0
DWIDTH 17 0
BBX 4 3 8 6
BITMAP
70
F0
E0
ENDCHAR
STARTCHAR cedilla
ENCODING 184
SWIDTH 663 0
DWIDTH 17 0
BBX 5 5 5 -5
BITMAP
38
70
38
18
F0
ENDCHAR
STARTCHAR onesuperior
ENCODING 185
SWIDTH 539 0
DWIDTH 10 0
BBX 5 11 -17 7
BITMAP
F8
F8
38
30
70
70
70
70
60
E0
E0
ENDCHAR
STARTCHAR ordmasculine
ENCODING 186
SWIDTH 539 0
DWIDTH 13 0
BBX 13 10 3 8
BITMAP
03E0
0FF0
3FF8
7CF8
7878
F070
F0F0
F9E0
7F80
3E00
ENDCHAR
STARTCHAR guillemotright
ENCODING 187
SWIDTH 633 0
DWIDTH 16 0
BBX 15 11 1 1
BITMAP
0820
38F0
3C78
1E78
1F3C
0FBE
1E7C
3CF0
7BE0
F1C0
6080
ENDCHAR
STARTCHAR onequarter
ENCODING 188
SWIDTH 1089 0
DWIDTH 24 0
BBX 20 18 9 0
BITMAP
F800F0
F801E0
3803C0
300780
700F00
701E00
703C00
707870
60F0F0
E0F1E0
E1E360
03C660
078CE0
0F1FF0
1E1FF0
3C00C0
7800C0
F001C0
ENDCHAR
STARTCHAR onehalf
ENCODING 189
SWIDTH 1089 0
DWIDTH 24 0
BBX 21 18 9 0
BITMAP
F800F0
F801E0
3803C0
300780
700F00
701E00
703C00
707BF0
60F7F8
E0F438
E1E038
03C070
0780E0
0F03C0
1E0700
3C0E00
781FF0
F01FE0
ENDCHAR
STARTCHAR threequarters
ENCODING 190
SWIDTH 1149 0
DWIDTH 24 0
BBX 22 18 11 0
BITMAP
3F003C
3F8078
0380F0
0701E0
3E03C0
3E0780
070F00
071E1C
873C3C
FF3C78
FC78D8
00F198
01E338
03C7FC
0787FC
0F0030
1E0030
3C0070
ENDCHAR
STARTCHAR questiondown
ENCODING 191
SWIDTH 539 0
DWIDTH 13 0
BBX 12 18 0 -5
BITMAP
01F0
01F0
01E0
0000
0000
03E0
03C0
07C0
0F80
1F00
3E00
7C00
F800
F800
FC10
FFF0
7FE0
1FC0
ENDCHAR
STARTCHAR Agrave
ENCODING 192
SWIDTH 771 0
DWIDTH 19 0
BBX 18 22 1 0
BITMAP
003C00
000E00
000700
000000
003E00
007E00
007E00
00FE00
01FE00
01DF00
03DF00
039F00
078F00
070F00
0F0F80
0FFF80
1FFF80
1FFF80
380780
3807C0
7007C0
F007C0
ENDCHAR
STARTCHAR Aacute
ENCODING 193
SWIDTH 771 0
DWIDTH 19 0
BBX 18 22 1 0
BITMAP
000780
000E00
003800
000000
003E00
007E00
007E00
00FE00
01FE00
01DF00
03DF00
039F00
078F00
070F00
0F0F80
0FFF80
1FFF80
1FFF80
380780
3807C0
7007C0
F007C0
ENDCHAR
STARTCHAR Acircumflex
ENCODING 194
SWIDTH 771 0
DWIDTH 19 0
BBX 18 22 1 0
BITMAP
001E00
003F00
00E380
000000
003E00
007E00
007E00
00FE00
01FE00
01DF00
03DF00
039F00
078F00
070F00
0F0F80
0FFF80
1FFF80
1FFF80
380780
3807C0
7007C0
F007C0
ENDCHAR
STARTCHAR Atilde
ENCODING 195
SWIDTH 771 0
DWIDTH 19 0
BBX 18 22 1 0
BITMAP
003DC0
007F80
00EF00
000000
003E00
007E00
007E00
00FE00
01FE00
01DF00
03DF00
039F00
078F00
070F00
0F0F80
0FFF80
1FFF80
1FFF80
380780
3807C0
7007C0
F007C0
ENDCHAR
STARTCHAR Adieresis
ENCODING 196
SWIDTH 771 0
DWIDTH 19 0
BBX 18 22 1 0
BITMAP
0039C0
0071C0
007380
000000
003E00
007E00
007E00
00FE00
01FE00
01DF00
03DF00
039F00
078F00
070F00
0F0F80
0FFF80
1FFF80
1FFF80
380780
3807C0
7007C0
F007C0
ENDCHAR
STARTCHAR Aring
ENCODING 197
SWIDTH 771 0
DWIDTH 19 0
BBX 18 23 1 0
BITMAP
000C00
001200
001200
000C00
000000
003E00
007E00
007E00
00FE00
01FE00
01DF00
03DF00
039F00
078F00
070F00
0F0F80
0FFF80
1FFF80
1FFF80
380780
3807C0
7007C0
F007C0
ENDCHAR
STARTCHAR AE
ENCODING 198
SWIDTH 1004 0
DWIDTH 25 0
BBX 27 18 0 0
BITMAP
0003FFE0
0007FFE0
000FFFC0
001FE000
003FE000
003FC000
007FC000
00F7FF00
01E7FF00
01C7FF00
03C78000
07FF8000
0FFF8000
1FFF8000
1C0F8000
3C0FFF80
781FFF00
F01FFF00
ENDCHAR
STARTCHAR Ccedilla
ENCODING 199
SWIDTH 737 0
DWIDTH 18 0
BBX 18 23 2 -5
BITMAP
007F80
03FFC0
07FFC0
0FC080
1F0000
3E0000
7C0000
7C0000
780000
F80000
F80000
F80000
F80000
FC0000
7E0600
7FFE00
3FFE00
0FF800
030000
070000
038000
018000
0F0000
ENDCHAR
STARTCHAR Egrave
ENCODING 200
SWIDTH 642 0
DWIDTH 16 0
BBX 16 22 2 0
BITMAP
01E0
0070
0038
0000
0FFF
1FFF
1FFE
1F00
1F00
1E00
3E00
3FF8
3FF8
3FF8
3C00
7C00
7C00
7C00
7C00
7FFC
FFF8
FFF8
ENDCHAR
STARTCHAR Eacute
ENCODING 201
SWIDTH 642 0
DWIDTH 16 0
BBX 16 22 2 0
BITMAP
003C
0070
01C0
0000
0FFF
1FFF
1FFE
1F00
1F00
1E00
3E00
3FF8
3FF8
3FF8
3C00
7C00
7C00
7C00
7C00
7FFC
FFF8
FFF8
ENDCHAR
STARTCHAR Ecircumflex
ENCODING 202
SWIDTH 642 0
DWIDTH 16 0
BBX 16 22 2 0
BITMAP
00F0
01F8
071C
0000
0FFF
1FFF
1FFE
1F00
1F00
1E00
3E00
3FF8
3FF8
3FF8
3C00
7C00
7C00
7C00
7C00
7FFC
FFF8
FFF8
ENDCHAR
STARTCHAR Edieresis
ENCODING 203
SWIDTH 642 0
DWIDTH 16 0
BBX 16 22 2 0
BITMAP
039C
071C
0738
0000
0FFF
1FFF
1FFE
1F00
1F00
1E00
3E00
3FF8
3FF8
3FF8
3C00
7C00
7C00
7C00
7C00
7FFC
FFF8
FFF8
ENDCHAR
STARTCHAR Igrave
ENCODING 204
SWIDTH 361 0
DWIDTH 9 0
BBX 9 22 2 0
BITMAP
1E00
0700
0380
0000
1F00
1F00
1F00
1E00
1E00
3E00
3E00
3E00
3C00
3C00
7C00
7C00
7C00
7800
7800
F800
F800
F800
ENDCHAR
STARTCHAR Iacute
ENCODING 205
SWIDTH 361 0
DWIDTH 9 0
BBX 10 22 2 0
BITMAP
03C0
0700
1C00
0000
1F00
1F00
1F00
1E00
1E00
3E00
3E00
3E00
3C00
3C00
7C00
7C00
7C00
7800
7800
F800
F800
F800
ENDCHAR
STARTCHAR Icircumflex
ENCODING 206
SWIDTH 361 0
DWIDTH 9 0
BBX 10 22 2 0
BITMAP
0F00
1F80
71C0
0000
1F00
1F00
1F00
1E00
1E00
3E00
3E00
3E00
3C00
3C00
7C00
7C00
7C00
7800
7800
F800
F800
F800
ENDCHAR
STARTCHAR Idieresis
ENCODING 207
SWIDTH 361 0
DWIDTH 9 0
BBX 11 22 2 0
BITMAP
1CE0
38E0
39C0
0000
1F00
1F00
1F00
1E00
1E00
3E00
3E00
3E00
3C00
3C00
7C00
7C00
7C00
7800
7800
F800
F800
F800
ENDCHAR
STARTCHAR Eth
ENCODING 208
SWIDTH 822 0
DWIDTH 21 0
BBX 20 18 1 0
BITMAP
0FFF80
0FFFC0
0FFFE0
0F07F0
1F03F0
1F01F0
1F01F0
FFE1F0
FFE1F0
FFE1F0
3E03E0
3E03E0
3E07C0
3C0FC0
7C3F80
7FFF00
7FFE00
7FF000
ENDCHAR
STARTCHAR Ntilde
ENCODING 209
SWIDTH 789 0
DWIDTH 20 0
BBX 19 22 2 0
BITMAP
007B80
00FF00
01DE00
000000
1F01E0
1F01E0
1F81E0
1F81C0
1FC3C0
3FC3C0
3FE3C0
3FE3C0
3DF380
39F780
78FF80
78FF80
787F80
787F00
703F00
F03F00
F01F00
F01F00
ENDCHAR
STARTCHAR Ograve
ENCODING 210
SWIDTH 855 0
DWIDTH 21 0
BBX 20 22 2 0
BITMAP
007800
001C00
000E00
000000
007F00
03FFC0
07FFE0
0F87E0
1F03F0
3E01F0
7C01F0
7C01F0
F801F0
F801F0
F803E0
F803E0
F807C0
FC0F80
7E1F00
7FFE00
3FFC00
0FE000
ENDCHAR
STARTCHAR Oacute
ENCODING 211
SWIDTH 855 0
DWIDTH 21 0
BBX 20 22 2 0
BITMAP
000F00
001C00
007000
000000
007F00
03FFC0
07FFE0
0F87E0
1F03F0
3E01F0
7C01F0
7C01F0
F801F0
F801F0
F803E0
F803E0
F807C0
FC0F80
7E1F00
7FFE00
3FFC00
0FE000
ENDCHAR
STARTCHAR Ocircumflex
ENCODING 212
SWIDTH 855 0
DWIDTH 21 0
BBX 20 22 2 0
BITMAP
003C00
007E00
01C700
000000
007F00
03FFC0
07FFE0
0F87E0
1F03F0
3E01F0
7C01F0
7C01F0
F801F0
F801F0
F803E0
F803E0
F807C0
FC0F80
7E1F00
7FFE00
3FFC00
0FE000
ENDCHAR
STARTCHAR Otilde
ENCODING 213
SWIDTH 855 0
DWIDTH 21 0
BBX 20 22 2 0
BITMAP
007B80
00FF00
01DE00
000000
007F00
03FFC0
07FFE0
0F87E0
1F03F0
3E01F0
7C01F0
7C01F0
F801F0
F801F0
F803E0
F803E0
F807C0
FC0F80
7E1F00
7FFE00
3FFC00
0FE000
ENDCHAR
STARTCHAR Odieresis
ENCODING 214
SWIDTH 855 0
DWIDTH 21 0
BBX 20 22 2 0
BITMAP
007380
00E380
00E700
000000
007F00
03FFC0
07FFE0
0F87E0
1F03F0
3E01F0
7C01F0
7C01F0
F801F0
F801F0
F803E0
F803E0
F807C0
FC0F80
7E1F00
7FFE00
3FFC00
0FE000
ENDCHAR
STARTCHAR multiply
ENCODING 215
SWIDTH 687 0
DWIDTH 17 0
BBX 17 15 2 0
BITMAP
080100
380300
1C0F80
0E1E00
0F3C00
07F800
03F000
03E000
07E000
0FF000
1E7800
3C3800
F81C00
600E00
400800
ENDCHAR
STARTCHAR Oslash
ENCODING 216
SWIDTH 855 0
DWIDTH 21 0
BBX 23 18 3 0
BITMAP
003FBE
01FFFC
03FFF8
07C3F0
0F83F8
1F07F8
3E0FF8
3E1EF8
7C3CF8
7C78F8
7CF1F0
7DE1F0
7FC3E0
7F87C0
3F0F80
3FFF00
7FFE00
FFF000
ENDCHAR
STARTCHAR Ugrave
ENCODING 217
SWIDTH 759 0
DWIDTH 19 0
BBX 18 22 3 0
BITMAP
01E000
007000
003800
000000
3E03C0
3E07C0
3E0780
3E0780
3C0780
7C0780
7C0F80
7C0F00
780F00
F80F00
F80F00
F81F00
F81E00
F81E00
FC3C00
7FFC00
3FF800
0FE000
ENDCHAR
STARTCHAR Uacute
ENCODING 218
SWIDTH 759 0
DWIDTH 19 0
BBX 18 22 3 0
BITMAP
001E00
003800
00E000
000000
3E03C0
3E07C0
3E0780
3E0780
3C0780
7C0780
7C0F80
7C0F00
780F00
F80F00
F80F00
F81F00
F81E00
F81E00
FC3C00
7FFC00
3FF800
0FE000
ENDCHAR
STARTCHAR Ucircumflex
ENCODING 219
SWIDTH 759 0
DWIDTH 19 0
BBX 18 22 3 0
BITMAP
007800
00FC00
038E00
000000
3E03C0
3E07C0
3E0780
3E0780
3C0780
7C0780
7C0F80
7C0F00
780F00
F80F00
F80F00
F81F00
F81E00
F81E00
FC3C00
7FFC00
3FF800
0FE000
ENDCHAR
STARTCHAR Udieresis
ENCODING 220
SWIDTH 759 0
DWIDTH 19 0
BBX 18 22 3 0
BITMAP
01CE00
038E00
039C00
000000
3E03C0
3E07C0
3E0780
3E0780
3C0780
7C0780
7C0F80
7C0F00
780F00
F80F00
F80F00
F81F00
F81E00
F81E00
FC3C00
7FFC00
3FF800
0FE000
ENDCHAR
STARTCHAR Yacute
ENCODING 221
SWIDTH 681 0
DWIDTH 17 0
BBX 16 22 4 0
BITMAP
0078
00E0
0380
0000
F80F
781E
7C3C
7C38
3C78
3EF0
3FE0
1FC0
1F80
1F80
1F00
1F00
1F00
1F00
1F00
3E00
3E00
3E00
ENDCHAR
STARTCHAR Thorn
ENCODING 222
SWIDTH 645 0
DWIDTH 16 0
BBX 15 18 2 0
BITMAP
1F00
1F00
1E00
1FF8
1FFC
3FFE
3E3E
3C3E
3C3E
3C3C
7CFC
7FF8
7FF0
7FC0
7800
F800
F800
F000
ENDCHAR
STARTCHAR germandbls
ENCODING 223
SWIDTH 708 0
DWIDTH 18 0
BBX 17 24 1 -5
BITMAP
00FC00
03FF00
07FF00
07CF00
0F8F00
0F9E00
0F9C00
1F3800
1F3800
1F7C00
1F7E00
1E3F00
3E1F00
3E0F80
3E0780
3E8780
3CFF80
7CFF00
7CFC00
7C0000
7C0000
780000
F80000
F80000
ENDCHAR
STARTCHAR agrave
ENCODING 224
SWIDTH 681 0
DWIDTH 17 0
BBX 16 17 2 0
BITMAP
01E0
0070
0038
0000
01FF
07FF
0FFE
1F1E
3E3E
7C3E
787E
F8FC
F9BC
FB7C
FF7C
FE7C
78F8
ENDCHAR
STARTCHAR aacute
ENCODING 225
SWIDTH 681 0
DWIDTH 17 0
BBX 16 17 2 0
BITMAP
001E
0038
00E0
0000
01FF
07FF
0FFE
1F1E
3E3E
7C3E
787E
F8FC
F9BC
FB7C
FF7C
FE7C
78F8
ENDCHAR
STARTCHAR acircumflex
ENCODING 226
SWIDTH 681 0
DWIDTH 17 0
BBX 16 17 2 0
BITMAP
0078
00FC
038E
0000
01FF
07FF
0FFE
1F1E
3E3E
7C3E
787E
F8FC
F9BC
FB7C
FF7C
FE7C
78F8
ENDCHAR
STARTCHAR atilde
ENCODING 227
SWIDTH 681 0
DWIDTH 17 0
BBX 16 17 2 0
BITMAP
00F7
01FE
03BC
0000
01FF
07FF
0FFE
1F1E
3E3E
7C3E
787E
F8FC
F9BC
FB7C
FF7C
FE7C
78F8
ENDCHAR
STARTCHAR adieresis
ENCODING 228
SWIDTH 681 0
DWIDTH 17 0
BBX 16 17 2 0
BITMAP
01CE
038E
039C
0000
01FF
07FF
0FFE
1F1E
3E3E
7C3E
787E
F8FC
F9BC
FB7C
FF7C
FE7C
78F8
ENDCHAR
STARTCHAR aring
ENCODING 229
SWIDTH 681 0
DWIDTH 17 0
BBX 16 18 2 0
BITMAP
0030
0048
0048
0030
0000
01FF
07FF
0FFE
1F1E
3E3E
7C3E
787E
F8FC
F9BC
FB7C
FF7C
FE7C
78F8
ENDCHAR
STARTCHAR ae
ENCODING 230
SWIDTH 987 0
DWIDTH 25 0
BBX 23 13 2 0
BITMAP
01FF78
07FFFC
0FFFFE
1E1F3E
3C3E3C
7C3FFC
787FF0
F8BFC0
F9BC02
FF3E0E
FE3FFE
FC1FFC
780FE0
ENDCHAR
STARTCHAR ccedilla
ENCODING 231
SWIDTH 548 0
DWIDTH 14 0
BBX 13 18 2 -5
BITMAP
01F0
07F8
1FF8
3F18
7C00
7C00
F800
F800
F800
FC30
FFE0
7FE0
1F80
0C00
1C00
0E00
0600
3C00
ENDCHAR
STARTCHAR egrave
ENCODING 232
SWIDTH 612 0
DWIDTH 15 0
BBX 13 17 2 0
BITMAP
03C0
00E0
0070
0000
03E0
0FF0
1FF8
3CF8
78F0
7FF0
FFC0
FF00
F808
F838
FFF8
7FF0
1F80
ENDCHAR
STARTCHAR eacute
ENCODING 233
SWIDTH 612 0
DWIDTH 15 0
BBX 14 17 2 0
BITMAP
003C
0070
01C0
0000
03E0
0FF0
1FF8
3CF8
78F0
7FF0
FFC0
FF00
F808
F838
FFF8
7FF0
1F80
ENDCHAR
STARTCHAR ecircumflex
ENCODING 234
SWIDTH 612 0
DWIDTH 15 0
BBX 14 17 2 0
BITMAP
00F0
01F8
071C
0000
03E0
0FF0
1FF8
3CF8
78F0
7FF0
FFC0
FF00
F808
F838
FFF8
7FF0
1F80
ENDCHAR
STARTCHAR edieresis
ENCODING 235
SWIDTH 612 0
DWIDTH 15 0
BBX 14 17 2 0
BITMAP
039C
071C
0738
0000
03E0
0FF0
1FF8
3CF8
78F0
7FF0
FFC0
FF00
F808
F838
FFF8
7FF0
1F80
ENDCHAR
STARTCHAR igrave
ENCODING 236
SWIDTH 343 0
DWIDTH 9 0
BBX 10 17 2 0
BITMAP
0F00
0380
01C0
0000
1F00
1F00
3E00
3E00
3E00
3E00
7E00
7C00
7C00
7C00
7C00
F800
F800
ENDCHAR
STARTCHAR iacute
ENCODING 237
SWIDTH 343 0
DWIDTH 9 0
BBX 11 17 2 0
BITMAP
01E0
0380
0E00
0000
1F00
1F00
3E00
3E00
3E00
3E00
7E00
7C00
7C00
7C00
7C00
F800
F800
ENDCHAR
STARTCHAR icircumflex
ENCODING 238
SWIDTH 343 0
DWIDTH 9 0
BBX 11 17 2 0
BITMAP
0780
0FC0
38E0
0000
1F00
1F00
3E00
3E00
3E00
3E00
7E00
7C00
7C00
7C00
7C00
F800
F800
ENDCHAR
STARTCHAR idieresis
ENCODING 239
SWIDTH 343 0
DWIDTH 9 0
BBX 11 17 2 0
BITMAP
1CE0
38E0
39C0
0000
1F00
1F00
3E00
3E00
3E00
3E00
7E00
7C00
7C00
7C00
7C00
F800
F800
ENDCHAR
STARTCHAR eth
ENCODING 240
SWIDTH 663 0
DWIDTH 17 0
BBX 15 22 2 0
BITMAP
0030
0078
00F8
1CF0
1FE0
3FF0
07F8
0E7C
1C7C
09FE
07FE
1FFE
3E3E
7C3E
783E
F83E
F83C
F87C
FCF8
7FF0
7FE0
1F80
ENDCHAR
STARTCHAR ntilde
ENCODING 241
SWIDTH 675 0
DWIDTH 17 0
BBX 15 17 2 0
BITMAP
01EE
03FC
0778
0000
1E1C
3E7E
3EFE
3DFE
3DBE
3F3E
7E3C
7C7C
7C7C
787C
787C
F8F8
F8F8
ENDCHAR
STARTCHAR ograve
ENCODING 242
SWIDTH 663 0
DWIDTH 17 0
BBX 15 17 2 0
BITMAP
01E0
0070
0038
0000
01F8
0FFC
1FFE
3E3E
7C3E
783E
F83E
F83E
F87C
FCF8
FFF0
7FE0
1F80
ENDCHAR
STARTCHAR oacute
ENCODING 243
SWIDTH 663 0
DWIDTH 17 0
BBX 15 17 2 0
BITMAP
003C
0070
01C0
0000
01F8
0FFC
1FFE
3E3E
7C3E
783E
F83E
F83E
F87C
FCF8
FFF0
7FE0
1F80
ENDCHAR
STARTCHAR ocircumflex
ENCODING 244
SWIDTH 663 0
DWIDTH 17 0
BBX 15 17 2 0
BITMAP
00F0
01F8
071C
0000
01F8
0FFC
1FFE
3E3E
7C3E
783E
F83E
F83E
F87C
FCF8
FFF0
7FE0
1F80
ENDCHAR
STARTCHAR otilde
ENCODING 245
SWIDTH 663 0
DWIDTH 17 0
BBX 15 17 2 0
BITMAP
01EE
03FC
0778
0000
01F8
0FFC
1FFE
3E3E
7C3E
783E
F83E
F83E
F87C
FCF8
FFF0
7FE0
1F80
ENDCHAR
STARTCHAR odieresis
ENCODING 246
SWIDTH 663 0
DWIDTH 17 0
BBX 15 17 2 0
BITMAP
01CE
038E
039C
0000
01F8
0FFC
1FFE
3E3E
7C3E
783E
F83E
F83E
F87C
FCF8
FFF0
7FE0
1F80
ENDCHAR
STARTCHAR divide
ENCODING 247
SWIDTH 687 0
DWIDTH 17 0
BBX 15 15 3 0
BITMAP
01E0
01C0
03C0
0000
0000
0000
FFFE
FFFE
FFFC
0000
0000
0000
0780
0700
0F00
ENDCHAR
STARTCHAR oslash
ENCODING 248
SWIDTH 663 0
DWIDTH 17 0
BBX 17 13 3 0
BITMAP
00FF80
07FF00
0FFF00
1F3F00
3E7F00
3CFF00
7DDF00
7F9F00
7F3E00
7E7C00
7FF800
7FF000
FFC000
ENDCHAR
STARTCHAR ugrave
ENCODING 249
SWIDTH 675 0
DWIDTH 17 0
BBX 15 17 3 0
BITMAP
01E0
0070
0038
0000
3E3E
3C3E
7C3C
7C3C
7C7C
7C7C
78FC
F9F8
FB78
FF78
FEF8
FCF8
70F0
ENDCHAR
STARTCHAR uacute
ENCODING 250
SWIDTH 675 0
DWIDTH 17 0
BBX 15 17 3 0
BITMAP
003C
0070
01C0
0000
3E3E
3C3E
7C3C
7C3C
7C7C
7C7C
78FC
F9F8
FB78
FF78
FEF8
FCF8
70F0
ENDCHAR
STARTCHAR ucircumflex
ENCODING 251
SWIDTH 675 0
DWIDTH 17 0
BBX 15 17 3 0
BITMAP
00F0
01F8
071C
0000
3E3E
3C3E
7C3C
7C3C
7C7C
7C7C
78FC
F9F8
FB78
FF78
FEF8
FCF8
70F0
ENDCHAR
STARTCHAR udieresis
ENCODING 252
SWIDTH 675 0
DWIDTH 17 0
BBX 15 17 3 0
BITMAP
039C
071C
0738
0000
3E3E
3C3E
7C3C
7C3C
7C7C
7C7C
78FC
F9F8
FB78
FF78
FEF8
FCF8
70F0
ENDCHAR
STARTCHAR yacute
ENCODING 253
SWIDTH 633 0
DWIDTH 16 0
BBX 17 22 1 -5
BITMAP
001E00
003800
00E000
000000
3E0780
3E0F00
3E0E00
1E1E00
1F3C00
1F3800
1F7800
1FF000
0FE000
0FE000
0FC000
0F8000
0F8000
0F0000
1E0000
3E0000
7C0000
F80000
ENDCHAR
STARTCHAR thorn
ENCODING 254
SWIDTH 681 0
DWIDTH 17 0
BBX 17 23 1 -5
BITMAP
0F8000
0F8000
0F8000
0F8000
0F8000
1F0F00
1F3F80
1F7F80
1F7F80
1ECF80
3F8F80
3F0F00
3E1F00
3E1E00
3E7C00
7FF800
7FF000
7FC000
7C0000
7C0000
F80000
F80000
F80000
ENDCHAR
STARTCHAR ydieresis
ENCODING 255
SWIDTH 633 0
DWIDTH 16 0
BBX 17 22 1 -5
BITMAP
01CE00
038E00
039C00
000000
3E0780
3E0F00
3E0E00
1E1E00
1F3C00
1F3800
1F7800
1FF000
0FE000
0FE000
0FC000
0F8000
0F8000
0F0000
1E0000
3E0000
7C0000
F80000
ENDCHAR
STARTCHAR Amacron
ENCODING 256
SWIDTH 771 0
DWIDTH 19 0
BBX 18 22 1 0
BITMAP
03FE00
03FE00
03FE00
000000
003E00
007E00
007E00
00FE00
01FE00
01DF00
03DF00
039F00
078F00
070F00
0F0F80
0FFF80
1FFF80
1FFF80
380780
3807C0
7007C0
F007C0
ENDCHAR
STARTCHAR amacron
ENCODING 257
SWIDTH 681 0
DWIDTH 17 0
BBX 16 17 2 0
BITMAP
07FC
07FC
07FC
0000
01FF
07FF
0FFE
1F1E
3E3E
7C3E
787E
F8FC
F9BC
FB7C
FF7C
FE7C
78F8
ENDCHAR
STARTCHAR Abreve
ENCODING 258
SWIDTH 771 0
DWIDTH 19 0
BBX 18 22 1 0
BITMAP
01C700
01FE00
00F800
000000
003E00
007E00
007E00
00FE00
01FE00
01DF00
03DF00
039F00
078F00
070F00
0F0F80
0FFF80
1FFF80
1FFF80
380780
3807C0
7007C0
F007C0
ENDCHAR
STARTCHAR abreve
ENCODING 259
SWIDTH 681 0
DWIDTH 17 0
BBX 16 17 2 0
BITMAP
038E
03FC
01F0
0000
01FF
07FF
0FFE
1F1E
3E3E
7C3E
787E
F8FC
F9BC
FB7C
FF7C
FE7C
78F8
ENDCHAR
STARTCHAR Aogonek
ENCODING 260
SWIDTH 771 0
DWIDTH 19 0
BBX 18 22 1 -4
BITMAP
003E00
007E00
007E00
00FE00
01FE00
01DF00
03DF00
039F00
078F00
070F00
0F0F80
0FFF80
1FFF80
1FFF80
380780
3807C0
7007C0
F007C0
000000
00E000
01C000
01F000
ENDCHAR
STARTCHAR aogonek
ENCODING 261
SWIDTH 681 0
DWIDTH 17 0
BBX 16 17 2 -4
BITMAP
01FF
07FF
0FFE
1F1E
3E3E
7C3E
787E
F8FC
F9BC
FB7C
FF7C
FE7C
78F8
0000
0380
0700
07C0
ENDCHAR
STARTCHAR Cacute
ENCODING 262
SWIDTH 737 0
DWIDTH 18 0
BBX 18 22 2 0
BITMAP
001E00
003800
00E000
000000
007F80
03FFC0
07FFC0
0FC080
1F0000
3E0000
7C0000
7C0000
780000
F80000
F80000
F80000
F80000
FC0000
7E0600
7FFE00
3FFE00
0FF800
ENDCHAR
STARTCHAR cacute
ENCODING 263
SWIDTH 548 0
DWIDTH 14 0
BBX 13 17 2 0
BITMAP
00F0
01C0
0700
0000
01F0
07F8
1FF8
3F18
7C00
7C00
F800
F800
F800
FC30
FFE0
7FE0
1F80
ENDCHAR
STARTCHAR Ccircumflex
ENCODING 264
SWIDTH 737 0
DWIDTH 18 0
BBX 18 22 2 0
BITMAP
007800
00FC00
038E00
000000
007F80
03FFC0
07FFC0
0FC080
1F0000
3E0000
7C0000
7C0000
780000
F80000
F80000
F80000
F80000
FC0000
7E0600
7FFE00
3FFE00
0FF800
ENDCHAR
STARTCHAR ccircumflex
ENCODING 265
SWIDTH 548 0
DWIDTH 14 0
BBX 13 17 2 0
BITMAP
03C0
07E0
1C70
0000
01F0
07F8
1FF8
3F18
7C00
7C00
F800
F800
F800
FC30
FFE0
7FE0
1F80
ENDCHAR
STARTCHAR Cdotaccent
ENCODING 266
SWIDTH 737 0
DWIDTH 18 0
BBX 18 22 2 0
BITMAP
007000
00F000
00E000
000000
007F80
03FFC0
07FFC0
0FC080
1F0000
3E0000
7C0000
7C0000
780000
F80000
F80000
F80000
F80000
FC0000
7E0600
7FFE00
3FFE00
0FF800
ENDCHAR
STARTCHAR cdotaccent
ENCODING 267
SWIDTH 548 0
DWIDTH 14 0
BBX 13 17 2 0
BITMAP
01C0
03C0
0380
0000
01F0
07F8
1FF8
3F18
7C00
7C00
F800
F800
F800
FC30
FFE0
7FE0
1F80
ENDCHAR
STARTCHAR Ccaron
ENCODING 268
SWIDTH 737 0
DWIDTH 18 0
BBX 18 22 2 0
BITMAP
038E00
01F800
00F000
000000
007F80
03FFC0
07FFC0
0FC080
1F0000
3E0000
7C0000
7C0000
780000
F80000
F80000
F80000
F80000
FC0000
7E0600
7FFE00
3FFE00
0FF800
ENDCHAR
STARTCHAR ccaron
ENCODING 269
SWIDTH 548 0
DWIDTH 14 0
BBX 13 17 2 0
BITMAP
1C70
0FC0
0780
0000
01F0
07F8
1FF8
3F18
7C00
7C00
F800
F800
F800
FC30
FFE0
7FE0
1F80
ENDCHAR
STARTCHAR Dcaron
ENCODING 270
SWIDTH 822 0
DWIDTH 21 0
BBX 20 22 2 0
BITMAP
01C700
00FC00
007800
000000
0FFF00
1FFFC0
1FFFE0
1F07F0
1F03F0
1F01F0
3E01F0
3E01F0
3E01F0
3E03F0
3C03E0
7C03E0
7C07C0
7C0FC0
7C3F80
7FFF00
FFFC00
FFF000
ENDCHAR
STARTCHAR dcaron
ENCODING 271
SWIDTH 912 0
DWIDTH 23 0
BBX 23 19 2 0
BITMAP
000FBE
000FBE
000F3E
001F3C
001F3C
001F1C
01FF1C
07FE78
0FFE70
1F3E00
3E3E00
7C3E00
787C00
F8FC00
F9BC00
FB7C00
FF7C00
FE7800
78F800
ENDCHAR
STARTCHAR Dcroat
ENCODING 272
SWIDTH 822 0
DWIDTH 21 0
BBX 20 18 1 0
BITMAP
0FFF80
0FFFC0
0FFFE0
0F07F0
1F03F0
1F01F0
1F01F0
FFE1F0
FFE1F0
FFE1F0
3E03E0
3E03E0
3E07C0
3C0FC0
7C3F80
7FFF00
7FFE00
7FF000
ENDCHAR
STARTCHAR dcroat
ENCODING 273
SWIDTH 681 0
DWIDTH 17 0
BBX 17 19 2 0
BITMAP
000F80
000F80
000F00
007F80
007F80
007F80
01FF00
07FE00
0FFE00
1F3E00
3E3E00
7C3E00
787C00
F8FC00
F9BC00
FB7C00
FF7C00
FE7800
78F800
ENDCHAR
STARTCHAR Emacron
ENCODING 274
SWIDTH 642 0
DWIDTH 16 0
BBX 16 22 2 0
BITMAP
0FF8
0FF8
0FF8
0000
0FFF
1FFF
1FFE
1F00
1F00
1E00
3E00
3FF8
3FF8
3FF8
3C00
7C00
7C00
7C00
7C00
7FFC
FFF8
FFF8
ENDCHAR
STARTCHAR emacron
ENCODING 275
SWIDTH 612 0
DWIDTH 15 0
BBX 13 17 2 0
BITMAP
1FF0
1FF0
1FF0
0000
03E0
0FF0
1FF8
3CF8
78F0
7FF0
FFC0
FF00
F808
F838
FFF8
7FF0
1F80
ENDCHAR
STARTCHAR Ebreve
ENCODING 276
SWIDTH 642 0
DWIDTH 16 0
BBX 16 22 2 0
BITMAP
071C
07F8
03E0
0000
0FFF
1FFF
1FFE
1F00
1F00
1E00
3E00
3FF8
3FF8
3FF8
3C00
7C00
7C00
7C00
7C00
7FFC
FFF8
FFF8
ENDCHAR
STARTCHAR ebreve
ENCODING 277
SWIDTH 612 0
DWIDTH 15 0
BBX 13 17 2 0
BITMAP
0E38
0FF0
07C0
0000
03E0
0FF0
1FF8
3CF8
78F0
7FF0
FFC0
FF00
F808
F838
FFF8
7FF0
1F80
ENDCHAR
STARTCHAR Edotaccent
ENCODING 278
SWIDTH 642 0
DWIDTH 16 0
BBX 16 22 2 0
BITMAP
00E0
01E0
01C0
0000
0FFF
1FFF
1FFE
1F00
1F00
1E00
3E00
3FF8
3FF8
3FF8
3C00
7C00
7C00
7C00
7C00
7FFC
FFF8
FFF8
ENDCHAR
STARTCHAR edotaccent
ENCODING 279
SWIDTH 612 0
DWIDTH 15 0
BBX 13 17 2 0
BITMAP
01C0
03C0
0380
0000
03E0
0FF0
1FF8
3CF8
78F0
7FF0
FFC0
FF00
F808
F838
FFF8
7FF0
1F80
ENDCHAR
STARTCHAR Eogonek
ENCODING 280
SWIDTH 642 0
DWIDTH 16 0
BBX 16 22 2 -4
BITMAP
0FFF
1FFF
1FFE
1F00
1F00
1E00
3E00
3FF8
3FF8
3FF8
3C00
7C00
7C00
7C00
7C00
7FFC
FFF8
FFF8
0000
0700
0E00
0F80
ENDCHAR
STARTCHAR eogonek
ENCODING 281
SWIDTH 612 0
DWIDTH 15 0
BBX 13 17 2 -4
BITMAP
03E0
0FF0
1FF8
3CF8
78F0
7FF0
FFC0
FF00
F808
F838
FFF8
7FF0
1F80
0000
0700
0E00
0F80
ENDCHAR
STARTCHAR Ecaron
ENCODING 282
SWIDTH 642 0
DWIDTH 16 0
BBX 16 22 2 0
BITMAP
0E38
07E0
03C0
0000
0FFF
1FFF
1FFE
1F00
1F00
1E00
3E00
3FF8
3FF8
3FF8
3C00
7C00
7C00
7C00
7C00
7FFC
FFF8
FFF8
ENDCHAR
STARTCHAR ecaron
ENCODING 283
SWIDTH 612 0
DWIDTH 15 0
BBX 13 17 2 0
BITMAP
1C70
0FC0
0780
0000
03E0
0FF0
1FF8
3CF8
78F0
7FF0
FFC0
FF00
F808
F838
FFF8
7FF0
1F80
ENDCHAR
STARTCHAR Gcircumflex
ENCODING 284
SWIDTH 755 0
DWIDTH 19 0
BBX 18 22 2 0
BITMAP
007800
00FC00
038E00
000000
007F80
03FFC0
07FFC0
0FC080
1F0000
3E0000
7C0000
7C0000
780000
F80F00
F80F00
F81F00
F81F00
FC1E00
7E1E00
7FFE00
3FFE00
0FF800
ENDCHAR
STARTCHAR gcircumflex
ENCODING 285
SWIDTH 674 0
DWIDTH 17 0
BBX 16 22 1 -5
BITMAP
00F0
01F8
071C
0000
01FF
07FF
0FFF
1F1E
3E3E
3C3E
7C7E
7CFE
7DBC
7FBC
7F7C
7E7C
3C7C
80F8
E0F8
FFF0
7FE0
7F80
ENDCHAR
STARTCHAR Gbreve
ENCODING 286
SWIDTH 755 0
DWIDTH 19 0
BBX 18 22 2 0
BITMAP
038E00
03FC00
01F000
000000
007F80
03FFC0
07FFC0
0FC080
1F0000
3E0000
7C0000
7C0000
780000
F80F00
F80F00
F81F00
F81F00
FC1E00
7E1E00
7FFE00
3FFE00
0FF800
ENDCHAR
STARTCHAR gbreve
ENCODING 287
SWIDTH 674 0
DWIDTH 17 0
BBX 16 22 1 -5
BITMAP
071C
07F8
03E0
0000
01FF
07FF
0FFF
1F1E
3E3E
3C3E
7C7E
7CFE
7DBC
7FBC
7F7C
7E7C
3C7C
80F8
E0F8
FFF0
7FE0
7F80
ENDCHAR
STARTCHAR Gdotaccent
ENCODING 288
SWIDTH 755 0
DWIDTH 19 0
BBX 18 22 2 0
BITMAP
007000
00F000
00E000
000000
007F80
03FFC0
07FFC0
0FC080
1F0000
3E0000
7C0000
7C0000
780000
F80F00
F80F00
F81F00
F81F00
FC1E00
7E1E00
7FFE00
3FFE00
0FF800
ENDCHAR
STARTCHAR gdotaccent
ENCODING 289
SWIDTH 674 0
DWIDTH 17 0
BBX 16 22 1 -5
BITMAP
0070
00F0
00E0
0000
01FF
07FF
0FFF
1F1E
3E3E
3C3E
7C7E
7CFE
7DBC
7FBC
7F7C
7E7C
3C7C
80F8
E0F8
FFF0
7FE0
7F80
ENDCHAR
STARTCHAR Gcommaaccent
ENCODING 290
SWIDTH 755 0
DWIDTH 19 0
BBX 18 28 2 -10
BITMAP
007F80
03FFC0
07FFC0
0FC080
1F0000
3E0000
7C0000
7C0000
780000
F80F00
F80F00
F81F00
F81F00
FC1E00
7E1E00
7FFE00
3FFE00
0FF800
000000
03E000
03E000
03E000
03C000
03C000
01C000
01C000
078000
070000
ENDCHAR
STARTCHAR gcommaaccent
ENCODING 291
SWIDTH 674 0
DWIDTH 17 0
BBX 16 28 1 -5
BITMAP
0018
0038
0078
00E0
00F0
00F0
01F0
01F0
01F0
0000
01FF
07FF
0FFF
1F1E
3E3E
3C3E
7C7E
7CFE
7DBC
7FBC
7F7C
7E7C
3C7C
80F8
E0F8
FFF0
7FE0
7F80
ENDCHAR
STARTCHAR Hcircumflex
ENCODING 292
SWIDTH 813 0
DWIDTH 20 0
BBX 20 22 2 0
BITMAP
007800
00FC00
038E00
000000
0F81F0
1F01F0
1F01E0
1F03E0
1F03E0
1E03E0
3E03E0
3FFFC0
3FFFC0
3FFFC0
3C07C0
7C07C0
7C0780
7C0F80
7C0F80
780F80
F80F80
F81F00
ENDCHAR
STARTCHAR hcircumflex
ENCODING 293
SWIDTH 675 0
DWIDTH 17 0
BBX 15 23 2 0
BITMAP
0780
0FC0
38E0
0000
0F00
1F00
1F00
1F00
1F00
1E00
3E1C
3E7E
3EFE
3CFE
3DBE
7F3E
7E3C
7C7C
7C7C
787C
F87C
F8F8
F8F8
ENDCHAR
STARTCHAR Hbar
ENCODING 294
SWIDTH 813 0
DWIDTH 20 0
BBX 20 18 2 0
BITMAP
0F81F0
1F01F0
1F01E0
FFFFF0
FFFFF0
FFFFF0
3E03E0
3FFFC0
3FFFC0
3FFFC0
3C07C0
7C07C0
7C0780
7C0F80
7C0F80
780F80
F80F80
F81F00
ENDCHAR
STARTCHAR hbar
ENCODING 295
SWIDTH 675 0
DWIDTH 17 0
BBX 15 19 2 0
BITMAP
0F00
1F00
1F00
FF00
FF00
FF00
3E1C
3E7E
3EFE
3CFE
3DBE
7F3E
7E3C
7C7C
7C7C
787C
F87C
F8F8
F8F8
ENDCHAR
STARTCHAR Itilde
ENCODING 296
SWIDTH 361 0
DWIDTH 9 0
BBX 11 22 2 0
BITMAP
1EE0
3FC0
7780
0000
1F00
1F00
1F00
1E00
1E00
3E00
3E00
3E00
3C00
3C00
7C00
7C00
7C00
7800
7800
F800
F800
F800
ENDCHAR
STARTCHAR itilde
ENCODING 297
SWIDTH 343 0
DWIDTH 9 0
BBX 10 17 2 0
BITMAP
3DC0
7F80
EF00
0000
1F00
1F00
3E00
3E00
3E00
3E00
7E00
7C00
7C00
7C00
7C00
F800
F800
ENDCHAR
STARTCHAR Imacron
ENCODING 298
SWIDTH 361 0
DWIDTH 9 0
BBX 9 22 2 0
BITMAP
FF80
FF80
FF80
0000
1F00
1F00
1F00
1E00
1E00
3E00
3E00
3E00
3C00
3C00
7C00
7C00
7C00
7800
7800
F800
F800
F800
ENDCHAR
STARTCHAR imacron
ENCODING 299
SWIDTH 343 0
DWIDTH 9 0
BBX 9 17 2 0
BITMAP
FF80
FF80
FF80
0000
1F00
1F00
3E00
3E00
3E00
3E00
7E00
7C00
7C00
7C00
7C00
F800
F800
ENDCHAR
STARTCHAR Ibreve
ENCODING 300
SWIDTH 361 0
DWIDTH 9 0
BBX 10 22 2 0
BITMAP
71C0
7F80
3E00
0000
1F00
1F00
1F00
1E00
1E00
3E00
3E00
3E00
3C00
3C00
7C00
7C00
7C00
7800
7800
F800
F800
F800
ENDCHAR
STARTCHAR ibreve
ENCODING 301
SWIDTH 343 0
DWIDTH 9 0
BBX 10 17 2 0
BITMAP
71C0
7F80
3E00
0000
1F00
1F00
3E00
3E00
3E00
3E00
7E00
7C00
7C00
7C00
7C00
F800
F800
ENDCHAR
STARTCHAR Iogonek
ENCODING 302
SWIDTH 361 0
DWIDTH 9 0
BBX 8 22 2 -4
BITMAP
1F
1F
1F
1E
1E
3E
3E
3E
3C
3C
7C
7C
7C
78
78
F8
F8
F8
00
38
70
7C
ENDCHAR
STARTCHAR iogonek
ENCODING 303
SWIDTH 343 0
DWIDTH 9 0
BBX 9 23 2 -4
BITMAP
0F80
0F80
1F00
1F00
0000
0000
1F00
3E00
3E00
3E00
3E00
3E00
7C00
7C00
7C00
7C00
7800
F800
F800
0000
3800
7000
7C00
ENDCHAR
STARTCHAR Idotaccent
ENCODING 304
SWIDTH 361 0
DWIDTH 9 0
BBX 8 22 2 0
BITMAP
0E
1E
1C
00
1F
1F
1F
1E
1E
3E
3E
3E
3C
3C
7C
7C
7C
78
78
F8
F8
F8
ENDCHAR
STARTCHAR dotlessi
ENCODING 305
SWIDTH 343 0
DWIDTH 9 0
BBX 8 13 2 0
BITMAP
1F
1F
3E
3E
3E
3E
7E
7C
7C
7C
7C
F8
F8
ENDCHAR
STARTCHAR IJ
ENCODING 306
SWIDTH 845 0
DWIDTH 22 0
BBX 21 22 2 -4
BITMAP
1F00F8
1F00F8
1F00F8
1E00F0
1E01F0
3E01F0
3E01F0
3E01F0
3C01E0
3C03E0
7C03E0
7C03E0
7C03E0
7803C0
7807C0
F807C0
F807C0
F807C0
008F80
01FF80
01FF00
01FC00
ENDCHAR
STARTCHAR ij
ENCODING 307
SWIDTH 733 0
DWIDTH 19 0
BBX 20 24 2 -5
BITMAP
0F81F0
0F81F0
1F01E0
1F03E0
000000
000000
1F03E0
3E03C0
3E07C0
3E07C0
3E07C0
3E07C0
7C0780
7C0F80
7C0F80
7C0F80
780F80
F81F00
F81F00
001F00
063E00
07FC00
07F800
03E000
ENDCHAR
STARTCHAR Jcircumflex
ENCODING 308
SWIDTH 502 0
DWIDTH 13 0
BBX 14 26 0 -4
BITMAP
00F0
01F8
071C
0000
007C
007C
007C
0078
00F8
00F8
00F8
00F8
00F0
01F0
01F0
01F0
01F0
01E0
03E0
03E0
03E0
03E0
47C0
FFC0
FF80
FE00
ENDCHAR
STARTCHAR jcircumflex
ENCODING 309
SWIDTH 407 0
DWIDTH 10 0
BBX 15 22 -2 -5
BITMAP
00F0
01F8
071C
0000
007C
0078
00F8
00F8
00F8
00F8
00F0
01F0
01F0
01F0
01F0
03E0
03E0
03E0
C7C0
FF80
FF00
7C00
ENDCHAR
STARTCHAR Kcommaaccent
ENCODING 310
SWIDTH 753 0
DWIDTH 19 0
BBX 17 28 2 -10
BITMAP
1F0780
1F0F00
1F1E00
1F1C00
1E3800
3E7800
3EF000
3FE000
3FE000
3FF000
7DF000
7CF800
7CF800
7C7C00
787E00
F83E00
F83F00
F81F00
000000
03E000
03E000
03E000
03C000
03C000
01C000
01C000
078000
070000
ENDCHAR
STARTCHAR kcommaaccent
ENCODING 311
SWIDTH 666 0
DWIDTH 17 0
BBX 16 29 2 -10
BITMAP
0F80
0F00
1F00
1F00
1F00
1F00
1E0F
3E1E
3E3C
3E78
3EF0
3DE0
7FE0
7DF0
7DF0
7CF8
78F8
F87C
F87C
0000
07C0
07C0
07C0
0780
0780
0380
0380
0F00
0E00
ENDCHAR
STARTCHAR kgreenlandic
ENCODING 312
SWIDTH 666 0
DWIDTH 17 0
BBX 16 13 2 0
BITMAP
1E0F
3E1E
3E3C
3E78
3EF0
3DE0
7FE0
7DF0
7DF0
7CF8
78F8
F87C
F87C
ENDCHAR
STARTCHAR Lacute
ENCODING 313
SWIDTH 623 0
DWIDTH 16 0
BBX 14 22 2 0
BITMAP
01E0
0380
0E00
0000
0F80
1F00
1F00
1F00
1F00
1F00
3E00
3E00
3E00
3E00
3C00
7C00
7C00
7C00
7C00
7FFC
FFFC
FFFC
ENDCHAR
STARTCHAR lacute
ENCODING 314
SWIDTH 343 0
DWIDTH 9 0
BBX 10 23 2 0
BITMAP
03C0
0700
1C00
0000
0F80
0F80
1F00
1F00
1F00
1F00
1F00
3E00
3E00
3E00
3E00
3E00
7C00
7C00
7C00
7C00
7C00
F800
F800
ENDCHAR
STARTCHAR Lcommaaccent
ENCODING 315
SWIDTH 623 0
DWIDTH 16 0
BBX 14 28 2 -10
BITMAP
0F80
1F00
1F00
1F00
1F00
1F00
3E00
3E00
3E00
3E00
3C00
7C00
7C00
7C00
7C00
7FFC
FFFC
FFFC
0000
0F80
0F80
0F80
0F00
0F00
0700
0700
1E00
1C00
ENDCHAR
STARTCHAR lcommaaccent
ENCODING 316
SWIDTH 343 0
DWIDTH 9 0
BBX 9 29 2 -10
BITMAP
0F80
0F80
1F00
1F00
1F00
1F00
1F00
3E00
3E00
3E00
3E00
3E00
7C00
7C00
7C00
7C00
7C00
F800
F800
0000
7C00
7C00
7C00
7800
7800
3800
3800
F000
E000
ENDCHAR
STARTCHAR Lcaron
ENCODING 317
SWIDTH 857 0
DWIDTH 22 0
BBX 22 19 2 0
BITMAP
00007C
0F807C
1F007C
1F0078
1F0078
1F0038
1F0038
3E00F0
3E00E0
3E0000
3E0000
3C0000
7C0000
7C0000
7C0000
7C0000
7FFC00
FFFC00
FFFC00
ENDCHAR
STARTCHAR lcaron
ENCODING 318
SWIDTH 591 0
DWIDTH 16 0
BBX 16 19 2 0
BITMAP
0F9F
0F9F
1F1F
1F1E
1F1E
1F0E
1F0E
3E3C
3E38
3E00
3E00
3E00
7C00
7C00
7C00
7C00
7C00
F800
F800
ENDCHAR
STARTCHAR Ldot
ENCODING 319
SWIDTH 935 0
DWIDTH 32 0
BBX 25 18 2 0
BITMAP
0F800000
1F000000
1F000000
1F000000
1F000000
1F000000
3E000000
3E000000
3E000000
3E000380
3C000780
7C000700
7C000000
7C000000
7C000000
7FFC0000
FFFC0000
FFFC0000
ENDCHAR
STARTCHAR ldot
ENCODING 320
SWIDTH 669 0
DWIDTH 26 0
BBX 19 19 2 0
BITMAP
0F8000
0F8000
1F0000
1F0000
1F0000
1F0000
1F0000
3E0000
3E0000
3E0000
3E00E0
3E01E0
7C01C0
7C0000
7C0000
7C0000
7C0000
F80000
F80000
ENDCHAR
STARTCHAR Lslash
ENCODING 321
SWIDTH 623 0
DWIDTH 16 0
BBX 15 18 1 0
BITMAP
07C0
07C0
0780
0F80
0F80
0FA0
0FE0
0FE0
1FC0
7F00
7F00
FF00
DE00
3E00
3E00
3FFE
3FFE
7FFE
ENDCHAR
STARTCHAR lslash
ENCODING 322
SWIDTH 343 0
DWIDTH 9 0
BBX 11 19 1 0
BITMAP
07C0
0780
0F80
0F80
0F80
0FE0
0FE0
0FC0
1F80
3F00
7F00
FE00
DE00
BE00
3E00
3E00
3C00
3C00
7C00
ENDCHAR
STARTCHAR Nacute
ENCODING 323
SWIDTH 789 0
DWIDTH 20 0
BBX 19 22 2 0
BITMAP
001E00
003800
00E000
000000
1F01E0
1F01E0
1F81E0
1F81C0
1FC3C0
3FC3C0
3FE3C0
3FE3C0
3DF380
39F780
78FF80
78FF80
787F80
787F00
703F00
F03F00
F01F00
F01F00
ENDCHAR
STARTCHAR nacute
ENCODING 324
SWIDTH 675 0
DWIDTH 17 0
BBX 15 17 2 0
BITMAP
0078
00E0
0380
0000
1E1C
3E7E
3EFE
3DFE
3DBE
3F3E
7E3C
7C7C
7C7C
787C
787C
F8F8
F8F8
ENDCHAR
STARTCHAR Ncommaaccent
ENCODING 325
SWIDTH 789 0
DWIDTH 20 0
BBX 19 28 2 -10
BITMAP
1F01E0
1F01E0
1F81E0
1F81C0
1FC3C0
3FC3C0
3FE3C0
3FE3C0
3DF380
39F780
78FF80
78FF80
787F80
787F00
703F00
F03F00
F01F00
F01F00
000000
01F000
01F000
01F000
01E000
01E000
00E000
00E000
03C000
038000
ENDCHAR
STARTCHAR ncommaaccent
ENCODING 326
SWIDTH 675 0
DWIDTH 17 0
BBX 15 23 2 -10
BITMAP
1E1C
3E7E
3EFE
3DFE
3DBE
3F3E
7E3C
7C7C
7C7C
787C
787C
F8F8
F8F8
0000
07C0
07C0
07C0
0780
0780
0380
0380
0F00
0E00
ENDCHAR
STARTCHAR Ncaron
ENCODING 327
SWIDTH 789 0
DWIDTH 20 0
BBX 19 22 2 0
BITMAP
038E00
01F800
00F000
000000
1F01E0
1F01E0
1F81E0
1F81C0
1FC3C0
3FC3C0
3FE3C0
3FE3C0
3DF380
39F780
78FF80
78FF80
787F80
787F00
703F00
F03F00
F01F00
F01F00
ENDCHAR
STARTCHAR ncaron
ENCODING 328
SWIDTH 675 0
DWIDTH 17 0
BBX 15 17 2 0
BITMAP
0E38
07E0
03C0
0000
1E1C
3E7E
3EFE
3DFE
3DBE
3F3E
7E3C
7C7C
7C7C
787C
787C
F8F8
F8F8
ENDCHAR
STARTCHAR napostrophe
ENCODING 329
SWIDTH 927 0
DWIDTH 24 0
BBX 21 19 3 0
BITMAP
7C0000
7C0000
7C0000
780000
780000
380000
387870
F0F9F8
E0FBF8
00F7F8
00F6F8
00FCF8
01F8F0
01F1F0
01F1F0
01E1F0
01E1F0
03E3E0
03E3E0
ENDCHAR
STARTCHAR Eng
ENCODING 330
SWIDTH 789 0
DWIDTH 20 0
BBX 19 23 2 -5
BITMAP
1F01E0
1F01E0
1F81E0
1F81C0
1FC3C0
3FC3C0
3FE3C0
3FE3C0
3DF380
39F780
78FF80
78FF80
787F80
787F80
703F80
F03F80
F01F00
F01F00
001F00
063E00
07FC00
07F800
03E000
ENDCHAR
STARTCHAR eng
ENCODING 331
SWIDTH 675 0
DWIDTH 17 0
BBX 15 18 2 -5
BITMAP
1E1C
3E7E
3EFE
3DFE
3DBE
3F3E
7E3C
7C7C
7C7C
787C
787C
F8F8
F8F8
00F8
31F0
3FE0
3FC0
1F00
ENDCHAR
STARTCHAR Omacron
ENCODING 332
SWIDTH 855 0
DWIDTH 21 0
BBX 20 22 2 0
BITMAP
01FF00
01FF00
01FF00
000000
007F00
03FFC0
07FFE0
0F87E0
1F03F0
3E01F0
7C01F0
7C01F0
F801F0
F801F0
F803E0
F803E0
F807C0
FC0F80
7E1F00
7FFE00
3FFC00
0FE000
ENDCHAR
STARTCHAR omacron
ENCODING 333
SWIDTH 663 0
DWIDTH 17 0
BBX 15 17 2 0
BITMAP
0FF8
0FF8
0FF8
0000
01F8
0FFC
1FFE
3E3E
7C3E
783E
F83E
F83E
F87C
FCF8
FFF0
7FE0
1F80
ENDCHAR
STARTCHAR Obreve
ENCODING 334
SWIDTH 855 0
DWIDTH 21 0
BBX 20 22 2 0
BITMAP
01C700
01FE00
00F800
000000
007F00
03FFC0
07FFE0
0F87E0
1F03F0
3E01F0
7C01F0
7C01F0
F801F0
F801F0
F803E0
F803E0
F807C0
FC0F80
7E1F00
7FFE00
3FFC00
0FE000
ENDCHAR
STARTCHAR obreve
ENCODING 335
SWIDTH 663 0
DWIDTH 17 0
BBX 15 17 2 0
BITMAP
071C
07F8
03E0
0000
01F8
0FFC
1FFE
3E3E
7C3E
783E
F83E
F83E
F87C
FCF8
FFF0
7FE0
1F80
ENDCHAR
STARTCHAR Ohungarumlaut
ENCODING 336
SWIDTH 855 0
DWIDTH 21 0
BBX 20 22 2 0
BITMAP
003B80
006600
01DC00
000000
007F00
03FFC0
07FFE0
0F87E0
1F03F0
3E01F0
7C01F0
7C01F0
F801F0
F801F0
F803E0
F803E0
F807C0
FC0F80
7E1F00
7FFE00
3FFC00
0FE000
ENDCHAR
STARTCHAR ohungarumlaut
ENCODING 337
SWIDTH 663 0
DWIDTH 17 0
BBX 15 17 2 0
BITMAP
00EE
0198
0770
0000
01F8
0FFC
1FFE
3E3E
7C3E
783E
F83E
F83E
F87C
FCF8
FFF0
7FE0
1F80
ENDCHAR
STARTCHAR OE
ENCODING 338
SWIDTH 1103 0
DWIDTH 28 0
BBX 27 18 2 0
BITMAP
00FFFFE0
03FFFFE0
07FFFFC0
0F87E000
1F03E000
3E03C000
7C07C000
7C07FF00
F807FF00
F807FF00
F8078000
F80F8000
F80F8000
FC0F8000
7E1F8000
7FFFFF80
3FFFFF00
0FFFFF00
ENDCHAR
STARTCHAR oe
ENCODING 339
SWIDTH 1004 0
DWIDTH 25 0
BBX 23 13 2 0
BITMAP
03F078
0FFDFC
1FFFFE
3E3F3E
7C3E3C
783FFC
F83FF0
F83FC0
F87C02
FCFE0E
FFFFFE
7FDFFC
1F07E0
ENDCHAR
STARTCHAR Racute
ENCODING 340
SWIDTH 708 0
DWIDTH 18 0
BBX 16 22 2 0
BITMAP
003C
0070
01C0
0000
1FFC
1FFF
1FFF
1E1F
1E1F
3E1F
3E3E
3C7C
3FF8
3FF0
7FF0
7CF0
7CF8
78F8
7878
F87C
F87C
F83E
ENDCHAR
STARTCHAR racute
ENCODING 341
SWIDTH 542 0
DWIDTH 14 0
BBX 14 17 2 0
BITMAP
00F0
01C0
0700
0000
1F1C
3E38
3E78
3EF8
3DC0
3F00
7E00
7E00
7C00
7C00
7800
F800
F800
ENDCHAR
STARTCHAR Rcommaaccent
ENCODING 342
SWIDTH 708 0
DWIDTH 18 0
BBX 16 28 2 -10
BITMAP
1FFC
1FFF
1FFF
1E1F
1E1F
3E1F
3E3E
3C7C
3FF8
3FF0
7FF0
7CF0
7CF8
78F8
7878
F87C
F87C
F83E
0000
07C0
07C0
07C0
0780
0780
0380
0380
0F00
0E00
ENDCHAR
STARTCHAR rcommaaccent
ENCODING 343
SWIDTH 542 0
DWIDTH 14 0
BBX 14 23 2 -10
BITMAP
1F1C
3E38
3E78
3EF8
3DC0
3F00
7E00
7E00
7C00
7C00
7800
F800
F800
0000
3E00
3E00
3E00
3C00
3C00
1C00
1C00
7800
7000
ENDCHAR
STARTCHAR Rcaron
ENCODING 344
SWIDTH 708 0
DWIDTH 18 0
BBX 16 22 2 0
BITMAP
071C
03F0
01E0
0000
1FFC
1FFF
1FFF
1E1F
1E1F
3E1F
3E3E
3C7C
3FF8
3FF0
7FF0
7CF0
7CF8
78F8
7878
F87C
F87C
F83E
ENDCHAR
STARTCHAR rcaron
ENCODING 345
SWIDTH 542 0
DWIDTH 14 0
BBX 14 17 2 0
BITMAP
1C70
0FC0
0780
0000
1F1C
3E38
3E78
3EF8
3DC0
3F00
7E00
7E00
7C00
7C00
7800
F800
F800
ENDCHAR
STARTCHAR Sacute
ENCODING 346
SWIDTH 639 0
DWIDTH 16 0
BBX 15 22 2 0
BITMAP
0078
00E0
0380
0000
01FC
07FE
1FFE
1F04
3E00
3E00
1F80
1FC0
0FE0
07F8
01F8
00FC
00FC
00FC
40F8
FFF0
FFE0
FF80
ENDCHAR
STARTCHAR sacute
ENCODING 347
SWIDTH 527 0
DWIDTH 13 0
BBX 13 17 1 0
BITMAP
00F0
01C0
0700
0000
07F8
0FF8
1FF0
1F00
1E00
1F80
0FC0
03E0
01F0
41F0
FFE0
FFE0
7F80
ENDCHAR
STARTCHAR Scircumflex
ENCODING 348
SWIDTH 639 0
DWIDTH 16 0
BBX 15 22 2 0
BITMAP
01E0
03F0
0E38
0000
01FC
07FE
1FFE
1F04
3E00
3E00
1F80
1FC0
0FE0
07F8
01F8
00FC
00FC
00FC
40F8
FFF0
FFE0
FF80
ENDCHAR
STARTCHAR scircumflex
ENCODING 349
SWIDTH 527 0
DWIDTH 13 0
BBX 13 17 1 0
BITMAP
03C0
07E0
1C70
0000
07F8
0FF8
1FF0
1F00
1E00
1F80
0FC0
03E0
01F0
41F0
FFE0
FFE0
7F80
ENDCHAR
STARTCHAR Scedilla
ENCODING 350
SWIDTH 639 0
DWIDTH 16 0
BBX 15 23 2 -5
BITMAP
01FC
07FE
1FFE
1F04
3E00
3E00
1F80
1FC0
0FE0
07F8
01F8
00FC
00FC
00FC
40F8
FFF0
FFE0
FF80
0380
0700
0380
0180
0F00
ENDCHAR
STARTCHAR scedilla
ENCODING 351
SWIDTH 527 0
DWIDTH 13 0
BBX 13 18 1 -5
BITMAP
07F8
0FF8
1FF0
1F00
1E00
1F80
0FC0
03E0
01F0
41F0
FFE0
FFE0
7F80
0700
0E00
0700
0300
1E00
ENDCHAR
STARTCHAR Scaron
ENCODING 352
SWIDTH 639 0
DWIDTH 16 0
BBX 15 22 2 0
BITMAP
038E
01F8
00F0
0000
01FC
07FE
1FFE
1F04
3E00
3E00
1F80
1FC0
0FE0
07F8
01F8
00FC
00FC
00FC
40F8
FFF0
FFE0
FF80
ENDCHAR
STARTCHAR scaron
ENCODING 353
SWIDTH 527 0
DWIDTH 13 0
BBX 14 17 1 0
BITMAP
071C
03F0
01E0
0000
07F8
0FF8
1FF0
1F00
1E00
1F80
0FC0
03E0
01F0
41F0
FFE0
FFE0
7F80
ENDCHAR
STARTCHAR Tcommaaccent
ENCODING 354
SWIDTH 747 0
DWIDTH 19 0
BBX 19 23 3 -5
BITMAP
FFFFE0
FFFFE0
FFFFE0
01F000
03E000
03E000
03E000
03E000
03E000
07C000
07C000
07C000
07C000
07C000
0F8000
0F8000
0F8000
0F8000
01C000
038000
01C000
00C000
078000
ENDCHAR
STARTCHAR tcommaaccent
ENCODING 355
SWIDTH 437 0
DWIDTH 11 0
BBX 9 22 3 -5
BITMAP
0600
3E00
3E00
3E00
FF80
FF80
FF80
7C00
7C00
7C00
7C00
7800
F800
F800
FF00
FE00
7E00
1C00
3800
1C00
0C00
7800
ENDCHAR
STARTCHAR Tcaron
ENCODING 356
SWIDTH 747 0
DWIDTH 19 0
BBX 19 22 3 0
BITMAP
071C00
03F000
01E000
000000
FFFFE0
FFFFE0
FFFFE0
01F000
03E000
03E000
03E000
03E000
03E000
07C000
07C000
07C000
07C000
07C000
0F8000
0F8000
0F8000
0F8000
ENDCHAR
STARTCHAR tcaron
ENCODING 357
SWIDTH 680 0
DWIDTH 17 0
BBX 16 19 3 0
BITMAP
001F
001F
061F
3E1E
3E1E
3E0E
FF8E
FFBC
FFB8
7C00
7C00
7C00
7C00
7800
F800
F800
FF00
FE00
7E00
ENDCHAR
STARTCHAR Tbar
ENCODING 358
SWIDTH 747 0
DWIDTH 19 0
BBX 19 18 3 0
BITMAP
FFFFE0
FFFFE0
FFFFE0
01F000
03E000
03E000
03E000
03FC00
03FC00
07FC00
07C000
07C000
07C000
07C000
0F8000
0F8000
0F8000
0F8000
ENDCHAR
STARTCHAR tbar
ENCODING 359
SWIDTH 437 0
DWIDTH 11 0
BBX 9 17 3 0
BITMAP
0600
3E00
3E00
3E00
FF80
FF80
FF80
7C00
7C00
7F80
7F80
7F80
F800
F800
FF00
FE00
7E00
ENDCHAR
STARTCHAR Utilde
ENCODING 360
SWIDTH 759 0
DWIDTH 19 0
BBX 18 22 3 0
BITMAP
01EE00
03FC00
077800
000000
3E03C0
3E07C0
3E0780
3E0780
3C0780
7C0780
7C0F80
7C0F00
780F00
F80F00
F80F00
F81F00
F81E00
F81E00
FC3C00
7FFC00
3FF800
0FE000
ENDCHAR
STARTCHAR utilde
ENCODING 361
SWIDTH 675 0
DWIDTH 17 0
BBX 15 17 3 0
BITMAP
07B8
0FF0
1DE0
0000
3E3E
3C3E
7C3C
7C3C
7C7C
7C7C
78FC
F9F8
FB78
FF78
FEF8
FCF8
70F0
ENDCHAR
STARTCHAR Umacron
ENCODING 362
SWIDTH 759 0
DWIDTH 19 0
BBX 18 22 3 0
BITMAP
07FC00
07FC00
07FC00
000000
3E03C0
3E07C0
3E0780
3E0780
3C0780
7C0780
7C0F80
7C0F00
780F00
F80F00
F80F00
F81F00
F81E00
F81E00
FC3C00
7FFC00
3FF800
0FE000
ENDCHAR
STARTCHAR umacron
ENCODING 363
SWIDTH 675 0
DWIDTH 17 0
BBX 15 17 3 0
BITMAP
1FF0
1FF0
1FF0
0000
3E3E
3C3E
7C3C
7C3C
7C7C
7C7C
78FC
F9F8
FB78
FF78
FEF8
FCF8
70F0
ENDCHAR
STARTCHAR Ubreve
ENCODING 364
SWIDTH 759 0
DWIDTH 19 0
BBX 18 22 3 0
BITMAP
038E00
03FC00
01F000
000000
3E03C0
3E07C0
3E0780
3E0780
3C0780
7C0780
7C0F80
7C0F00
780F00
F80F00
F80F00
F81F00
F81E00
F81E00
FC3C00
7FFC00
3FF800
0FE000
ENDCHAR
STARTCHAR ubreve
ENCODING 365
SWIDTH 675 0
DWIDTH 17 0
BBX 15 17 3 0
BITMAP
0E38
0FF0
07C0
0000
3E3E
3C3E
7C3C
7C3C
7C7C
7C7C
78FC
F9F8
FB78
FF78
FEF8
FCF8
70F0
ENDCHAR
STARTCHAR Uring
ENCODING 366
SWIDTH 759 0
DWIDTH 19 0
BBX 18 23 3 0
BITMAP
00C000
012000
012000
00C000
000000
3E03C0
3E07C0
3E0780
3E0780
3C0780
7C0780
7C0F80
7C0F00
780F00
F80F00
F80F00
F81F00
F81E00
F81E00
FC3C00
7FFC00
3FF800
0FE000
ENDCHAR
STARTCHAR uring
ENCODING 367
SWIDTH 675 0
DWIDTH 17 0
BBX 15 18 3 0
BITMAP
0180
0240
0240
0180
0000
3E3E
3C3E
7C3C
7C3C
7C7C
7C7C
78FC
F9F8
FB78
FF78
FEF8
FCF8
70F0
ENDCHAR
STARTCHAR Uhungarumlaut
ENCODING 368
SWIDTH 759 0
DWIDTH 19 0
BBX 18 22 3 0
BITMAP
00EE00
019800
077000
000000
3E03C0
3E07C0
3E0780
3E0780
3C0780
7C0780
7C0F80
7C0F00
780F00
F80F00
F80F00
F81F00
F81E00
F81E00
FC3C00
7FFC00
3FF800
0FE000
ENDCHAR
STARTCHAR uhungarumlaut
ENCODING 369
SWIDTH 675 0
DWIDTH 17 0
BBX 15 17 3 0
BITMAP
01DC
0330
0EE0
0000
3E3E
3C3E
7C3C
7C3C
7C7C
7C7C
78FC
F9F8
FB78
FF78
FEF8
FCF8
70F0
ENDCHAR
STARTCHAR Uogonek
ENCODING 370
SWIDTH 759 0
DWIDTH 19 0
BBX 18 22 3 -4
BITMAP
3E03C0
3E07C0
3E0780
3E0780
3C0780
7C0780
7C0F80
7C0F00
780F00
F80F00
F80F00
F81F00
F81E00
F81E00
FC3C00
7FFC00
3FF800
0FE000
000000
038000
070000
07C000
ENDCHAR
STARTCHAR uogonek
ENCODING 371
SWIDTH 675 0
DWIDTH 17 0
BBX 15 17 3 -4
BITMAP
3E3E
3C3E
7C3C
7C3C
7C7C
7C7C
78FC
F9F8
FB78
FF78
FEF8
FCF8
70F0
0000
0700
0E00
0F80
ENDCHAR
STARTCHAR Wcircumflex
ENCODING 372
SWIDTH 991 0
DWIDTH 25 0
BBX 23 22 4 0
BITMAP
007800
00FC00
038E00
000000
F03C1E
F07C1C
F07C3C
F87C38
F8FC78
F8FC70
F9FC70
F9FCE0
FBBCE0
FBBDE0
FBBDC0
7F3FC0
7F3F80
7E3F80
7E3F00
7C3F00
7C3E00
7C3E00
ENDCHAR
STARTCHAR wcircumflex
ENCODING 373
SWIDTH 878 0
DWIDTH 22 0
BBX 21 17 3 0
BITMAP
007800
00FC00
038E00
000000
F07878
F0F870
F0F8F0
F1F8E0
F3F9E0
F3F9C0
F7FBC0
FF7B80
FE7F80
FE7F00
FC3E00
FC3E00
783C00
ENDCHAR
STARTCHAR Ycircumflex
ENCODING 374
SWIDTH 681 0
DWIDTH 17 0
BBX 16 22 4 0
BITMAP
03C0
07E0
1C70
0000
F80F
781E
7C3C
7C38
3C78
3EF0
3FE0
1FC0
1F80
1F80
1F00
1F00
1F00
1F00
1F00
3E00
3E00
3E00
ENDCHAR
STARTCHAR ycircumflex
ENCODING 375
SWIDTH 633 0
DWIDTH 16 0
BBX 17 22 1 -5
BITMAP
01E000
03F000
0E3800
000000
3E0780
3E0F00
3E0E00
1E1E00
1F3C00
1F3800
1F7800
1FF000
0FE000
0FE000
0FC000
0F8000
0F8000
0F0000
1E0000
3E0000
7C0000
F80000
ENDCHAR
STARTCHAR Ydieresis
ENCODING 376
SWIDTH 681 0
DWIDTH 17 0
BBX 16 22 4 0
BITMAP
0738
0E38
0E70
0000
F80F
781E
7C3C
7C38
3C78
3EF0
3FE0
1FC0
1F80
1F80
1F00
1F00
1F00
1F00
1F00
3E00
3E00
3E00
ENDCHAR
STARTCHAR Zacute
ENCODING 377
SWIDTH 687 0
DWIDTH 17 0
BBX 17 22 2 0
BITMAP
001E00
003800
00E000
000000
0FFF80
0FFF80
0FFF80
003F00
007E00
00FC00
00FC00
01F800
03F000
07E000
0FC000
1F8000
1F8000
3F0000
7E0000
7FFC00
FFFC00
FFFC00
ENDCHAR
STARTCHAR zacute
ENCODING 378
SWIDTH 630 0
DWIDTH 16 0
BBX 15 17 1 0
BITMAP
0078
00E0
0380
0000
1FFE
1FFE
3FFC
00FC
01F8
03E0
07C0
0F80
3F00
7E00
7FFC
FFF8
FFF8
ENDCHAR
STARTCHAR Zdotaccent
ENCODING 379
SWIDTH 687 0
DWIDTH 17 0
BBX 17 22 2 0
BITMAP
007000
00F000
00E000
000000
0FFF80
0FFF80
0FFF80
003F00
007E00
00FC00
00FC00
01F800
03F000
07E000
0FC000
1F8000
1F8000
3F0000
7E0000
7FFC00
FFFC00
FFFC00
ENDCHAR
STARTCHAR zdotaccent
ENCODING 380
SWIDTH 630 0
DWIDTH 16 0
BBX 15 17 1 0
BITMAP
00E0
01E0
01C0
0000
1FFE
1FFE
3FFC
00FC
01F8
03E0
07C0
0F80
3F00
7E00
7FFC
FFF8
FFF8
ENDCHAR
STARTCHAR Zcaron
ENCODING 381
SWIDTH 687 0
DWIDTH 17 0
BBX 17 22 2 0
BITMAP
01C700
00FC00
007800
000000
0FFF80
0FFF80
0FFF80
003F00
007E00
00FC00
00FC00
01F800
03F000
07E000
0FC000
1F8000
1F8000
3F0000
7E0000
7FFC00
FFFC00
FFFC00
ENDCHAR
STARTCHAR zcaron
ENCODING 382
SWIDTH 630 0
DWIDTH 16 0
BBX 15 17 1 0
BITMAP
038E
01F8
00F0
0000
1FFE
1FFE
3FFC
00FC
01F8
03E0
07C0
0F80
3F00
7E00
7FFC
FFF8
FFF8
ENDCHAR
STARTCHAR uni0186
ENCODING 390
SWIDTH 737 0
DWIDTH 18 0
BBX 18 18 2 0
BITMAP
07FC00
1FFF00
1FFF80
181F80
000FC0
0007C0
0007C0
0007C0
0007C0
000780
000F80
000F80
001F00
003E00
40FC00
FFF800
FFF000
7F8000
ENDCHAR
STARTCHAR uni0189
ENCODING 393
SWIDTH 822 0
DWIDTH 21 0
BBX 20 18 1 0
BITMAP
0FFF80
0FFFC0
0FFFE0
0F07F0
1F03F0
1F01F0
1F01F0
FFE1F0
FFE1F0
FFE1F0
3E03E0
3E03E0
3E07C0
3C0FC0
7C3F80
7FFF00
7FFE00
7FF000
ENDCHAR
STARTCHAR uni018E
ENCODING 398
SWIDTH 642 0
DWIDTH 16 0
BBX 16 18 2 0
BITMAP
1FFF
1FFF
3FFE
003E
003E
003E
003E
003C
1FFC
1FFC
1FFC
007C
0078
00F8
00F8
7FF8
FFF8
FFF0
ENDCHAR
STARTCHAR florin
ENCODING 402
SWIDTH 687 0
DWIDTH 17 0
BBX 14 22 5 -4
BITMAP
00FC
03FC
07FC
0F84
0F00
0F00
1F00
1F00
7FC0
7FC0
7F80
3E00
3E00
3E00
3C00
7C00
7C00
7C00
7800
7800
F800
F800
ENDCHAR
STARTCHAR uni0197
ENCODING 407
SWIDTH 361 0
DWIDTH 9 0
BBX 8 18 2 0
BITMAP
1F
1F
1F
1E
1E
3E
3E
FF
FF
FF
7C
7C
7C
78
78
F8
F8
F8
ENDCHAR
STARTCHAR uni019A
ENCODING 410
SWIDTH 343 0
DWIDTH 9 0
BBX 9 19 2 0
BITMAP
0F80
0F80
1F00
1F00
1F00
1F00
1F00
3E00
7F80
7F80
7F80
3E00
7C00
7C00
7C00
7C00
7C00
F800
F800
ENDCHAR
STARTCHAR uni019D
ENCODING 413
SWIDTH 789 0
DWIDTH 20 0
BBX 25 23 -4 -5
BITMAP
007C0780
007C0780
007E0780
007E0700
007F0F00
00FF0F00
00FF8F00
00FF8F00
00F7CE00
00E7DE00
01E3FE00
01E3FE00
01F1FE00
01F0FC00
01F0FC00
01F0FC00
03E07C00
03E07C00
03E00000
C7C00000
FF800000
FF000000
7C000000
ENDCHAR
STARTCHAR uni019F
ENCODING 415
SWIDTH 855 0
DWIDTH 21 0
BBX 20 18 2 0
BITMAP
007F00
03FFC0
07FFE0
0F87E0
1F03F0
3E01F0
7C01F0
FFFFF0
FFFFF0
FFFFF0
F803E0
F803E0
F807C0
FC0F80
7E1F00
7FFE00
3FFC00
0FE000
ENDCHAR
STARTCHAR Ohorn
ENCODING 416
SWIDTH 855 0
DWIDTH 21 0
BBX 24 18 2 0
BITMAP
007F1F
03FFDF
07FFFF
0F87FE
1F03FE
3E01FE
7C01FE
7C01FC
F801F8
F801F0
F803E0
F803E0
F807C0
FC0F80
7E1F00
7FFE00
3FFC00
0FE000
ENDCHAR
STARTCHAR ohorn
ENCODING 417
SWIDTH 663 0
DWIDTH 17 0
BBX 20 13 2 0
BITMAP
01F9F0
0FFDF0
1FFFF0
3E3FE0
7C3FE0
783EE0
F83EE0
F83FC0
F87F80
FCF800
FFF000
7FE000
1F8000
ENDCHAR
STARTCHAR Uhorn
ENCODING 431
SWIDTH 759 0
DWIDTH 19 0
BBX 22 18 3 0
BITMAP
3E03FC
3E07FC
3E07FC
3E07F8
3C07F8
7C07B8
7C0FB8
7C0FF0
780FE0
F80F00
F80F00
F81F00
F81E00
F81E00
FC3C00
7FFC00
3FF800
0FE000
ENDCHAR
STARTCHAR uhorn
ENCODING 432
SWIDTH 675 0
DWIDTH 17 0
BBX 20 13 3 0
BITMAP
3E3FF0
3C3FF0
7C3DF0
7C3DE0
7C7DE0
7C7CE0
78FCE0
F9FBC0
FB7B80
FF7800
FEF800
FCF800
70F000
ENDCHAR
STARTCHAR uni01B5
ENCODING 437
SWIDTH 687 0
DWIDTH 17 0
BBX 17 18 2 0
BITMAP
0FFF80
0FFF80
0FFF80
003F00
007E00
00FC00
00FC00
07F800
07F800
07F800
0FC000
1F8000
1F8000
3F0000
7E0000
7FFC00
FFFC00
FFFC00
ENDCHAR
STARTCHAR uni01B6
ENCODING 438
SWIDTH 630 0
DWIDTH 16 0
BBX 15 13 1 0
BITMAP
1FFE
1FFE
3FFC
00FC
01F8
0FF0
0FF0
0FF0
3F00
7E00
7FFC
FFF8
FFF8
ENDCHAR
STARTCHAR uni01BB
ENCODING 443
SWIDTH 687 0
DWIDTH 17 0
BBX 16 18 2 0
BITMAP
07F8
0FFE
1FFF
183F
001F
001F
003E
FFFF
FFFF
FFFF
07E0
0F80
1F00
3E00
7C00
7FFC
FFFC
FFF8
ENDCHAR
STARTCHAR uni01BC
ENCODING 444
SWIDTH 687 0
DWIDTH 17 0
BBX 16 18 3 0
BITMAP
0FFF
0FFF
1FFE
1C00
1C00
1800
1F80
3FE0
3FF8
03F8
00FC
007C
007C
00FC
41F8
FFF8
FFE0
FF80
ENDCHAR
STARTCHAR uni01C0
ENCODING 448
SWIDTH 259 0
DWIDTH 6 0
BBX 7 23 1 -4
BITMAP
0E
0E
0E
0C
1C
1C
1C
1C
18
18
38
38
38
30
30
70
70
70
70
60
E0
E0
E0
ENDCHAR
STARTCHAR uni01C2
ENCODING 450
SWIDTH 687 0
DWIDTH 17 0
BBX 16 23 2 -4
BITMAP
0070
0070
0070
0060
00E0
00E0
00E0
00E0
3FFF
7FFF
7FFE
01C0
01C0
FFFE
FFFE
FFFC
0380
0380
0380
0300
0700
0700
0700
ENDCHAR
STARTCHAR uni01C3
ENCODING 451
SWIDTH 343 0
DWIDTH 9 0
BBX 8 18 2 0
BITMAP
1F
1F
1F
1E
1E
1E
3C
3C
3C
3C
38
38
38
00
00
78
F8
F8
ENDCHAR
STARTCHAR uni01CD
ENCODING 461
SWIDTH 771 0
DWIDTH 19 0
BBX 18 22 1 0
BITMAP
01C700
00FC00
007800
000000
003E00
007E00
007E00
00FE00
01FE00
01DF00
03DF00
039F00
078F00
070F00
0F0F80
0FFF80
1FFF80
1FFF80
380780
3807C0
7007C0
F007C0
ENDCHAR
STARTCHAR uni01CE
ENCODING 462
SWIDTH 681 0
DWIDTH 17 0
BBX 16 17 2 0
BITMAP
071C
03F0
01E0
0000
01FF
07FF
0FFE
1F1E
3E3E
7C3E
787E
F8FC
F9BC
FB7C
FF7C
FE7C
78F8
ENDCHAR
STARTCHAR uni01CF
ENCODING 463
SWIDTH 361 0
DWIDTH 9 0
BBX 10 22 2 0
BITMAP
71C0
3F00
1E00
0000
1F00
1F00
1F00
1E00
1E00
3E00
3E00
3E00
3C00
3C00
7C00
7C00
7C00
7800
7800
F800
F800
F800
ENDCHAR
STARTCHAR uni01D0
ENCODING 464
SWIDTH 343 0
DWIDTH 9 0
BBX 10 17 2 0
BITMAP
71C0
3F00
1E00
0000
1F00
1F00
3E00
3E00
3E00
3E00
7E00
7C00
7C00
7C00
7C00
F800
F800
ENDCHAR
STARTCHAR uni01D1
ENCODING 465
SWIDTH 855 0
DWIDTH 21 0
BBX 20 22 2 0
BITMAP
01C700
00FC00
007800
000000
007F00
03FFC0
07FFE0
0F87E0
1F03F0
3E01F0
7C01F0
7C01F0
F801F0
F801F0
F803E0
F803E0
F807C0
FC0F80
7E1F00
7FFE00
3FFC00
0FE000
ENDCHAR
STARTCHAR uni01D2
ENCODING 466
SWIDTH 663 0
DWIDTH 17 0
BBX 15 17 2 0
BITMAP
0E38
07E0
03C0
0000
01F8
0FFC
1FFE
3E3E
7C3E
783E
F83E
F83E
F87C
FCF8
FFF0
7FE0
1F80
ENDCHAR
STARTCHAR uni01D3
ENCODING 467
SWIDTH 759 0
DWIDTH 19 0
BBX 18 22 3 0
BITMAP
071C00
03F000
01E000
000000
3E03C0
3E07C0
3E0780
3E0780
3C0780
7C0780
7C0F80
7C0F00
780F00
F80F00
F80F00
F81F00
F81E00
F81E00
FC3C00
7FFC00
3FF800
0FE000
ENDCHAR
STARTCHAR uni01D4
ENCODING 468
SWIDTH 675 0
DWIDTH 17 0
BBX 15 17 3 0
BITMAP
0E38
07E0
03C0
0000
3E3E
3C3E
7C3C
7C3C
7C7C
7C7C
78FC
F9F8
FB78
FF78
FEF8
FCF8
70F0
ENDCHAR
STARTCHAR uni01D5
ENCODING 469
SWIDTH 759 0
DWIDTH 19 0
BBX 18 26 3 0
BITMAP
07FC00
07FC00
07FC00
000000
01CE00
038E00
039C00
000000
3E03C0
3E07C0
3E0780
3E0780
3C0780
7C0780
7C0F80
7C0F00
780F00
F80F00
F80F00
F81F00
F81E00
F81E00
FC3C00
7FFC00
3FF800
0FE000
ENDCHAR
STARTCHAR uni01D6
ENCODING 470
SWIDTH 675 0
DWIDTH 17 0
BBX 15 21 3 0
BITMAP
0FF8
0FF8
0FF8
0000
039C
071C
0738
0000
3E3E
3C3E
7C3C
7C3C
7C7C
7C7C
78FC
F9F8
FB78
FF78
FEF8
FCF8
70F0
ENDCHAR
STARTCHAR uni01D7
ENCODING 471
SWIDTH 759 0
DWIDTH 19 0
BBX 18 26 3 0
BITMAP
001E00
003800
00E000
000000
01CE00
038E00
039C00
000000
3E03C0
3E07C0
3E0780
3E0780
3C0780
7C0780
7C0F80
7C0F00
780F00
F80F00
F80F00
F81F00
F81E00
F81E00
FC3C00
7FFC00
3FF800
0FE000
ENDCHAR
STARTCHAR uni01D8
ENCODING 472
SWIDTH 675 0
DWIDTH 17 0
BBX 15 21 3 0
BITMAP
0078
00E0
0380
0000
039C
071C
0738
0000
3E3E
3C3E
7C3C
7C3C
7C7C
7C7C
78FC
F9F8
FB78
FF78
FEF8
FCF8
70F0
ENDCHAR
STARTCHAR uni01D9
ENCODING 473
SWIDTH 759 0
DWIDTH 19 0
BBX 18 26 3 0
BITMAP
038E00
01F800
00F000
000000
01CE00
038E00
039C00
000000
3E03C0
3E07C0
3E0780
3E0780
3C0780
7C0780
7C0F80
7C0F00
780F00
F80F00
F80F00
F81F00
F81E00
F81E00
FC3C00
7FFC00
3FF800
0FE000
ENDCHAR
STARTCHAR uni01DA
ENCODING 474
SWIDTH 675 0
DWIDTH 17 0
BBX 15 21 3 0
BITMAP
0E38
07E0
03C0
0000
039C
071C
0738
0000
3E3E
3C3E
7C3C
7C3C
7C7C
7C7C
78FC
F9F8
FB78
FF78
FEF8
FCF8
70F0
ENDCHAR
STARTCHAR uni01DB
ENCODING 475
SWIDTH 759 0
DWIDTH 19 0
BBX 18 26 3 0
BITMAP
03C000
00E000
007000
000000
01CE00
038E00
039C00
000000
3E03C0
3E07C0
3E0780
3E0780
3C0780
7C0780
7C0F80
7C0F00
780F00
F80F00
F80F00
F81F00
F81E00
F81E00
FC3C00
7FFC00
3FF800
0FE000
ENDCHAR
STARTCHAR uni01DC
ENCODING 476
SWIDTH 675 0
DWIDTH 17 0
BBX 15 21 3 0
BITMAP
0780
01C0
00E0
0000
039C
071C
0738
0000
3E3E
3C3E
7C3C
7C3C
7C7C
7C7C
78FC
F9F8
FB78
FF78
FEF8
FCF8
70F0
ENDCHAR
STARTCHAR uni01DD
ENCODING 477
SWIDTH 612 0
DWIDTH 15 0
BBX 13 13 2 0
BITMAP
0FC0
7FF0
FFF8
E0F8
80F8
07F8
1FF8
7FF0
78F0
F9E0
FFC0
7F80
3E00
ENDCHAR
STARTCHAR uni01DE
ENCODING 478
SWIDTH 771 0
DWIDTH 19 0
BBX 18 26 1 0
BITMAP
01FF00
01FF00
01FF00
000000
0039C0
0071C0
007380
000000
003E00
007E00
007E00
00FE00
01FE00
01DF00
03DF00
039F00
078F00
070F00
0F0F80
0FFF80
1FFF80
1FFF80
380780
3807C0
7007C0
F007C0
ENDCHAR
STARTCHAR uni01DF
ENCODING 479
SWIDTH 681 0
DWIDTH 17 0
BBX 16 21 2 0
BITMAP
07FC
07FC
07FC
0000
01CE
038E
039C
0000
01FF
07FF
0FFE
1F1E
3E3E
7C3E
787E
F8FC
F9BC
FB7C
FF7C
FE7C
78F8
ENDCHAR
STARTCHAR uni01E0
ENCODING 480
SWIDTH 771 0
DWIDTH 19 0
BBX 18 26 1 0
BITMAP
03FE00
03FE00
03FE00
000000
003800
007800
007000
000000
003E00
007E00
007E00
00FE00
01FE00
01DF00
03DF00
039F00
078F00
070F00
0F0F80
0FFF80
1FFF80
1FFF80
380780
3807C0
7007C0
F007C0
ENDCHAR
STARTCHAR uni01E1
ENCODING 481
SWIDTH 681 0
DWIDTH 17 0
BBX 16 21 2 0
BITMAP
07FC
07FC
07FC
0000
0070
00F0
00E0
0000
01FF
07FF
0FFE
1F1E
3E3E
7C3E
787E
F8FC
F9BC
FB7C
FF7C
FE7C
78F8
ENDCHAR
STARTCHAR uni01E2
ENCODING 482
SWIDTH 1004 0
DWIDTH 25 0
BBX 27 22 0 0
BITMAP
000FF800
000FF800
000FF800
00000000
0003FFE0
0007FFE0
000FFFC0
001FE000
003FE000
003FC000
007FC000
00F7FF00
01E7FF00
01C7FF00
03C78000
07FF8000
0FFF8000
1FFF8000
1C0F8000
3C0FFF80
781FFF00
F01FFF00
ENDCHAR
STARTCHAR uni01E3
ENCODING 483
SWIDTH 987 0
DWIDTH 25 0
BBX 23 17 2 0
BITMAP
00FF80
00FF80
00FF80
000000
01FF78
07FFFC
0FFFFE
1E1F3E
3C3E3C
7C3FFC
787FF0
F8BFC0
F9BC02
FF3E0E
FE3FFE
FC1FFC
780FE0
ENDCHAR
STARTCHAR uni01E4
ENCODING 484
SWIDTH 755 0
DWIDTH 19 0
BBX 19 18 2 0
BITMAP
007F80
03FFC0
07FFC0
0FC080
1F0000
3E0000
7C0000
7C0000
780000
F80F00
F80F00
F81F00
F81FE0
FC1FE0
7E1FE0
7FFE00
3FFE00
0FF800
ENDCHAR
STARTCHAR uni01E5
ENCODING 485
SWIDTH 674 0
DWIDTH 17 0
BBX 16 18 1 -5
BITMAP
01FF
07FF
0FFF
1F1E
3E3E
3C3E
7C7E
7CFE
7DBC
7FBC
7F7C
FFFF
FFFF
FFFF
E0F8
FFF0
7FE0
7F80
ENDCHAR
STARTCHAR Gcaron
ENCODING 486
SWIDTH 755 0
DWIDTH 19 0
BBX 18 22 2 0
BITMAP
038E00
01F800
00F000
000000
007F80
03FFC0
07FFC0
0FC080
1F0000
3E0000
7C0000
7C0000
780000
F80F00
F80F00
F81F00
F81F00
FC1E00
7E1E00
7FFE00
3FFE00
0FF800
ENDCHAR
STARTCHAR gcaron
ENCODING 487
SWIDTH 674 0
DWIDTH 17 0
BBX 16 22 1 -5
BITMAP
071C
03F0
01E0
0000
01FF
07FF
0FFF
1F1E
3E3E
3C3E
7C7E
7CFE
7DBC
7FBC
7F7C
7E7C
3C7C
80F8
E0F8
FFF0
7FE0
7F80
ENDCHAR
STARTCHAR uni01E8
ENCODING 488
SWIDTH 753 0
DWIDTH 19 0
BBX 17 22 2 0
BITMAP
071C00
03F000
01E000
000000
1F0780
1F0F00
1F1E00
1F1C00
1E3800
3E7800
3EF000
3FE000
3FE000
3FF000
7DF000
7CF800
7CF800
7C7C00
787E00
F83E00
F83F00
F81F00
ENDCHAR
STARTCHAR uni01E9
ENCODING 489
SWIDTH 666 0
DWIDTH 17 0
BBX 16 23 2 0
BITMAP
38E0
1F80
0F00
0000
0F80
0F00
1F00
1F00
1F00
1F00
1E0F
3E1E
3E3C
3E78
3EF0
3DE0
7FE0
7DF0
7DF0
7CF8
78F8
F87C
F87C
ENDCHAR
STARTCHAR uni01EA
ENCODING 490
SWIDTH 855 0
DWIDTH 21 0
BBX 20 22 2 -4
BITMAP
007F00
03FFC0
07FFE0
0F87E0
1F03F0
3E01F0
7C01F0
7C01F0
F801F0
F801F0
F803E0
F803E0
F807C0
FC0F80
7E1F00
7FFE00
3FFC00
0FE000
000000
01C000
038000
03E000
ENDCHAR
STARTCHAR uni01EB
ENCODING 491
SWIDTH 663 0
DWIDTH 17 0
BBX 15 17 2 -4
BITMAP
01F8
0FFC
1FFE
3E3E
7C3E
783E
F83E
F83E
F87C
FCF8
FFF0
7FE0
1F80
0000
0700
0E00
0F80
ENDCHAR
STARTCHAR uni01EC
ENCODING 492
SWIDTH 855 0
DWIDTH 21 0
BBX 20 26 2 -4
BITMAP
01FF00
01FF00
01FF00
000000
007F00
03FFC0
07FFE0
0F87E0
1F03F0
3E01F0
7C01F0
7C01F0
F801F0
F801F0
F803E0
F803E0
F807C0
FC0F80
7E1F00
7FFE00
3FFC00
0FE000
000000
01C000
038000
03E000
ENDCHAR
STARTCHAR uni01ED
ENCODING 493
SWIDTH 663 0
DWIDTH 17 0
BBX 15 21 2 -4
BITMAP
0FF8
0FF8
0FF8
0000
01F8
0FFC
1FFE
3E3E
7C3E
783E
F83E
F83E
F87C
FCF8
FFF0
7FE0
1F80
0000
0700
0E00
0F80
ENDCHAR
STARTCHAR uni01F0
ENCODING 496
SWIDTH 407 0
DWIDTH 10 0
BBX 15 22 -2 -5
BITMAP
038E
01F8
00F0
0000
007C
0078
00F8
00F8
00F8
00F8
00F0
01F0
01F0
01F0
01F0
03E0
03E0
03E0
C7C0
FF80
FF00
7C00
ENDCHAR
STARTCHAR uni01F4
ENCODING 500
SWIDTH 755 0
DWIDTH 19 0
BBX 18 22 2 0
BITMAP
001E00
003800
00E000
000000
007F80
03FFC0
07FFC0
0FC080
1F0000
3E0000
7C0000
7C0000
780000
F80F00
F80F00
F81F00
F81F00
FC1E00
7E1E00
7FFE00
3FFE00
0FF800
ENDCHAR
STARTCHAR uni01F5
ENCODING 501
SWIDTH 674 0
DWIDTH 17 0
BBX 16 22 1 -5
BITMAP
003C
0070
01C0
0000
01FF
07FF
0FFF
1F1E
3E3E
3C3E
7C7E
7CFE
7DBC
7FBC
7F7C
7E7C
3C7C
80F8
E0F8
FFF0
7FE0
7F80
ENDCHAR
STARTCHAR uni01F8
ENCODING 504
SWIDTH 789 0
DWIDTH 20 0
BBX 19 22 2 0
BITMAP
03C000
00E000
007000
000000
1F01E0
1F01E0
1F81E0
1F81C0
1FC3C0
3FC3C0
3FE3C0
3FE3C0
3DF380
39F780
78FF80
78FF80
787F80
787F00
703F00
F03F00
F01F00
F01F00
ENDCHAR
STARTCHAR uni01F9
ENCODING 505
SWIDTH 675 0
DWIDTH 17 0
BBX 15 17 2 0
BITMAP
0F00
0380
01C0
0000
1E1C
3E7E
3EFE
3DFE
3DBE
3F3E
7E3C
7C7C
7C7C
787C
787C
F8F8
F8F8
ENDCHAR
STARTCHAR Aringacute
ENCODING 506
SWIDTH 771 0
DWIDTH 19 0
BBX 18 27 1 0
BITMAP
000F00
001C00
007000
000000
000C00
001200
001200
000C00
000000
003E00
007E00
007E00
00FE00
01FE00
01DF00
03DF00
039F00
078F00
070F00
0F0F80
0FFF80
1FFF80
1FFF80
380780
3807C0
7007C0
F007C0
ENDCHAR
STARTCHAR aringacute
ENCODING 507
SWIDTH 681 0
DWIDTH 17 0
BBX 16 22 2 0
BITMAP
001E
0038
00E0
0000
0030
0048
0048
0030
0000
01FF
07FF
0FFE
1F1E
3E3E
7C3E
787E
F8FC
F9BC
FB7C
FF7C
FE7C
78F8
ENDCHAR
STARTCHAR AEacute
ENCODING 508
SWIDTH 1004 0
DWIDTH 25 0
BBX 27 22 0 0
BITMAP
00003C00
00007000
0001C000
00000000
0003FFE0
0007FFE0
000FFFC0
001FE000
003FE000
003FC000
007FC000
00F7FF00
01E7FF00
01C7FF00
03C78000
07FF8000
0FFF8000
1FFF8000
1C0F8000
3C0FFF80
781FFF00
F01FFF00
ENDCHAR
STARTCHAR aeacute
ENCODING 509
SWIDTH 987 0
DWIDTH 25 0
BBX 23 17 2 0
BITMAP
0003C0
000700
001C00
000000
01FF78
07FFFC
0FFFFE
1E1F3E
3C3E3C
7C3FFC
787FF0
F8BFC0
F9BC02
FF3E0E
FE3FFE
FC1FFC
780FE0
ENDCHAR
STARTCHAR Oslashacute
ENCODING 510
SWIDTH 855 0
DWIDTH 21 0
BBX 23 22 3 0
BITMAP
0003C0
000700
001C00
000000
003FBE
01FFFC
03FFF8
07C3F0
0F83F8
1F07F8
3E0FF8
3E1EF8
7C3CF8
7C78F8
7CF1F0
7DE1F0
7FC3E0
7F87C0
3F0F80
3FFF00
7FFE00
FFF000
ENDCHAR
STARTCHAR oslashacute
ENCODING 511
SWIDTH 663 0
DWIDTH 17 0
BBX 17 17 3 0
BITMAP
001E00
003800
00E000
000000
00FF80
07FF00
0FFF00
1F3F00
3E7F00
3CFF00
7DDF00
7F9F00
7F3E00
7E7C00
7FF800
7FF000
FFC000
ENDCHAR
STARTCHAR Scommaaccent
ENCODING 536
SWIDTH 639 0
DWIDTH 16 0
BBX 15 28 2 -10
BITMAP
01FC
07FE
1FFE
1F04
3E00
3E00
1F80
1FC0
0FE0
07F8
01F8
00FC
00FC
00FC
40F8
FFF0
FFE0
FF80
0000
07C0
07C0
07C0
0780
0780
0380
0380
0F00
0E00
ENDCHAR
STARTCHAR scommaaccent
ENCODING 537
SWIDTH 527 0
DWIDTH 13 0
BBX 13 23 1 -10
BITMAP
07F8
0FF8
1FF0
1F00
1E00
1F80
0FC0
03E0
01F0
41F0
FFE0
FFE0
7F80
0000
0F80
0F80
0F80
0F00
0F00
0700
0700
1E00
1C00
ENDCHAR
STARTCHAR Tcommaaccent
ENCODING 538
SWIDTH 747 0
DWIDTH 19 0
BBX 19 28 3 -10
BITMAP
FFFFE0
FFFFE0
FFFFE0
01F000
03E000
03E000
03E000
03E000
03E000
07C000
07C000
07C000
07C000
07C000
0F8000
0F8000
0F8000
0F8000
000000
07C000
07C000
07C000
078000
078000
038000
038000
0F0000
0E0000
ENDCHAR
STARTCHAR tcommaaccent
ENCODING 539
SWIDTH 437 0
DWIDTH 11 0
BBX 9 27 3 -10
BITMAP
0600
3E00
3E00
3E00
FF80
FF80
FF80
7C00
7C00
7C00
7C00
7800
F800
F800
FF00
FE00
7E00
0000
7C00
7C00
7C00
7800
7800
3800
3800
F000
E000
ENDCHAR
STARTCHAR uni021E
ENCODING 542
SWIDTH 813 0
DWIDTH 20 0
BBX 20 22 2 0
BITMAP
01C700
00FC00
007800
000000
0F81F0
1F01F0
1F01E0
1F03E0
1F03E0
1E03E0
3E03E0
3FFFC0
3FFFC0
3FFFC0
3C07C0
7C07C0
7C0780
7C0F80
7C0F80
780F80
F80F80
F81F00
ENDCHAR
STARTCHAR uni021F
ENCODING 543
SWIDTH 675 0
DWIDTH 17 0
BBX 15 23 2 0
BITMAP
38E0
1F80
0F00
0000
0F00
1F00
1F00
1F00
1F00
1E00
3E1C
3E7E
3EFE
3CFE
3DBE
7F3E
7E3C
7C7C
7C7C
787C
F87C
F8F8
F8F8
ENDCHAR
STARTCHAR uni0226
ENCODING 550
SWIDTH 771 0
DWIDTH 19 0
BBX 18 22 1 0
BITMAP
003800
007800
007000
000000
003E00
007E00
007E00
00FE00
01FE00
01DF00
03DF00
039F00
078F00
070F00
0F0F80
0FFF80
1FFF80
1FFF80
380780
3807C0
7007C0
F007C0
ENDCHAR
STARTCHAR uni0227
ENCODING 551
SWIDTH 681 0
DWIDTH 17 0
BBX 16 17 2 0
BITMAP
0070
00F0
00E0
0000
01FF
07FF
0FFE
1F1E
3E3E
7C3E
787E
F8FC
F9BC
FB7C
FF7C
FE7C
78F8
ENDCHAR
STARTCHAR uni0228
ENCODING 552
SWIDTH 642 0
DWIDTH 16 0
BBX 16 23 2 -5
BITMAP
0FFF
1FFF
1FFE
1F00
1F00
1E00
3E00
3FF8
3FF8
3FF8
3C00
7C00
7C00
7C00
7C00
7FFC
FFF8
FFF8
0380
0700
0380
0180
0F00
ENDCHAR
STARTCHAR uni0229
ENCODING 553
SWIDTH 612 0
DWIDTH 15 0
BBX 13 18 2 -5
BITMAP
03E0
0FF0
1FF8
3CF8
78F0
7FF0
FFC0
FF00
F808
F838
FFF8
7FF0
1F80
0380
0700
0380
0180
0F00
ENDCHAR
STARTCHAR uni022A
ENCODING 554
SWIDTH 855 0
DWIDTH 21 0
BBX 20 26 2 0
BITMAP
01FF00
01FF00
01FF00
000000
007380
00E380
00E700
000000
007F00
03FFC0
07FFE0
0F87E0
1F03F0
3E01F0
7C01F0
7C01F0
F801F0
F801F0
F803E0
F803E0
F807C0
FC0F80
7E1F00
7FFE00
3FFC00
0FE000
ENDCHAR
STARTCHAR uni022B
ENCODING 555
SWIDTH 663 0
DWIDTH 17 0
BBX 15 21 2 0
BITMAP
07FC
07FC
07FC
0000
01CE
038E
039C
0000
01F8
0FFC
1FFE
3E3E
7C3E
783E
F83E
F83E
F87C
FCF8
FFF0
7FE0
1F80
ENDCHAR
STARTCHAR uni022C
ENCODING 556
SWIDTH 855 0
DWIDTH 21 0
BBX 20 26 2 0
BITMAP
01FF00
01FF00
01FF00
000000
007B80
00FF00
01DE00
000000
007F00
03FFC0
07FFE0
0F87E0
1F03F0
3E01F0
7C01F0
7C01F0
F801F0
F801F0
F803E0
F803E0
F807C0
FC0F80
7E1F00
7FFE00
3FFC00
0FE000
ENDCHAR
STARTCHAR uni022D
ENCODING 557
SWIDTH 663 0
DWIDTH 17 0
BBX 15 21 2 0
BITMAP
07FC
07FC
07FC
0000
01EE
03FC
0778
0000
01F8
0FFC
1FFE
3E3E
7C3E
783E
F83E
F83E
F87C
FCF8
FFF0
7FE0
1F80
ENDCHAR
STARTCHAR uni022E
ENCODING 558
SWIDTH 855 0
DWIDTH 21 0
BBX 20 22 2 0
BITMAP
001C00
003C00
003800
000000
007F00
03FFC0
07FFE0
0F87E0
1F03F0
3E01F0
7C01F0
7C01F0
F801F0
F801F0
F803E0
F803E0
F807C0
FC0F80
7E1F00
7FFE00
3FFC00
0FE000
ENDCHAR
STARTCHAR uni022F
ENCODING 559
SWIDTH 663 0
DWIDTH 17 0
BBX 15 17 2 0
BITMAP
00E0
01E0
01C0
0000
01F8
0FFC
1FFE
3E3E
7C3E
783E
F83E
F83E
F87C
FCF8
FFF0
7FE0
1F80
ENDCHAR
STARTCHAR uni0230
ENCODING 560
SWIDTH 855 0
DWIDTH 21 0
BBX 20 26 2 0
BITMAP
01FF00
01FF00
01FF00
000000
001C00
003C00
003800
000000
007F00
03FFC0
07FFE0
0F87E0
1F03F0
3E01F0
7C01F0
7C01F0
F801F0
F801F0
F803E0
F803E0
F807C0
FC0F80
7E1F00
7FFE00
3FFC00
0FE000
ENDCHAR
STARTCHAR uni0231
ENCODING 561
SWIDTH 663 0
DWIDTH 17 0
BBX 15 21 2 0
BITMAP
0FF8
0FF8
0FF8
0000
00E0
01E0
01C0
0000
01F8
0FFC
1FFE
3E3E
7C3E
783E
F83E
F83E
F87C
FCF8
FFF0
7FE0
1F80
ENDCHAR
STARTCHAR uni0232
ENCODING 562
SWIDTH 681 0
DWIDTH 17 0
BBX 16 22 4 0
BITMAP
1FF0
1FF0
1FF0
0000
F80F
781E
7C3C
7C38
3C78
3EF0
3FE0
1FC0
1F80
1F80
1F00
1F00
1F00
1F00
1F00
3E00
3E00
3E00
ENDCHAR
STARTCHAR uni0233
ENCODING 563
SWIDTH 633 0
DWIDTH 16 0
BBX 17 22 1 -5
BITMAP
0FF800
0FF800
0FF800
000000
3E0780
3E0F00
3E0E00
1E1E00
1F3C00
1F3800
1F7800
1FF000
0FE000
0FE000
0FC000
0F8000
0F8000
0F0000
1E0000
3E0000
7C0000
F80000
ENDCHAR
STARTCHAR uni0250
ENCODING 592
SWIDTH 681 0
DWIDTH 17 0
BBX 16 13 2 0
BITMAP
1F1E
3E7F
3EFF
3EDF
3D9F
3F1F
7E1E
7C3E
7C7C
78F8
7FF0
FFE0
FF80
ENDCHAR
STARTCHAR uni0259
ENCODING 601
SWIDTH 612 0
DWIDTH 15 0
BBX 13 13 2 0
BITMAP
0FC0
7FF0
FFF8
E0F8
80F8
07F8
1FF8
7FF0
78F0
F9E0
FFC0
7F80
3E00
ENDCHAR
STARTCHAR uni025F
ENCODING 607
SWIDTH 464 0
DWIDTH 12 0
BBX 15 24 1 -11
BITMAP
003E
003E
003C
007C
007C
007C
007C
00F8
00F8
00F8
00F8
00F8
01F0
01F0
01F0
1FFC
1FF8
1FF8
03E0
03E0
C7C0
FF80
FF00
7E00
ENDCHAR
STARTCHAR uni0265
ENCODING 613
SWIDTH 675 0
DWIDTH 17 0
BBX 15 19 2 -6
BITMAP
3E3E
3E3E
7C3E
7C3C
7C7C
7C7C
78FC
F9FC
FB78
FE78
FEF8
FCF8
70F8
00F0
01F0
01F0
01F0
01F0
01E0
ENDCHAR
STARTCHAR uni0275
ENCODING 629
SWIDTH 663 0
DWIDTH 17 0
BBX 15 13 2 0
BITMAP
01F8
0FFC
1FFE
3E3E
7C3E
FFFE
FFFE
FFFE
F87C
FCF8
FFF0
7FE0
1F80
ENDCHAR
STARTCHAR uni0279
ENCODING 633
SWIDTH 542 0
DWIDTH 14 0
BBX 14 13 2 0
BITMAP
007C
007C
0078
00F8
00F8
01F8
01F8
03F0
0EF0
7DF0
79F0
71F0
E3E0
ENDCHAR
STARTCHAR uni0287
ENCODING 647
SWIDTH 437 0
DWIDTH 11 0
BBX 9 17 3 0
BITMAP
3F00
3F80
7F80
0F80
0F80
0F00
1F00
1F00
1F00
1F00
FF80
FF80
FF80
3E00
3E00
3E00
3000
ENDCHAR
STARTCHAR uni0289
ENCODING 649
SWIDTH 675 0
DWIDTH 17 0
BBX 15 13 3 0
BITMAP
3E3E
3C3E
7C3C
7C3C
7C7C
FFFE
FFFE
FFFE
FB78
FF78
FEF8
FCF8
70F0
ENDCHAR
STARTCHAR uni028C
ENCODING 652
SWIDTH 630 0
DWIDTH 16 0
BBX 15 13 3 0
BITMAP
01F8
01F8
03F8
03F8
07F8
0F7C
0E7C
1E7C
1C7C
3C3C
783E
703E
F03E
ENDCHAR
STARTCHAR uni028D
ENCODING 653
SWIDTH 878 0
DWIDTH 22 0
BBX 21 13 3 0
BITMAP
01E0F0
03E1F8
03E1F8
07F3F8
0FF3F8
0EF7F8
1EFF78
1CFE78
3CFE78
38FC78
78F878
70F878
F0F078
ENDCHAR
STARTCHAR uni028E
ENCODING 654
SWIDTH 633 0
DWIDTH 16 0
BBX 17 18 1 0
BITMAP
000F80
001F00
003E00
003C00
007800
00F800
00F800
01F800
03F800
03F800
07FC00
0F7C00
0E7C00
1E7C00
3C3C00
383E00
783E00
F03E00
ENDCHAR
STARTCHAR uni029E
ENCODING 670
SWIDTH 666 0
DWIDTH 17 0
BBX 16 19 2 -6
BITMAP
3E1F
3E1F
1F1E
1F3E
0FBE
0FBE
07FE
07BC
0F7C
1E7C
3C7C
787C
F078
00F8
00F8
00F8
00F8
00F0
01F0
ENDCHAR
STARTCHAR uni02BB
ENCODING 699
SWIDTH 265 0
DWIDTH 7 0
BBX 6 9 3 10
BITMAP
0C
1C
3C
70
78
78
F8
F8
F8
ENDCHAR
STARTCHAR afii57929
ENCODING 700
SWIDTH 265 0
DWIDTH 7 0
BBX 6 9 3 10
BITMAP
7C
7C
7C
78
78
38
38
F0
E0
ENDCHAR
STARTCHAR afii64937
ENCODING 701
SWIDTH 265 0
DWIDTH 7 0
BBX 6 9 3 10
BITMAP
F8
F8
F8
78
78
70
70
3C
1C
ENDCHAR
STARTCHAR circumflex
ENCODING 710
SWIDTH 663 0
DWIDTH 17 0
BBX 9 3 7 16
BITMAP
1E00
3F00
E380
ENDCHAR
STARTCHAR caron
ENCODING 711
SWIDTH 663 0
DWIDTH 17 0
BBX 9 3 8 16
BITMAP
E380
7E00
3C00
ENDCHAR
STARTCHAR uni02C8
ENCODING 712
SWIDTH 265 0
DWIDTH 7 0
BBX 5 9 4 10
BITMAP
F8
F8
F8
F8
70
70
70
70
70
ENDCHAR
STARTCHAR macron
ENCODING 713
SWIDTH 663 0
DWIDTH 17 0
BBX 9 3 8 15
BITMAP
FF80
FF80
FF80
ENDCHAR
STARTCHAR uni02CA
ENCODING 714
SWIDTH 663 0
DWIDTH 17 0
BBX 7 3 9 16
BITMAP
1E
38
E0
ENDCHAR
STARTCHAR uni02CB
ENCODING 715
SWIDTH 663 0
DWIDTH 17 0
BBX 6 3 9 16
BITMAP
F0
38
1C
ENDCHAR
STARTCHAR uni02CD
ENCODING 717
SWIDTH 663 0
DWIDTH 17 0
BBX 9 3 8 -4
BITMAP
FF80
FF80
FF80
ENDCHAR
STARTCHAR uni02CE
ENCODING 718
SWIDTH 663 0
DWIDTH 17 0
BBX 6 3 9 -4
BITMAP
F0
38
1C
ENDCHAR
STARTCHAR uni02CF
ENCODING 719
SWIDTH 663 0
DWIDTH 17 0
BBX 7 3 9 -4
BITMAP
1E
38
E0
ENDCHAR
STARTCHAR breve
ENCODING 728
SWIDTH 663 0
DWIDTH 17 0
BBX 9 3 8 16
BITMAP
E380
FF00
7C00
ENDCHAR
STARTCHAR dotaccent
ENCODING 729
SWIDTH 663 0
DWIDTH 17 0
BBX 4 3 10 16
BITMAP
70
F0
E0
ENDCHAR
STARTCHAR ring
ENCODING 730
SWIDTH 663 0
DWIDTH 17 0
BBX 4 4 10 15
BITMAP
60
90
90
60
ENDCHAR
STARTCHAR ogonek
ENCODING 731
SWIDTH 663 0
DWIDTH 17 0
BBX 5 3 5 -4
BITMAP
70
E0
F8
ENDCHAR
STARTCHAR tilde
ENCODING 732
SWIDTH 663 0
DWIDTH 17 0
BBX 10 3 7 16
BITMAP
3DC0
7F80
EF00
ENDCHAR
STARTCHAR hungarumlaut
ENCODING 733
SWIDTH 663 0
DWIDTH 17 0
BBX 10 3 8 16
BITMAP
1DC0
3300
EE00
ENDCHAR
STARTCHAR uni02EE
ENCODING 750
SWIDTH 530 0
DWIDTH 13 0
BBX 13 9 3 10
BITMAP
3CF8
7CF8
7CF8
7CF0
7DF0
3870
38F0
F1E0
E1C0
ENDCHAR
STARTCHAR uni037E
ENCODING 894
SWIDTH 343 0
DWIDTH 9 0
BBX 8 17 1 -4
BITMAP
1F
1F
1F
1E
3E
00
00
00
3C
7C
7C
7C
7C
38
38
F0
E0
ENDCHAR
STARTCHAR tonos
ENCODING 900
SWIDTH 663 0
DWIDTH 17 0
BBX 7 3 9 16
BITMAP
1E
38
E0
ENDCHAR
STARTCHAR dieresistonos
ENCODING 901
SWIDTH 663 0
DWIDTH 17 0
BBX 10 7 8 15
BITMAP
03C0
0700
1C00
0000
7380
E380
E700
ENDCHAR
STARTCHAR anoteleia
ENCODING 903
SWIDTH 343 0
DWIDTH 17 0
BBX 4 3 8 6
BITMAP
70
F0
E0
ENDCHAR
STARTCHAR mu
ENCODING 956
SWIDTH 681 0
DWIDTH 17 0
BBX 17 17 1 -4
BITMAP
1F0F80
1F0F80
1F1F00
1F1F00
1E1F00
3E3F00
3E7F00
3E7E00
3EDE00
3FBE00
7FBE00
7F3E00
7E7C00
7C0000
780000
F80000
F80000
ENDCHAR
STARTCHAR uni1E00
ENCODING 7680
SWIDTH 771 0
DWIDTH 19 0
BBX 18 23 1 -5
BITMAP
003E00
007E00
007E00
00FE00
01FE00
01DF00
03DF00
039F00
078F00
070F00
0F0F80
0FFF80
1FFF80
1FFF80
380780
3807C0
7007C0
F007C0
000000
006000
009000
009000
006000
ENDCHAR
STARTCHAR uni1E01
ENCODING 7681
SWIDTH 681 0
DWIDTH 17 0
BBX 16 18 2 -5
BITMAP
01FF
07FF
0FFE
1F1E
3E3E
7C3E
787E
F8FC
F9BC
FB7C
FF7C
FE7C
78F8
0000
0300
0480
0480
0300
ENDCHAR
STARTCHAR uni1E02
ENCODING 7682
SWIDTH 660 0
DWIDTH 16 0
BBX 15 22 2 0
BITMAP
00E0
01E0
01C0
0000
1FF8
1FFC
1FFE
1E3E
1E3E
3E3C
3C7C
3FF0
3FC0
3FF0
7CF8
7C7C
787C
787C
78FC
FFF8
FFF8
FFE0
ENDCHAR
STARTCHAR uni1E03
ENCODING 7683
SWIDTH 681 0
DWIDTH 17 0
BBX 16 23 2 0
BITMAP
0380
0780
0700
0000
0F80
0F80
1F00
1F00
1F00
1F00
1E1E
3E3F
3E7F
3EFF
3D9F
3F1F
7E1E
7C3E
7C3C
78F8
7FF0
FFE0
FF80
ENDCHAR
STARTCHAR uni1E04
ENCODING 7684
SWIDTH 660 0
DWIDTH 16 0
BBX 15 22 2 -4
BITMAP
1FF8
1FFC
1FFE
1E3E
1E3E
3E3C
3C7C
3FF0
3FC0
3FF0
7CF8
7C7C
787C
787C
78FC
FFF8
FFF8
FFE0
0000
0380
0780
0700
ENDCHAR
STARTCHAR uni1E05
ENCODING 7685
SWIDTH 681 0
DWIDTH 17 0
BBX 16 23 2 -4
BITMAP
0F80
0F80
1F00
1F00
1F00
1F00
1E1E
3E3F
3E7F
3EFF
3D9F
3F1F
7E1E
7C3E
7C3C
78F8
7FF0
FFE0
FF80
0000
0700
0F00
0E00
ENDCHAR
STARTCHAR uni1E06
ENCODING 7686
SWIDTH 660 0
DWIDTH 16 0
BBX 15 22 2 -4
BITMAP
1FF8
1FFC
1FFE
1E3E
1E3E
3E3C
3C7C
3FF0
3FC0
3FF0
7CF8
7C7C
787C
787C
78FC
FFF8
FFF8
FFE0
0000
3FE0
3FE0
3FE0
ENDCHAR
STARTCHAR uni1E07
ENCODING 7687
SWIDTH 681 0
DWIDTH 17 0
BBX 16 23 2 -4
BITMAP
0F80
0F80
1F00
1F00
1F00
1F00
1E1E
3E3F
3E7F
3EFF
3D9F
3F1F
7E1E
7C3E
7C3C
78F8
7FF0
FFE0
FF80
0000
3FE0
3FE0
3FE0
ENDCHAR
STARTCHAR uni1E08
ENCODING 7688
SWIDTH 737 0
DWIDTH 18 0
BBX 18 27 2 -5
BITMAP
001E00
003800
00E000
000000
007F80
03FFC0
07FFC0
0FC080
1F0000
3E0000
7C0000
7C0000
780000
F80000
F80000
F80000
F80000
FC0000
7E0600
7FFE00
3FFE00
0FF800
030000
070000
038000
018000
0F0000
ENDCHAR
STARTCHAR uni1E09
ENCODING 7689
SWIDTH 548 0
DWIDTH 14 0
BBX 13 22 2 -5
BITMAP
00F0
01C0
0700
0000
01F0
07F8
1FF8
3F18
7C00
7C00
F800
F800
F800
FC30
FFE0
7FE0
1F80
0C00
1C00
0E00
0600
3C00
ENDCHAR
STARTCHAR uni1E0A
ENCODING 7690
SWIDTH 822 0
DWIDTH 21 0
BBX 20 22 2 0
BITMAP
003800
007800
007000
000000
0FFF00
1FFFC0
1FFFE0
1F07F0
1F03F0
1F01F0
3E01F0
3E01F0
3E01F0
3E03F0
3C03E0
7C03E0
7C07C0
7C0FC0
7C3F80
7FFF00
FFFC00
FFF000
ENDCHAR
STARTCHAR uni1E0B
ENCODING 7691
SWIDTH 681 0
DWIDTH 17 0
BBX 17 23 2 0
BITMAP
000E00
001E00
001C00
000000
000F80
000F80
000F00
001F00
001F00
001F00
01FF00
07FE00
0FFE00
1F3E00
3E3E00
7C3E00
787C00
F8FC00
F9BC00
FB7C00
FF7C00
FE7800
78F800
ENDCHAR
STARTCHAR uni1E0C
ENCODING 7692
SWIDTH 822 0
DWIDTH 21 0
BBX 20 22 2 -4
BITMAP
0FFF00
1FFFC0
1FFFE0
1F07F0
1F03F0
1F01F0
3E01F0
3E01F0
3E01F0
3E03F0
3C03E0
7C03E0
7C07C0
7C0FC0
7C3F80
7FFF00
FFFC00
FFF000
000000
01C000
03C000
038000
ENDCHAR
STARTCHAR uni1E0D
ENCODING 7693
SWIDTH 681 0
DWIDTH 17 0
BBX 17 23 2 -4
BITMAP
000F80
000F80
000F00
001F00
001F00
001F00
01FF00
07FE00
0FFE00
1F3E00
3E3E00
7C3E00
787C00
F8FC00
F9BC00
FB7C00
FF7C00
FE7800
78F800
000000
038000
078000
070000
ENDCHAR
STARTCHAR uni1E0E
ENCODING 7694
SWIDTH 822 0
DWIDTH 21 0
BBX 20 22 2 -4
BITMAP
0FFF00
1FFFC0
1FFFE0
1F07F0
1F03F0
1F01F0
3E01F0
3E01F0
3E01F0
3E03F0
3C03E0
7C03E0
7C07C0
7C0FC0
7C3F80
7FFF00
FFFC00
FFF000
000000
0FF800
0FF800
0FF800
ENDCHAR
STARTCHAR uni1E0F
ENCODING 7695
SWIDTH 681 0
DWIDTH 17 0
BBX 17 23 2 -4
BITMAP
000F80
000F80
000F00
001F00
001F00
001F00
01FF00
07FE00
0FFE00
1F3E00
3E3E00
7C3E00
787C00
F8FC00
F9BC00
FB7C00
FF7C00
FE7800
78F800
000000
1FF000
1FF000
1FF000
ENDCHAR
STARTCHAR uni1E10
ENCODING 7696
SWIDTH 822 0
DWIDTH 21 0
BBX 20 23 2 -5
BITMAP
0FFF00
1FFFC0
1FFFE0
1F07F0
1F03F0
1F01F0
3E01F0
3E01F0
3E01F0
3E03F0
3C03E0
7C03E0
7C07C0
7C0FC0
7C3F80
7FFF00
FFFC00
FFF000
00E000
01C000
00E000
006000
03C000
ENDCHAR
STARTCHAR uni1E11
ENCODING 7697
SWIDTH 681 0
DWIDTH 17 0
BBX 17 24 2 -5
BITMAP
000F80
000F80
000F00
001F00
001F00
001F00
01FF00
07FE00
0FFE00
1F3E00
3E3E00
7C3E00
787C00
F8FC00
F9BC00
FB7C00
FF7C00
FE7800
78F800
01C000
038000
01C000
00C000
078000
ENDCHAR
STARTCHAR uni1E12
ENCODING 7698
SWIDTH 822 0
DWIDTH 21 0
BBX 20 22 2 -4
BITMAP
0FFF00
1FFFC0
1FFFE0
1F07F0
1F03F0
1F01F0
3E01F0
3E01F0
3E01F0
3E03F0
3C03E0
7C03E0
7C07C0
7C0FC0
7C3F80
7FFF00
FFFC00
FFF000
000000
01E000
03F000
0E3800
ENDCHAR
STARTCHAR uni1E13
ENCODING 7699
SWIDTH 681 0
DWIDTH 17 0
BBX 17 23 2 -4
BITMAP
000F80
000F80
000F00
001F00
001F00
001F00
01FF00
07FE00
0FFE00
1F3E00
3E3E00
7C3E00
787C00
F8FC00
F9BC00
FB7C00
FF7C00
FE7800
78F800
000000
03C000
07E000
1C7000
ENDCHAR
STARTCHAR uni1E14
ENCODING 7700
SWIDTH 642 0
DWIDTH 16 0
BBX 16 26 2 0
BITMAP
0780
01C0
00E0
0000
0FF8
0FF8
0FF8
0000
0FFF
1FFF
1FFE
1F00
1F00
1E00
3E00
3FF8
3FF8
3FF8
3C00
7C00
7C00
7C00
7C00
7FFC
FFF8
FFF8
ENDCHAR
STARTCHAR uni1E15
ENCODING 7701
SWIDTH 612 0
DWIDTH 15 0
BBX 13 21 2 0
BITMAP
1E00
0700
0380
0000
1FF0
1FF0
1FF0
0000
03E0
0FF0
1FF8
3CF8
78F0
7FF0
FFC0
FF00
F808
F838
FFF8
7FF0
1F80
ENDCHAR
STARTCHAR uni1E16
ENCODING 7702
SWIDTH 642 0
DWIDTH 16 0
BBX 16 26 2 0
BITMAP
003C
0070
01C0
0000
0FF8
0FF8
0FF8
0000
0FFF
1FFF
1FFE
1F00
1F00
1E00
3E00
3FF8
3FF8
3FF8
3C00
7C00
7C00
7C00
7C00
7FFC
FFF8
FFF8
ENDCHAR
STARTCHAR uni1E17
ENCODING 7703
SWIDTH 612 0
DWIDTH 15 0
BBX 13 21 2 0
BITMAP
00F0
01C0
0700
0000
1FF0
1FF0
1FF0
0000
03E0
0FF0
1FF8
3CF8
78F0
7FF0
FFC0
FF00
F808
F838
FFF8
7FF0
1F80
ENDCHAR
STARTCHAR uni1E18
ENCODING 7704
SWIDTH 642 0
DWIDTH 16 0
BBX 16 22 2 -4
BITMAP
0FFF
1FFF
1FFE
1F00
1F00
1E00
3E00
3FF8
3FF8
3FF8
3C00
7C00
7C00
7C00
7C00
7FFC
FFF8
FFF8
0000
0780
0FC0
38E0
ENDCHAR
STARTCHAR uni1E19
ENCODING 7705
SWIDTH 612 0
DWIDTH 15 0
BBX 13 17 2 -4
BITMAP
03E0
0FF0
1FF8
3CF8
78F0
7FF0
FFC0
FF00
F808
F838
FFF8
7FF0
1F80
0000
0780
0FC0
38E0
ENDCHAR
STARTCHAR uni1E1A
ENCODING 7706
SWIDTH 642 0
DWIDTH 16 0
BBX 16 22 2 -4
BITMAP
0FFF
1FFF
1FFE
1F00
1F00
1E00
3E00
3FF8
3FF8
3FF8
3C00
7C00
7C00
7C00
7C00
7FFC
FFF8
FFF8
0000
1EE0
3FC0
7780
ENDCHAR
STARTCHAR uni1E1B
ENCODING 7707
SWIDTH 612 0
DWIDTH 15 0
BBX 13 17 2 -4
BITMAP
03E0
0FF0
1FF8
3CF8
78F0
7FF0
FFC0
FF00
F808
F838
FFF8
7FF0
1F80
0000
1EE0
3FC0
7780
ENDCHAR
STARTCHAR uni1E1C
ENCODING 7708
SWIDTH 642 0
DWIDTH 16 0
BBX 16 27 2 -5
BITMAP
0E38
0FF0
07C0
0000
0FFF
1FFF
1FFE
1F00
1F00
1E00
3E00
3FF8
3FF8
3FF8
3C00
7C00
7C00
7C00
7C00
7FFC
FFF8
FFF8
0380
0700
0380
0180
0F00
ENDCHAR
STARTCHAR uni1E1D
ENCODING 7709
SWIDTH 612 0
DWIDTH 15 0
BBX 13 22 2 -5
BITMAP
1C70
1FE0
0F80
0000
03E0
0FF0
1FF8
3CF8
78F0
7FF0
FFC0
FF00
F808
F838
FFF8
7FF0
1F80
0380
0700
0380
0180
0F00
ENDCHAR
STARTCHAR uni1E1E
ENCODING 7710
SWIDTH 614 0
DWIDTH 15 0
BBX 16 22 2 0
BITMAP
00E0
01E0
01C0
0000
0FFF
1FFF
1FFE
1F00
1F00
1E00
3E00
3E00
3FF8
3FF8
3FF0
7C00
7C00
7C00
7C00
7800
F800
F800
ENDCHAR
STARTCHAR uni1E1F
ENCODING 7711
SWIDTH 464 0
DWIDTH 12 0
BBX 15 28 1 -5
BITMAP
00E0
01E0
01C0
0000
00FC
01FE
03FE
07C6
0F80
0F80
3FF0
3FF0
7FF0
1F00
1F00
1F00
3E00
3E00
3E00
3E00
3E00
7C00
7C00
7C00
7C00
7800
F800
F800
ENDCHAR
STARTCHAR uni1E20
ENCODING 7712
SWIDTH 755 0
DWIDTH 19 0
BBX 18 22 2 0
BITMAP
03FE00
03FE00
03FE00
000000
007F80
03FFC0
07FFC0
0FC080
1F0000
3E0000
7C0000
7C0000
780000
F80F00
F80F00
F81F00
F81F00
FC1E00
7E1E00
7FFE00
3FFE00
0FF800
ENDCHAR
STARTCHAR uni1E21
ENCODING 7713
SWIDTH 674 0
DWIDTH 17 0
BBX 16 22 1 -5
BITMAP
07FC
07FC
07FC
0000
01FF
07FF
0FFF
1F1E
3E3E
3C3E
7C7E
7CFE
7DBC
7FBC
7F7C
7E7C
3C7C
80F8
E0F8
FFF0
7FE0
7F80
ENDCHAR
STARTCHAR uni1E22
ENCODING 7714
SWIDTH 813 0
DWIDTH 20 0
BBX 20 22 2 0
BITMAP
003800
007800
007000
000000
0F81F0
1F01F0
1F01E0
1F03E0
1F03E0
1E03E0
3E03E0
3FFFC0
3FFFC0
3FFFC0
3C07C0
7C07C0
7C0780
7C0F80
7C0F80
780F80
F80F80
F81F00
ENDCHAR
STARTCHAR uni1E23
ENCODING 7715
SWIDTH 675 0
DWIDTH 17 0
BBX 15 23 2 0
BITMAP
0380
0780
0700
0000
0F00
1F00
1F00
1F00
1F00
1E00
3E1C
3E7E
3EFE
3CFE
3DBE
7F3E
7E3C
7C7C
7C7C
787C
F87C
F8F8
F8F8
ENDCHAR
STARTCHAR uni1E24
ENCODING 7716
SWIDTH 813 0
DWIDTH 20 0
BBX 20 22 2 -4
BITMAP
0F81F0
1F01F0
1F01E0
1F03E0
1F03E0
1E03E0
3E03E0
3FFFC0
3FFFC0
3FFFC0
3C07C0
7C07C0
7C0780
7C0F80
7C0F80
780F80
F80F80
F81F00
000000
00E000
01E000
01C000
ENDCHAR
STARTCHAR uni1E25
ENCODING 7717
SWIDTH 675 0
DWIDTH 17 0
BBX 15 23 2 -4
BITMAP
0F00
1F00
1F00
1F00
1F00
1E00
3E1C
3E7E
3EFE
3CFE
3DBE
7F3E
7E3C
7C7C
7C7C
787C
F87C
F8F8
F8F8
0000
0380
0780
0700
ENDCHAR
STARTCHAR uni1E26
ENCODING 7718
SWIDTH 813 0
DWIDTH 20 0
BBX 20 22 2 0
BITMAP
00E700
01C700
01CE00
000000
0F81F0
1F01F0
1F01E0
1F03E0
1F03E0
1E03E0
3E03E0
3FFFC0
3FFFC0
3FFFC0
3C07C0
7C07C0
7C0780
7C0F80
7C0F80
780F80
F80F80
F81F00
ENDCHAR
STARTCHAR uni1E27
ENCODING 7719
SWIDTH 675 0
DWIDTH 17 0
BBX 15 23 2 0
BITMAP
1CE0
38E0
39C0
0000
0F00
1F00
1F00
1F00
1F00
1E00
3E1C
3E7E
3EFE
3CFE
3DBE
7F3E
7E3C
7C7C
7C7C
787C
F87C
F8F8
F8F8
ENDCHAR
STARTCHAR uni1E28
ENCODING 7720
SWIDTH 813 0
DWIDTH 20 0
BBX 20 23 2 -5
BITMAP
0F81F0
1F01F0
1F01E0
1F03E0
1F03E0
1E03E0
3E03E0
3FFFC0
3FFFC0
3FFFC0
3C07C0
7C07C0
7C0780
7C0F80
7C0F80
780F80
F80F80
F81F00
00E000
01C000
00E000
006000
03C000
ENDCHAR
STARTCHAR uni1E29
ENCODING 7721
SWIDTH 675 0
DWIDTH 17 0
BBX 15 24 2 -5
BITMAP
0F00
1F00
1F00
1F00
1F00
1E00
3E1C
3E7E
3EFE
3CFE
3DBE
7F3E
7E3C
7C7C
7C7C
787C
F87C
F8F8
F8F8
0380
0700
0380
0180
0F00
ENDCHAR
STARTCHAR uni1E2A
ENCODING 7722
SWIDTH 813 0
DWIDTH 20 0
BBX 20 22 2 -4
BITMAP
0F81F0
1F01F0
1F01E0
1F03E0
1F03E0
1E03E0
3E03E0
3FFFC0
3FFFC0
3FFFC0
3C07C0
7C07C0
7C0780
7C0F80
7C0F80
780F80
F80F80
F81F00
000000
071C00
07F800
03E000
ENDCHAR
STARTCHAR uni1E2B
ENCODING 7723
SWIDTH 675 0
DWIDTH 17 0
BBX 15 23 2 -4
BITMAP
0F00
1F00
1F00
1F00
1F00
1E00
3E1C
3E7E
3EFE
3CFE
3DBE
7F3E
7E3C
7C7C
7C7C
787C
F87C
F8F8
F8F8
0000
1C70
1FE0
0F80
ENDCHAR
STARTCHAR uni1E2C
ENCODING 7724
SWIDTH 361 0
DWIDTH 9 0
BBX 11 22 -1 -4
BITMAP
03E0
03E0
03E0
03C0
03C0
07C0
07C0
07C0
0780
0780
0F80
0F80
0F80
0F00
0F00
1F00
1F00
1F00
0000
3DC0
7F80
EF00
ENDCHAR
STARTCHAR uni1E2D
ENCODING 7725
SWIDTH 343 0
DWIDTH 9 0
BBX 11 23 0 -4
BITMAP
03E0
03E0
07C0
07C0
0000
0000
07C0
0F80
0F80
0F80
0F80
0F80
1F00
1F00
1F00
1F00
1E00
3E00
3E00
0000
3DC0
7F80
EF00
ENDCHAR
STARTCHAR uni1E2E
ENCODING 7726
SWIDTH 361 0
DWIDTH 9 0
BBX 11 26 2 0
BITMAP
01E0
0380
0E00
0000
1CE0
38E0
39C0
0000
1F00
1F00
1F00
1E00
1E00
3E00
3E00
3E00
3C00
3C00
7C00
7C00
7C00
7800
7800
F800
F800
F800
ENDCHAR
STARTCHAR uni1E2F
ENCODING 7727
SWIDTH 343 0
DWIDTH 9 0
BBX 11 21 2 0
BITMAP
01E0
0380
0E00
0000
1CE0
38E0
39C0
0000
1F00
1F00
3E00
3E00
3E00
3E00
7E00
7C00
7C00
7C00
7C00
F800
F800
ENDCHAR
STARTCHAR uni1E30
ENCODING 7728
SWIDTH 753 0
DWIDTH 19 0
BBX 17 22 2 0
BITMAP
003C00
007000
01C000
000000
1F0780
1F0F00
1F1E00
1F1C00
1E3800
3E7800
3EF000
3FE000
3FE000
3FF000
7DF000
7CF800
7CF800
7C7C00
787E00
F83E00
F83F00
F81F00
ENDCHAR
STARTCHAR uni1E31
ENCODING 7729
SWIDTH 666 0
DWIDTH 17 0
BBX 16 23 2 0
BITMAP
01E0
0380
0E00
0000
0F80
0F00
1F00
1F00
1F00
1F00
1E0F
3E1E
3E3C
3E78
3EF0
3DE0
7FE0
7DF0
7DF0
7CF8
78F8
F87C
F87C
ENDCHAR
STARTCHAR uni1E32
ENCODING 7730
SWIDTH 753 0
DWIDTH 19 0
BBX 17 22 2 -4
BITMAP
1F0780
1F0F00
1F1E00
1F1C00
1E3800
3E7800
3EF000
3FE000
3FE000
3FF000
7DF000
7CF800
7CF800
7C7C00
787E00
F83E00
F83F00
F81F00
000000
01C000
03C000
038000
ENDCHAR
STARTCHAR uni1E33
ENCODING 7731
SWIDTH 666 0
DWIDTH 17 0
BBX 16 23 2 -4
BITMAP
0F80
0F00
1F00
1F00
1F00
1F00
1E0F
3E1E
3E3C
3E78
3EF0
3DE0
7FE0
7DF0
7DF0
7CF8
78F8
F87C
F87C
0000
0380
0780
0700
ENDCHAR
STARTCHAR uni1E34
ENCODING 7732
SWIDTH 753 0
DWIDTH 19 0
BBX 17 22 2 -4
BITMAP
1F0780
1F0F00
1F1E00
1F1C00
1E3800
3E7800
3EF000
3FE000
3FE000
3FF000
7DF000
7CF800
7CF800
7C7C00
787E00
F83E00
F83F00
F81F00
000000
0FF800
0FF800
0FF800
ENDCHAR
STARTCHAR uni1E35
ENCODING 7733
SWIDTH 666 0
DWIDTH 17 0
BBX 16 23 2 -4
BITMAP
0F80
0F00
1F00
1F00
1F00
1F00
1E0F
3E1E
3E3C
3E78
3EF0
3DE0
7FE0
7DF0
7DF0
7CF8
78F8
F87C
F87C
0000
1FF0
1FF0
1FF0
ENDCHAR
STARTCHAR uni1E36
ENCODING 7734
SWIDTH 623 0
DWIDTH 16 0
BBX 14 22 2 -4
BITMAP
0F80
1F00
1F00
1F00
1F00
1F00
3E00
3E00
3E00
3E00
3C00
7C00
7C00
7C00
7C00
7FFC
FFFC
FFFC
0000
0700
0F00
0E00
ENDCHAR
STARTCHAR uni1E37
ENCODING 7735
SWIDTH 343 0
DWIDTH 9 0
BBX 9 23 2 -4
BITMAP
0F80
0F80
1F00
1F00
1F00
1F00
1F00
3E00
3E00
3E00
3E00
3E00
7C00
7C00
7C00
7C00
7C00
F800
F800
0000
3800
7800
7000
ENDCHAR
STARTCHAR uni1E38
ENCODING 7736
SWIDTH 623 0
DWIDTH 16 0
BBX 14 26 2 -4
BITMAP
3FE0
3FE0
3FE0
0000
0F80
1F00
1F00
1F00
1F00
1F00
3E00
3E00
3E00
3E00
3C00
7C00
7C00
7C00
7C00
7FFC
FFFC
FFFC
0000
0700
0F00
0E00
ENDCHAR
STARTCHAR uni1E39
ENCODING 7737
SWIDTH 343 0
DWIDTH 9 0
BBX 10 27 2 -4
BITMAP
7FC0
7FC0
7FC0
0000
0F80
0F80
1F00
1F00
1F00
1F00
1F00
3E00
3E00
3E00
3E00
3E00
7C00
7C00
7C00
7C00
7C00
F800
F800
0000
3800
7800
7000
ENDCHAR
STARTCHAR uni1E3A
ENCODING 7738
SWIDTH 623 0
DWIDTH 16 0
BBX 14 22 2 -4
BITMAP
0F80
1F00
1F00
1F00
1F00
1F00
3E00
3E00
3E00
3E00
3C00
7C00
7C00
7C00
7C00
7FFC
FFFC
FFFC
0000
3FE0
3FE0
3FE0
ENDCHAR
STARTCHAR uni1E3B
ENCODING 7739
SWIDTH 343 0
DWIDTH 9 0
BBX 10 23 1 -4
BITMAP
07C0
07C0
0F80
0F80
0F80
0F80
0F80
1F00
1F00
1F00
1F00
1F00
3E00
3E00
3E00
3E00
3E00
7C00
7C00
0000
FF80
FF80
FF80
ENDCHAR
STARTCHAR uni1E3C
ENCODING 7740
SWIDTH 623 0
DWIDTH 16 0
BBX 14 22 2 -4
BITMAP
0F80
1F00
1F00
1F00
1F00
1F00
3E00
3E00
3E00
3E00
3C00
7C00
7C00
7C00
7C00
7FFC
FFFC
FFFC
0000
0780
0FC0
38E0
ENDCHAR
STARTCHAR uni1E3D
ENCODING 7741
SWIDTH 343 0
DWIDTH 9 0
BBX 10 23 1 -4
BITMAP
07C0
07C0
0F80
0F80
0F80
0F80
0F80
1F00
1F00
1F00
1F00
1F00
3E00
3E00
3E00
3E00
3E00
7C00
7C00
0000
1E00
3F00
E380
ENDCHAR
STARTCHAR uni1E3E
ENCODING 7742
SWIDTH 940 0
DWIDTH 23 0
BBX 23 22 2 0
BITMAP
000780
000E00
003800
000000
0FC07E
1FC07E
1FC0FC
1FC0FC
1FC1FC
1FC3FC
3FE3FC
3FE778
39E778
39EE78
39EEF8
79FCF8
79FCF0
79F8F0
71F0F0
71F1F0
F0E1F0
F001E0
ENDCHAR
STARTCHAR uni1E3F
ENCODING 7743
SWIDTH 991 0
DWIDTH 25 0
BBX 23 17 2 0
BITMAP
000780
000E00
003800
000000
1E3C3C
3E7E7E
3CFEFE
3DFDFE
3FBFBE
3F3F3C
7E3F3C
7E7E3C
7C7C7C
78787C
787878
F87878
F8F8F8
ENDCHAR
STARTCHAR uni1E40
ENCODING 7744
SWIDTH 940 0
DWIDTH 23 0
BBX 23 22 2 0
BITMAP
000E00
001E00
001C00
000000
0FC07E
1FC07E
1FC0FC
1FC0FC
1FC1FC
1FC3FC
3FE3FC
3FE778
39E778
39EE78
39EEF8
79FCF8
79FCF0
79F8F0
71F0F0
71F1F0
F0E1F0
F001E0
ENDCHAR
STARTCHAR uni1E41
ENCODING 7745
SWIDTH 991 0
DWIDTH 25 0
BBX 23 17 2 0
BITMAP
000E00
001E00
001C00
000000
1E3C3C
3E7E7E
3CFEFE
3DFDFE
3FBFBE
3F3F3C
7E3F3C
7E7E3C
7C7C7C
78787C
787878
F87878
F8F8F8
ENDCHAR
STARTCHAR uni1E42
ENCODING 7746
SWIDTH 940 0
DWIDTH 23 0
BBX 23 22 2 -4
BITMAP
0FC07E
1FC07E
1FC0FC
1FC0FC
1FC1FC
1FC3FC
3FE3FC
3FE778
39E778
39EE78
39EEF8
79FCF8
79FCF0
79F8F0
71F0F0
71F1F0
F0E1F0
F001E0
000000
007000
00F000
00E000
ENDCHAR
STARTCHAR uni1E43
ENCODING 7747
SWIDTH 991 0
DWIDTH 25 0
BBX 23 17 2 -4
BITMAP
1E3C3C
3E7E7E
3CFEFE
3DFDFE
3FBFBE
3F3F3C
7E3F3C
7E7E3C
7C7C7C
78787C
787878
F87878
F8F8F8
000000
003800
007800
007000
ENDCHAR
STARTCHAR uni1E44
ENCODING 7748
SWIDTH 789 0
DWIDTH 20 0
BBX 19 22 2 0
BITMAP
007000
00F000
00E000
000000
1F01E0
1F01E0
1F81E0
1F81C0
1FC3C0
3FC3C0
3FE3C0
3FE3C0
3DF380
39F780
78FF80
78FF80
787F80
787F00
703F00
F03F00
F01F00
F01F00
ENDCHAR
STARTCHAR uni1E45
ENCODING 7749
SWIDTH 675 0
DWIDTH 17 0
BBX 15 17 2 0
BITMAP
00E0
01E0
01C0
0000
1E1C
3E7E
3EFE
3DFE
3DBE
3F3E
7E3C
7C7C
7C7C
787C
787C
F8F8
F8F8
ENDCHAR
STARTCHAR uni1E46
ENCODING 7750
SWIDTH 789 0
DWIDTH 20 0
BBX 19 22 2 -4
BITMAP
1F01E0
1F01E0
1F81E0
1F81C0
1FC3C0
3FC3C0
3FE3C0
3FE3C0
3DF380
39F780
78FF80
78FF80
787F80
787F00
703F00
F03F00
F01F00
F01F00
000000
00E000
01E000
01C000
ENDCHAR
STARTCHAR uni1E47
ENCODING 7751
SWIDTH 675 0
DWIDTH 17 0
BBX 15 17 2 -4
BITMAP
1E1C
3E7E
3EFE
3DFE
3DBE
3F3E
7E3C
7C7C
7C7C
787C
787C
F8F8
F8F8
0000
0380
0780
0700
ENDCHAR
STARTCHAR uni1E48
ENCODING 7752
SWIDTH 789 0
DWIDTH 20 0
BBX 19 22 2 -4
BITMAP
1F01E0
1F01E0
1F81E0
1F81C0
1FC3C0
3FC3C0
3FE3C0
3FE3C0
3DF380
39F780
78FF80
78FF80
787F80
787F00
703F00
F03F00
F01F00
F01F00
000000
07FC00
07FC00
07FC00
ENDCHAR
STARTCHAR uni1E49
ENCODING 7753
SWIDTH 675 0
DWIDTH 17 0
BBX 15 17 2 -4
BITMAP
1E1C
3E7E
3EFE
3DFE
3DBE
3F3E
7E3C
7C7C
7C7C
787C
787C
F8F8
F8F8
0000
1FF0
1FF0
1FF0
ENDCHAR
STARTCHAR uni1E4A
ENCODING 7754
SWIDTH 789 0
DWIDTH 20 0
BBX 19 22 2 -4
BITMAP
1F01E0
1F01E0
1F81E0
1F81C0
1FC3C0
3FC3C0
3FE3C0
3FE3C0
3DF380
39F780
78FF80
78FF80
787F80
787F00
703F00
F03F00
F01F00
F01F00
000000
01E000
03F000
0E3800
ENDCHAR
STARTCHAR uni1E4B
ENCODING 7755
SWIDTH 675 0
DWIDTH 17 0
BBX 15 17 2 -4
BITMAP
1E1C
3E7E
3EFE
3DFE
3DBE
3F3E
7E3C
7C7C
7C7C
787C
787C
F8F8
F8F8
0000
0780
0FC0
38E0
ENDCHAR
STARTCHAR uni1E4C
ENCODING 7756
SWIDTH 855 0
DWIDTH 21 0
BBX 20 26 2 0
BITMAP
000F00
001C00
007000
000000
007B80
00FF00
01DE00
000000
007F00
03FFC0
07FFE0
0F87E0
1F03F0
3E01F0
7C01F0
7C01F0
F801F0
F801F0
F803E0
F803E0
F807C0
FC0F80
7E1F00
7FFE00
3FFC00
0FE000
ENDCHAR
STARTCHAR uni1E4D
ENCODING 7757
SWIDTH 663 0
DWIDTH 17 0
BBX 15 21 2 0
BITMAP
003C
0070
01C0
0000
01EE
03FC
0778
0000
01F8
0FFC
1FFE
3E3E
7C3E
783E
F83E
F83E
F87C
FCF8
FFF0
7FE0
1F80
ENDCHAR
STARTCHAR uni1E4E
ENCODING 7758
SWIDTH 855 0
DWIDTH 21 0
BBX 20 26 2 0
BITMAP
00E700
01C700
01CE00
000000
007B80
00FF00
01DE00
000000
007F00
03FFC0
07FFE0
0F87E0
1F03F0
3E01F0
7C01F0
7C01F0
F801F0
F801F0
F803E0
F803E0
F807C0
FC0F80
7E1F00
7FFE00
3FFC00
0FE000
ENDCHAR
STARTCHAR uni1E4F
ENCODING 7759
SWIDTH 663 0
DWIDTH 17 0
BBX 15 21 2 0
BITMAP
039C
071C
0738
0000
01EE
03FC
0778
0000
01F8
0FFC
1FFE
3E3E
7C3E
783E
F83E
F83E
F87C
FCF8
FFF0
7FE0
1F80
ENDCHAR
STARTCHAR uni1E50
ENCODING 7760
SWIDTH 855 0
DWIDTH 21 0
BBX 20 26 2 0
BITMAP
01E000
007000
003800
000000
01FF00
01FF00
01FF00
000000
007F00
03FFC0
07FFE0
0F87E0
1F03F0
3E01F0
7C01F0
7C01F0
F801F0
F801F0
F803E0
F803E0
F807C0
FC0F80
7E1F00
7FFE00
3FFC00
0FE000
ENDCHAR
STARTCHAR uni1E51
ENCODING 7761
SWIDTH 663 0
DWIDTH 17 0
BBX 15 21 2 0
BITMAP
0F00
0380
01C0
0000
0FF8
0FF8
0FF8
0000
01F8
0FFC
1FFE
3E3E
7C3E
783E
F83E
F83E
F87C
FCF8
FFF0
7FE0
1F80
ENDCHAR
STARTCHAR uni1E52
ENCODING 7762
SWIDTH 855 0
DWIDTH 21 0
BBX 20 26 2 0
BITMAP
000F00
001C00
007000
000000
01FF00
01FF00
01FF00
000000
007F00
03FFC0
07FFE0
0F87E0
1F03F0
3E01F0
7C01F0
7C01F0
F801F0
F801F0
F803E0
F803E0
F807C0
FC0F80
7E1F00
7FFE00
3FFC00
0FE000
ENDCHAR
STARTCHAR uni1E53
ENCODING 7763
SWIDTH 663 0
DWIDTH 17 0
BBX 15 21 2 0
BITMAP
0078
00E0
0380
0000
0FF8
0FF8
0FF8
0000
01F8
0FFC
1FFE
3E3E
7C3E
783E
F83E
F83E
F87C
FCF8
FFF0
7FE0
1F80
ENDCHAR
STARTCHAR uni1E54
ENCODING 7764
SWIDTH 645 0
DWIDTH 16 0
BBX 16 22 2 0
BITMAP
003C
0070
01C0
0000
1FFC
1FFE
1FFF
1E1F
1E1F
3E1F
3E1E
3E7E
3FFC
3FF8
7FE0
7C00
7C00
7800
7800
F800
F800
F800
ENDCHAR
STARTCHAR uni1E55
ENCODING 7765
SWIDTH 681 0
DWIDTH 17 0
BBX 17 22 1 -5
BITMAP
003C00
007000
01C000
000000
0F8F00
1F3F80
1F7F80
1F6F80
1ECF80
1F8F80
3F0F00
3E1F00
3E3E00
3C7C00
3FF800
7FF000
7FC000
7C0000
7C0000
780000
F80000
F80000
ENDCHAR
STARTCHAR uni1E56
ENCODING 7766
SWIDTH 645 0
DWIDTH 16 0
BBX 16 22 2 0
BITMAP
00E0
01E0
01C0
0000
1FFC
1FFE
1FFF
1E1F
1E1F
3E1F
3E1E
3E7E
3FFC
3FF8
7FE0
7C00
7C00
7800
7800
F800
F800
F800
ENDCHAR
STARTCHAR uni1E57
ENCODING 7767
SWIDTH 681 0
DWIDTH 17 0
BBX 17 22 1 -5
BITMAP
007000
00F000
00E000
000000
0F8F00
1F3F80
1F7F80
1F6F80
1ECF80
1F8F80
3F0F00
3E1F00
3E3E00
3C7C00
3FF800
7FF000
7FC000
7C0000
7C0000
780000
F80000
F80000
ENDCHAR
STARTCHAR uni1E58
ENCODING 7768
SWIDTH 708 0
DWIDTH 18 0
BBX 16 22 2 0
BITMAP
00E0
01E0
01C0
0000
1FFC
1FFF
1FFF
1E1F
1E1F
3E1F
3E3E
3C7C
3FF8
3FF0
7FF0
7CF0
7CF8
78F8
7878
F87C
F87C
F83E
ENDCHAR
STARTCHAR uni1E59
ENCODING 7769
SWIDTH 542 0
DWIDTH 14 0
BBX 14 17 2 0
BITMAP
01C0
03C0
0380
0000
1F1C
3E38
3E78
3EF8
3DC0
3F00
7E00
7E00
7C00
7C00
7800
F800
F800
ENDCHAR
STARTCHAR uni1E5A
ENCODING 7770
SWIDTH 708 0
DWIDTH 18 0
BBX 16 22 2 -4
BITMAP
1FFC
1FFF
1FFF
1E1F
1E1F
3E1F
3E3E
3C7C
3FF8
3FF0
7FF0
7CF0
7CF8
78F8
7878
F87C
F87C
F83E
0000
0380
0780
0700
ENDCHAR
STARTCHAR uni1E5B
ENCODING 7771
SWIDTH 542 0
DWIDTH 14 0
BBX 14 17 2 -4
BITMAP
1F1C
3E38
3E78
3EF8
3DC0
3F00
7E00
7E00
7C00
7C00
7800
F800
F800
0000
1C00
3C00
3800
ENDCHAR
STARTCHAR uni1E5C
ENCODING 7772
SWIDTH 708 0
DWIDTH 18 0
BBX 16 26 2 -4
BITMAP
0FF8
0FF8
0FF8
0000
1FFC
1FFF
1FFF
1E1F
1E1F
3E1F
3E3E
3C7C
3FF8
3FF0
7FF0
7CF0
7CF8
78F8
7878
F87C
F87C
F83E
0000
0380
0780
0700
ENDCHAR
STARTCHAR uni1E5D
ENCODING 7773
SWIDTH 542 0
DWIDTH 14 0
BBX 14 21 2 -4
BITMAP
1FF0
1FF0
1FF0
0000
1F1C
3E38
3E78
3EF8
3DC0
3F00
7E00
7E00
7C00
7C00
7800
F800
F800
0000
1C00
3C00
3800
ENDCHAR
STARTCHAR uni1E5E
ENCODING 7774
SWIDTH 708 0
DWIDTH 18 0
BBX 16 22 2 -4
BITMAP
1FFC
1FFF
1FFF
1E1F
1E1F
3E1F
3E3E
3C7C
3FF8
3FF0
7FF0
7CF0
7CF8
78F8
7878
F87C
F87C
F83E
0000
1FF0
1FF0
1FF0
ENDCHAR
STARTCHAR uni1E5F
ENCODING 7775
SWIDTH 542 0
DWIDTH 14 0
BBX 14 17 2 -4
BITMAP
1F1C
3E38
3E78
3EF8
3DC0
3F00
7E00
7E00
7C00
7C00
7800
F800
F800
0000
FF80
FF80
FF80
ENDCHAR
STARTCHAR uni1E60
ENCODING 7776
SWIDTH 639 0
DWIDTH 16 0
BBX 15 22 2 0
BITMAP
00E0
01E0
01C0
0000
01FC
07FE
1FFE
1F04
3E00
3E00
1F80
1FC0
0FE0
07F8
01F8
00FC
00FC
00FC
40F8
FFF0
FFE0
FF80
ENDCHAR
STARTCHAR uni1E61
ENCODING 7777
SWIDTH 527 0
DWIDTH 13 0
BBX 13 17 1 0
BITMAP
01C0
03C0
0380
0000
07F8
0FF8
1FF0
1F00
1E00
1F80
0FC0
03E0
01F0
41F0
FFE0
FFE0
7F80
ENDCHAR
STARTCHAR uni1E62
ENCODING 7778
SWIDTH 639 0
DWIDTH 16 0
BBX 15 22 2 -4
BITMAP
01FC
07FE
1FFE
1F04
3E00
3E00
1F80
1FC0
0FE0
07F8
01F8
00FC
00FC
00FC
40F8
FFF0
FFE0
FF80
0000
0380
0780
0700
ENDCHAR
STARTCHAR uni1E63
ENCODING 7779
SWIDTH 527 0
DWIDTH 13 0
BBX 13 17 1 -4
BITMAP
07F8
0FF8
1FF0
1F00
1E00
1F80
0FC0
03E0
01F0
41F0
FFE0
FFE0
7F80
0000
0700
0F00
0E00
ENDCHAR
STARTCHAR uni1E64
ENCODING 7780
SWIDTH 639 0
DWIDTH 16 0
BBX 15 26 2 0
BITMAP
00E0
01E0
01C0
0000
0078
00E0
0380
0000
01FC
07FE
1FFE
1F04
3E00
3E00
1F80
1FC0
0FE0
07F8
01F8
00FC
00FC
00FC
40F8
FFF0
FFE0
FF80
ENDCHAR
STARTCHAR uni1E65
ENCODING 7781
SWIDTH 527 0
DWIDTH 13 0
BBX 13 21 1 0
BITMAP
01C0
03C0
0380
0000
00F0
01C0
0700
0000
07F8
0FF8
1FF0
1F00
1E00
1F80
0FC0
03E0
01F0
41F0
FFE0
FFE0
7F80
ENDCHAR
STARTCHAR uni1E66
ENCODING 7782
SWIDTH 639 0
DWIDTH 16 0
BBX 15 26 2 0
BITMAP
0070
00F0
00E0
0000
038E
01F8
00F0
0000
01FC
07FE
1FFE
1F04
3E00
3E00
1F80
1FC0
0FE0
07F8
01F8
00FC
00FC
00FC
40F8
FFF0
FFE0
FF80
ENDCHAR
STARTCHAR uni1E67
ENCODING 7783
SWIDTH 527 0
DWIDTH 13 0
BBX 14 21 1 0
BITMAP
00E0
01E0
01C0
0000
071C
03F0
01E0
0000
07F8
0FF8
1FF0
1F00
1E00
1F80
0FC0
03E0
01F0
41F0
FFE0
FFE0
7F80
ENDCHAR
STARTCHAR uni1E68
ENCODING 7784
SWIDTH 639 0
DWIDTH 16 0
BBX 15 26 2 -4
BITMAP
01C0
03C0
0380
0000
01FC
07FE
1FFE
1F04
3E00
3E00
1F80
1FC0
0FE0
07F8
01F8
00FC
00FC
00FC
40F8
FFF0
FFE0
FF80
0000
0380
0780
0700
ENDCHAR
STARTCHAR uni1E69
ENCODING 7785
SWIDTH 527 0
DWIDTH 13 0
BBX 13 21 1 -4
BITMAP
01C0
03C0
0380
0000
07F8
0FF8
1FF0
1F00
1E00
1F80
0FC0
03E0
01F0
41F0
FFE0
FFE0
7F80
0000
0700
0F00
0E00
ENDCHAR
STARTCHAR uni1E6A
ENCODING 7786
SWIDTH 747 0
DWIDTH 19 0
BBX 19 22 3 0
BITMAP
007000
00F000
00E000
000000
FFFFE0
FFFFE0
FFFFE0
01F000
03E000
03E000
03E000
03E000
03E000
07C000
07C000
07C000
07C000
07C000
0F8000
0F8000
0F8000
0F8000
ENDCHAR
STARTCHAR uni1E6B
ENCODING 7787
SWIDTH 437 0
DWIDTH 11 0
BBX 9 21 3 0
BITMAP
0E00
1E00
1C00
0000
0600
3E00
3E00
3E00
FF80
FF80
FF80
7C00
7C00
7C00
7C00
7800
F800
F800
FF00
FE00
7E00
ENDCHAR
STARTCHAR uni1E6C
ENCODING 7788
SWIDTH 747 0
DWIDTH 19 0
BBX 19 22 3 -4
BITMAP
FFFFE0
FFFFE0
FFFFE0
01F000
03E000
03E000
03E000
03E000
03E000
07C000
07C000
07C000
07C000
07C000
0F8000
0F8000
0F8000
0F8000
000000
038000
078000
070000
ENDCHAR
STARTCHAR uni1E6D
ENCODING 7789
SWIDTH 437 0
DWIDTH 11 0
BBX 9 21 3 -4
BITMAP
0600
3E00
3E00
3E00
FF80
FF80
FF80
7C00
7C00
7C00
7C00
7800
F800
F800
FF00
FE00
7E00
0000
3800
7800
7000
ENDCHAR
STARTCHAR uni1E6E
ENCODING 7790
SWIDTH 747 0
DWIDTH 19 0
BBX 19 22 3 -4
BITMAP
FFFFE0
FFFFE0
FFFFE0
01F000
03E000
03E000
03E000
03E000
03E000
07C000
07C000
07C000
07C000
07C000
0F8000
0F8000
0F8000
0F8000
000000
1FF000
1FF000
1FF000
ENDCHAR
STARTCHAR uni1E6F
ENCODING 7791
SWIDTH 437 0
DWIDTH 11 0
BBX 10 21 2 -4
BITMAP
0300
1F00
1F00
1F00
7FC0
7FC0
7FC0
3E00
3E00
3E00
3E00
3C00
7C00
7C00
7F80
7F00
3F00
0000
FF80
FF80
FF80
ENDCHAR
STARTCHAR uni1E70
ENCODING 7792
SWIDTH 747 0
DWIDTH 19 0
BBX 19 22 3 -4
BITMAP
FFFFE0
FFFFE0
FFFFE0
01F000
03E000
03E000
03E000
03E000
03E000
07C000
07C000
07C000
07C000
07C000
0F8000
0F8000
0F8000
0F8000
000000
03C000
07E000
1C7000
ENDCHAR
STARTCHAR uni1E71
ENCODING 7793
SWIDTH 437 0
DWIDTH 11 0
BBX 10 21 2 -4
BITMAP
0300
1F00
1F00
1F00
7FC0
7FC0
7FC0
3E00
3E00
3E00
3E00
3C00
7C00
7C00
7F80
7F00
3F00
0000
1E00
3F00
E380
ENDCHAR
STARTCHAR uni1E72
ENCODING 7794
SWIDTH 759 0
DWIDTH 19 0
BBX 18 22 3 -4
BITMAP
3E03C0
3E07C0
3E0780
3E0780
3C0780
7C0780
7C0F80
7C0F00
780F00
F80F00
F80F00
F81F00
F81E00
F81E00
FC3C00
7FFC00
3FF800
0FE000
000000
0E7000
1C7000
1CE000
ENDCHAR
STARTCHAR uni1E73
ENCODING 7795
SWIDTH 675 0
DWIDTH 17 0
BBX 15 17 3 -4
BITMAP
3E3E
3C3E
7C3C
7C3C
7C7C
7C7C
78FC
F9F8
FB78
FF78
FEF8
FCF8
70F0
0000
1CE0
38E0
39C0
ENDCHAR
STARTCHAR uni1E74
ENCODING 7796
SWIDTH 759 0
DWIDTH 19 0
BBX 18 22 3 -4
BITMAP
3E03C0
3E07C0
3E0780
3E0780
3C0780
7C0780
7C0F80
7C0F00
780F00
F80F00
F80F00
F81F00
F81E00
F81E00
FC3C00
7FFC00
3FF800
0FE000
000000
0F7000
1FE000
3BC000
ENDCHAR
STARTCHAR uni1E75
ENCODING 7797
SWIDTH 675 0
DWIDTH 17 0
BBX 15 17 3 -4
BITMAP
3E3E
3C3E
7C3C
7C3C
7C7C
7C7C
78FC
F9F8
FB78
FF78
FEF8
FCF8
70F0
0000
1EE0
3FC0
7780
ENDCHAR
STARTCHAR uni1E76
ENCODING 7798
SWIDTH 759 0
DWIDTH 19 0
BBX 18 22 3 -4
BITMAP
3E03C0
3E07C0
3E0780
3E0780
3C0780
7C0780
7C0F80
7C0F00
780F00
F80F00
F80F00
F81F00
F81E00
F81E00
FC3C00
7FFC00
3FF800
0FE000
000000
03C000
07E000
1C7000
ENDCHAR
STARTCHAR uni1E77
ENCODING 7799
SWIDTH 675 0
DWIDTH 17 0
BBX 15 17 3 -4
BITMAP
3E3E
3C3E
7C3C
7C3C
7C7C
7C7C
78FC
F9F8
FB78
FF78
FEF8
FCF8
70F0
0000
0780
0FC0
38E0
ENDCHAR
STARTCHAR uni1E78
ENCODING 7800
SWIDTH 759 0
DWIDTH 19 0
BBX 18 26 3 0
BITMAP
003C00
007000
01C000
000000
01EE00
03FC00
077800
000000
3E03C0
3E07C0
3E0780
3E0780
3C0780
7C0780
7C0F80
7C0F00
780F00
F80F00
F80F00
F81F00
F81E00
F81E00
FC3C00
7FFC00
3FF800
0FE000
ENDCHAR
STARTCHAR uni1E79
ENCODING 7801
SWIDTH 675 0
DWIDTH 17 0
BBX 15 21 3 0
BITMAP
0078
00E0
0380
0000
07B8
0FF0
1DE0
0000
3E3E
3C3E
7C3C
7C3C
7C7C
7C7C
78FC
F9F8
FB78
FF78
FEF8
FCF8
70F0
ENDCHAR
STARTCHAR uni1E7A
ENCODING 7802
SWIDTH 759 0
DWIDTH 19 0
BBX 18 26 3 0
BITMAP
039C00
071C00
073800
000000
07FC00
07FC00
07FC00
000000
3E03C0
3E07C0
3E0780
3E0780
3C0780
7C0780
7C0F80
7C0F00
780F00
F80F00
F80F00
F81F00
F81E00
F81E00
FC3C00
7FFC00
3FF800
0FE000
ENDCHAR
STARTCHAR uni1E7B
ENCODING 7803
SWIDTH 675 0
DWIDTH 17 0
BBX 15 21 3 0
BITMAP
0738
0E38
0E70
0000
1FF0
1FF0
1FF0
0000
3E3E
3C3E
7C3C
7C3C
7C7C
7C7C
78FC
F9F8
FB78
FF78
FEF8
FCF8
70F0
ENDCHAR
STARTCHAR uni1E7C
ENCODING 7804
SWIDTH 765 0
DWIDTH 19 0
BBX 18 22 4 0
BITMAP
03DC00
07F800
0EF000
000000
F803C0
F80380
F80780
7C0700
7C0E00
7C1E00
7C1C00
7C3C00
7C3800
3E7800
3E7000
3EF000
3EE000
3FC000
1FC000
1F8000
1F8000
1F0000
ENDCHAR
STARTCHAR uni1E7D
ENCODING 7805
SWIDTH 630 0
DWIDTH 16 0
BBX 15 17 3 0
BITMAP
07B8
0FF0
1DE0
0000
F81E
F81C
F83C
7878
7C70
7CF0
7CE0
7DE0
3FC0
3F80
3F80
3F00
3F00
ENDCHAR
STARTCHAR uni1E7E
ENCODING 7806
SWIDTH 765 0
DWIDTH 19 0
BBX 18 22 4 -4
BITMAP
F803C0
F80380
F80780
7C0700
7C0E00
7C1E00
7C1C00
7C3C00
7C3800
3E7800
3E7000
3EF000
3EE000
3FC000
1FC000
1F8000
1F8000
1F0000
000000
038000
078000
070000
ENDCHAR
STARTCHAR uni1E7F
ENCODING 7807
SWIDTH 630 0
DWIDTH 16 0
BBX 15 17 3 -4
BITMAP
F81E
F81C
F83C
7878
7C70
7CF0
7CE0
7DE0
3FC0
3F80
3F80
3F00
3F00
0000
0700
0F00
0E00
ENDCHAR
STARTCHAR Wgrave
ENCODING 7808
SWIDTH 991 0
DWIDTH 25 0
BBX 23 22 4 0
BITMAP
01E000
007000
003800
000000
F03C1E
F07C1C
F07C3C
F87C38
F8FC78
F8FC70
F9FC70
F9FCE0
FBBCE0
FBBDE0
FBBDC0
7F3FC0
7F3F80
7E3F80
7E3F00
7C3F00
7C3E00
7C3E00
ENDCHAR
STARTCHAR wgrave
ENCODING 7809
SWIDTH 878 0
DWIDTH 22 0
BBX 21 17 3 0
BITMAP
03C000
00E000
007000
000000
F07878
F0F870
F0F8F0
F1F8E0
F3F9E0
F3F9C0
F7FBC0
FF7B80
FE7F80
FE7F00
FC3E00
FC3E00
783C00
ENDCHAR
STARTCHAR Wacute
ENCODING 7810
SWIDTH 991 0
DWIDTH 25 0
BBX 23 22 4 0
BITMAP
000F00
001C00
007000
000000
F03C1E
F07C1C
F07C3C
F87C38
F8FC78
F8FC70
F9FC70
F9FCE0
FBBCE0
FBBDE0
FBBDC0
7F3FC0
7F3F80
7E3F80
7E3F00
7C3F00
7C3E00
7C3E00
ENDCHAR
STARTCHAR wacute
ENCODING 7811
SWIDTH 878 0
DWIDTH 22 0
BBX 21 17 3 0
BITMAP
001E00
003800
00E000
000000
F07878
F0F870
F0F8F0
F1F8E0
F3F9E0
F3F9C0
F7FBC0
FF7B80
FE7F80
FE7F00
FC3E00
FC3E00
783C00
ENDCHAR
STARTCHAR Wdieresis
ENCODING 7812
SWIDTH 991 0
DWIDTH 25 0
BBX 23 22 4 0
BITMAP
00E700
01C700
01CE00
000000
F03C1E
F07C1C
F07C3C
F87C38
F8FC78
F8FC70
F9FC70
F9FCE0
FBBCE0
FBBDE0
FBBDC0
7F3FC0
7F3F80
7E3F80
7E3F00
7C3F00
7C3E00
7C3E00
ENDCHAR
STARTCHAR wdieresis
ENCODING 7813
SWIDTH 878 0
DWIDTH 22 0
BBX 21 17 3 0
BITMAP
01CE00
038E00
039C00
000000
F07878
F0F870
F0F8F0
F1F8E0
F3F9E0
F3F9C0
F7FBC0
FF7B80
FE7F80
FE7F00
FC3E00
FC3E00
783C00
ENDCHAR
STARTCHAR uni1E86
ENCODING 7814
SWIDTH 991 0
DWIDTH 25 0
BBX 23 22 4 0
BITMAP
003800
007800
007000
000000
F03C1E
F07C1C
F07C3C
F87C38
F8FC78
F8FC70
F9FC70
F9FCE0
FBBCE0
FBBDE0
FBBDC0
7F3FC0
7F3F80
7E3F80
7E3F00
7C3F00
7C3E00
7C3E00
ENDCHAR
STARTCHAR uni1E87
ENCODING 7815
SWIDTH 878 0
DWIDTH 22 0
BBX 21 17 3 0
BITMAP
007000
00F000
00E000
000000
F07878
F0F870
F0F8F0
F1F8E0
F3F9E0
F3F9C0
F7FBC0
FF7B80
FE7F80
FE7F00
FC3E00
FC3E00
783C00
ENDCHAR
STARTCHAR uni1E88
ENCODING 7816
SWIDTH 991 0
DWIDTH 25 0
BBX 23 22 4 -4
BITMAP
F03C1E
F07C1C
F07C3C
F87C38
F8FC78
F8FC70
F9FC70
F9FCE0
FBBCE0
FBBDE0
FBBDC0
7F3FC0
7F3F80
7E3F80
7E3F00
7C3F00
7C3E00
7C3E00
000000
00E000
01E000
01C000
ENDCHAR
STARTCHAR uni1E89
ENCODING 7817
SWIDTH 878 0
DWIDTH 22 0
BBX 21 17 3 -4
BITMAP
F07878
F0F870
F0F8F0
F1F8E0
F3F9E0
F3F9C0
F7FBC0
FF7B80
FE7F80
FE7F00
FC3E00
FC3E00
783C00
000000
01C000
03C000
038000
ENDCHAR
STARTCHAR uni1E8A
ENCODING 7818
SWIDTH 696 0
DWIDTH 17 0
BBX 20 22 0 0
BITMAP
003800
007800
007000
000000
0F80F0
07C1E0
07C3C0
07E780
03EF00
03FE00
01FC00
01FC00
01F800
01F800
03F800
03FC00
07FC00
0F7E00
1E3E00
3C3E00
781F00
F01F00
ENDCHAR
STARTCHAR uni1E8B
ENCODING 7819
SWIDTH 563 0
DWIDTH 14 0
BBX 16 17 0 0
BITMAP
00E0
01E0
01C0
0000
1F0F
0F9E
0FBC
0FF8
07F0
07E0
03E0
07E0
0FF0
1FF0
3DF0
78F8
F0F8
ENDCHAR
STARTCHAR uni1E8C
ENCODING 7820
SWIDTH 696 0
DWIDTH 17 0
BBX 20 22 0 0
BITMAP
00E700
01C700
01CE00
000000
0F80F0
07C1E0
07C3C0
07E780
03EF00
03FE00
01FC00
01FC00
01F800
01F800
03F800
03FC00
07FC00
0F7E00
1E3E00
3C3E00
781F00
F01F00
ENDCHAR
STARTCHAR uni1E8D
ENCODING 7821
SWIDTH 563 0
DWIDTH 14 0
BBX 16 17 0 0
BITMAP
039C
071C
0738
0000
1F0F
0F9E
0FBC
0FF8
07F0
07E0
03E0
07E0
0FF0
1FF0
3DF0
78F8
F0F8
ENDCHAR
STARTCHAR uni1E8E
ENCODING 7822
SWIDTH 681 0
DWIDTH 17 0
BBX 16 22 4 0
BITMAP
01C0
03C0
0380
0000
F80F
781E
7C3C
7C38
3C78
3EF0
3FE0
1FC0
1F80
1F80
1F00
1F00
1F00
1F00
1F00
3E00
3E00
3E00
ENDCHAR
STARTCHAR uni1E8F
ENCODING 7823
SWIDTH 633 0
DWIDTH 16 0
BBX 17 22 1 -5
BITMAP
00E000
01E000
01C000
000000
3E0780
3E0F00
3E0E00
1E1E00
1F3C00
1F3800
1F7800
1FF000
0FE000
0FE000
0FC000
0F8000
0F8000
0F0000
1E0000
3E0000
7C0000
F80000
ENDCHAR
STARTCHAR uni1E90
ENCODING 7824
SWIDTH 687 0
DWIDTH 17 0
BBX 17 22 2 0
BITMAP
007800
00FC00
038E00
000000
0FFF80
0FFF80
0FFF80
003F00
007E00
00FC00
00FC00
01F800
03F000
07E000
0FC000
1F8000
1F8000
3F0000
7E0000
7FFC00
FFFC00
FFFC00
ENDCHAR
STARTCHAR uni1E91
ENCODING 7825
SWIDTH 630 0
DWIDTH 16 0
BBX 15 17 1 0
BITMAP
01E0
03F0
0E38
0000
1FFE
1FFE
3FFC
00FC
01F8
03E0
07C0
0F80
3F00
7E00
7FFC
FFF8
FFF8
ENDCHAR
STARTCHAR uni1E92
ENCODING 7826
SWIDTH 687 0
DWIDTH 17 0
BBX 17 22 2 -4
BITMAP
0FFF80
0FFF80
0FFF80
003F00
007E00
00FC00
00FC00
01F800
03F000
07E000
0FC000
1F8000
1F8000
3F0000
7E0000
7FFC00
FFFC00
FFFC00
000000
038000
078000
070000
ENDCHAR
STARTCHAR uni1E93
ENCODING 7827
SWIDTH 630 0
DWIDTH 16 0
BBX 15 17 1 -4
BITMAP
1FFE
1FFE
3FFC
00FC
01F8
03E0
07C0
0F80
3F00
7E00
7FFC
FFF8
FFF8
0000
0700
0F00
0E00
ENDCHAR
STARTCHAR uni1E94
ENCODING 7828
SWIDTH 687 0
DWIDTH 17 0
BBX 17 22 2 -4
BITMAP
0FFF80
0FFF80
0FFF80
003F00
007E00
00FC00
00FC00
01F800
03F000
07E000
0FC000
1F8000
1F8000
3F0000
7E0000
7FFC00
FFFC00
FFFC00
000000
1FF000
1FF000
1FF000
ENDCHAR
STARTCHAR uni1E95
ENCODING 7829
SWIDTH 630 0
DWIDTH 16 0
BBX 15 17 1 -4
BITMAP
1FFE
1FFE
3FFC
00FC
01F8
03E0
07C0
0F80
3F00
7E00
7FFC
FFF8
FFF8
0000
3FE0
3FE0
3FE0
ENDCHAR
STARTCHAR uni1E96
ENCODING 7830
SWIDTH 675 0
DWIDTH 17 0
BBX 15 23 2 -4
BITMAP
0F00
1F00
1F00
1F00
1F00
1E00
3E1C
3E7E
3EFE
3CFE
3DBE
7F3E
7E3C
7C7C
7C7C
787C
F87C
F8F8
F8F8
0000
1FF0
1FF0
1FF0
ENDCHAR
STARTCHAR uni1E97
ENCODING 7831
SWIDTH 437 0
DWIDTH 11 0
BBX 9 21 3 0
BITMAP
7380
E380
E700
0000
0600
3E00
3E00
3E00
FF80
FF80
FF80
7C00
7C00
7C00
7C00
7800
F800
F800
FF00
FE00
7E00
ENDCHAR
STARTCHAR uni1E98
ENCODING 7832
SWIDTH 878 0
DWIDTH 22 0
BBX 21 18 3 0
BITMAP
006000
009000
009000
006000
000000
F07878
F0F870
F0F8F0
F1F8E0
F3F9E0
F3F9C0
F7FBC0
FF7B80
FE7F80
FE7F00
FC3E00
FC3E00
783C00
ENDCHAR
STARTCHAR uni1E99
ENCODING 7833
SWIDTH 633 0
DWIDTH 16 0
BBX 17 23 1 -5
BITMAP
00C000
012000
012000
00C000
000000
3E0780
3E0F00
3E0E00
1E1E00
1F3C00
1F3800
1F7800
1FF000
0FE000
0FE000
0FC000
0F8000
0F8000
0F0000
1E0000
3E0000
7C0000
F80000
ENDCHAR
STARTCHAR uni1EA0
ENCODING 7840
SWIDTH 771 0
DWIDTH 19 0
BBX 18 22 1 -4
BITMAP
003E00
007E00
007E00
00FE00
01FE00
01DF00
03DF00
039F00
078F00
070F00
0F0F80
0FFF80
1FFF80
1FFF80
380780
3807C0
7007C0
F007C0
000000
00E000
01E000
01C000
ENDCHAR
STARTCHAR uni1EA1
ENCODING 7841
SWIDTH 681 0
DWIDTH 17 0
BBX 16 17 2 -4
BITMAP
01FF
07FF
0FFE
1F1E
3E3E
7C3E
787E
F8FC
F9BC
FB7C
FF7C
FE7C
78F8
0000
0380
0780
0700
ENDCHAR
STARTCHAR uni1EA4
ENCODING 7844
SWIDTH 771 0
DWIDTH 19 0
BBX 18 26 1 0
BITMAP
000F00
001C00
007000
000000
001E00
003F00
00E380
000000
003E00
007E00
007E00
00FE00
01FE00
01DF00
03DF00
039F00
078F00
070F00
0F0F80
0FFF80
1FFF80
1FFF80
380780
3807C0
7007C0
F007C0
ENDCHAR
STARTCHAR uni1EA5
ENCODING 7845
SWIDTH 681 0
DWIDTH 17 0
BBX 16 21 2 0
BITMAP
001E
0038
00E0
0000
0078
00FC
038E
0000
01FF
07FF
0FFE
1F1E
3E3E
7C3E
787E
F8FC
F9BC
FB7C
FF7C
FE7C
78F8
ENDCHAR
STARTCHAR uni1EA6
ENCODING 7846
SWIDTH 771 0
DWIDTH 19 0
BBX 18 26 1 0
BITMAP
01E000
007000
003800
000000
001E00
003F00
00E380
000000
003E00
007E00
007E00
00FE00
01FE00
01DF00
03DF00
039F00
078F00
070F00
0F0F80
0FFF80
1FFF80
1FFF80
380780
3807C0
7007C0
F007C0
ENDCHAR
STARTCHAR uni1EA7
ENCODING 7847
SWIDTH 681 0
DWIDTH 17 0
BBX 16 21 2 0
BITMAP
03C0
00E0
0070
0000
0078
00FC
038E
0000
01FF
07FF
0FFE
1F1E
3E3E
7C3E
787E
F8FC
F9BC
FB7C
FF7C
FE7C
78F8
ENDCHAR
STARTCHAR uni1EAA
ENCODING 7850
SWIDTH 771 0
DWIDTH 19 0
BBX 18 26 1 0
BITMAP
007B80
00FF00
01DE00
000000
001E00
003F00
00E380
000000
003E00
007E00
007E00
00FE00
01FE00
01DF00
03DF00
039F00
078F00
070F00
0F0F80
0FFF80
1FFF80
1FFF80
380780
3807C0
7007C0
F007C0
ENDCHAR
STARTCHAR uni1EAB
ENCODING 7851
SWIDTH 681 0
DWIDTH 17 0
BBX 16 21 2 0
BITMAP
00F7
01FE
03BC
0000
0078
00FC
038E
0000
01FF
07FF
0FFE
1F1E
3E3E
7C3E
787E
F8FC
F9BC
FB7C
FF7C
FE7C
78F8
ENDCHAR
STARTCHAR uni1EAC
ENCODING 7852
SWIDTH 771 0
DWIDTH 19 0
BBX 18 26 1 -4
BITMAP
007800
00FC00
038E00
000000
003E00
007E00
007E00
00FE00
01FE00
01DF00
03DF00
039F00
078F00
070F00
0F0F80
0FFF80
1FFF80
1FFF80
380780
3807C0
7007C0
F007C0
000000
00E000
01E000
01C000
ENDCHAR
STARTCHAR uni1EAD
ENCODING 7853
SWIDTH 681 0
DWIDTH 17 0
BBX 16 21 2 -4
BITMAP
00F0
01F8
071C
0000
01FF
07FF
0FFE
1F1E
3E3E
7C3E
787E
F8FC
F9BC
FB7C
FF7C
FE7C
78F8
0000
0380
0780
0700
ENDCHAR
STARTCHAR uni1EAE
ENCODING 7854
SWIDTH 771 0
DWIDTH 19 0
BBX 18 26 1 0
BITMAP
001E00
003800
00E000
000000
01C700
01FE00
00F800
000000
003E00
007E00
007E00
00FE00
01FE00
01DF00
03DF00
039F00
078F00
070F00
0F0F80
0FFF80
1FFF80
1FFF80
380780
3807C0
7007C0
F007C0
ENDCHAR
STARTCHAR uni1EAF
ENCODING 7855
SWIDTH 681 0
DWIDTH 17 0
BBX 16 21 2 0
BITMAP
001E
0038
00E0
0000
038E
03FC
01F0
0000
01FF
07FF
0FFE
1F1E
3E3E
7C3E
787E
F8FC
F9BC
FB7C
FF7C
FE7C
78F8
ENDCHAR
STARTCHAR uni1EB0
ENCODING 7856
SWIDTH 771 0
DWIDTH 19 0
BBX 18 26 1 0
BITMAP
01E000
007000
003800
000000
01C700
01FE00
00F800
000000
003E00
007E00
007E00
00FE00
01FE00
01DF00
03DF00
039F00
078F00
070F00
0F0F80
0FFF80
1FFF80
1FFF80
380780
3807C0
7007C0
F007C0
ENDCHAR
STARTCHAR uni1EB1
ENCODING 7857
SWIDTH 681 0
DWIDTH 17 0
BBX 16 21 2 0
BITMAP
03C0
00E0
0070
0000
038E
03FC
01F0
0000
01FF
07FF
0FFE
1F1E
3E3E
7C3E
787E
F8FC
F9BC
FB7C
FF7C
FE7C
78F8
ENDCHAR
STARTCHAR uni1EB4
ENCODING 7860
SWIDTH 771 0
DWIDTH 19 0
BBX 18 26 1 0
BITMAP
00F700
01FE00
03BC00
000000
01C700
01FE00
00F800
000000
003E00
007E00
007E00
00FE00
01FE00
01DF00
03DF00
039F00
078F00
070F00
0F0F80
0FFF80
1FFF80
1FFF80
380780
3807C0
7007C0
F007C0
ENDCHAR
STARTCHAR uni1EB5
ENCODING 7861
SWIDTH 681 0
DWIDTH 17 0
BBX 16 21 2 0
BITMAP
01EE
03FC
0778
0000
038E
03FC
01F0
0000
01FF
07FF
0FFE
1F1E
3E3E
7C3E
787E
F8FC
F9BC
FB7C
FF7C
FE7C
78F8
ENDCHAR
STARTCHAR uni1EB6
ENCODING 7862
SWIDTH 771 0
DWIDTH 19 0
BBX 18 26 1 -4
BITMAP
01C700
01FE00
00F800
000000
003E00
007E00
007E00
00FE00
01FE00
01DF00
03DF00
039F00
078F00
070F00
0F0F80
0FFF80
1FFF80
1FFF80
380780
3807C0
7007C0
F007C0
000000
00E000
01E000
01C000
ENDCHAR
STARTCHAR uni1EB7
ENCODING 7863
SWIDTH 681 0
DWIDTH 17 0
BBX 16 21 2 -4
BITMAP
071C
07F8
03E0
0000
01FF
07FF
0FFE
1F1E
3E3E
7C3E
787E
F8FC
F9BC
FB7C
FF7C
FE7C
78F8
0000
0380
0780
0700
ENDCHAR
STARTCHAR uni1EB8
ENCODING 7864
SWIDTH 642 0
DWIDTH 16 0
BBX 16 22 2 -4
BITMAP
0FFF
1FFF
1FFE
1F00
1F00
1E00
3E00
3FF8
3FF8
3FF8
3C00
7C00
7C00
7C00
7C00
7FFC
FFF8
FFF8
0000
0700
0F00
0E00
ENDCHAR
STARTCHAR uni1EB9
ENCODING 7865
SWIDTH 612 0
DWIDTH 15 0
BBX 13 17 2 -4
BITMAP
03E0
0FF0
1FF8
3CF8
78F0
7FF0
FFC0
FF00
F808
F838
FFF8
7FF0
1F80
0000
0700
0F00
0E00
ENDCHAR
STARTCHAR uni1EBC
ENCODING 7868
SWIDTH 642 0
DWIDTH 16 0
BBX 16 22 2 0
BITMAP
03DC
07F8
0EF0
0000
0FFF
1FFF
1FFE
1F00
1F00
1E00
3E00
3FF8
3FF8
3FF8
3C00
7C00
7C00
7C00
7C00
7FFC
FFF8
FFF8
ENDCHAR
STARTCHAR uni1EBD
ENCODING 7869
SWIDTH 612 0
DWIDTH 15 0
BBX 13 17 2 0
BITMAP
07B8
0FF0
1DE0
0000
03E0
0FF0
1FF8
3CF8
78F0
7FF0
FFC0
FF00
F808
F838
FFF8
7FF0
1F80
ENDCHAR
STARTCHAR uni1EBE
ENCODING 7870
SWIDTH 642 0
DWIDTH 16 0
BBX 16 26 2 0
BITMAP
003C
0070
01C0
0000
00F0
01F8
071C
0000
0FFF
1FFF
1FFE
1F00
1F00
1E00
3E00
3FF8
3FF8
3FF8
3C00
7C00
7C00
7C00
7C00
7FFC
FFF8
FFF8
ENDCHAR
STARTCHAR uni1EBF
ENCODING 7871
SWIDTH 612 0
DWIDTH 15 0
BBX 14 21 2 0
BITMAP
003C
0070
01C0
0000
00F0
01F8
071C
0000
03E0
0FF0
1FF8
3CF8
78F0
7FF0
FFC0
FF00
F808
F838
FFF8
7FF0
1F80
ENDCHAR
STARTCHAR uni1EC0
ENCODING 7872
SWIDTH 642 0
DWIDTH 16 0
BBX 16 26 2 0
BITMAP
0780
01C0
00E0
0000
00F0
01F8
071C
0000
0FFF
1FFF
1FFE
1F00
1F00
1E00
3E00
3FF8
3FF8
3FF8
3C00
7C00
7C00
7C00
7C00
7FFC
FFF8
FFF8
ENDCHAR
STARTCHAR uni1EC1
ENCODING 7873
SWIDTH 612 0
DWIDTH 15 0
BBX 14 21 2 0
BITMAP
0780
01C0
00E0
0000
00F0
01F8
071C
0000
03E0
0FF0
1FF8
3CF8
78F0
7FF0
FFC0
FF00
F808
F838
FFF8
7FF0
1F80
ENDCHAR
STARTCHAR uni1EC4
ENCODING 7876
SWIDTH 642 0
DWIDTH 16 0
BBX 16 26 2 0
BITMAP
01EE
03FC
0778
0000
00F0
01F8
071C
0000
0FFF
1FFF
1FFE
1F00
1F00
1E00
3E00
3FF8
3FF8
3FF8
3C00
7C00
7C00
7C00
7C00
7FFC
FFF8
FFF8
ENDCHAR
STARTCHAR uni1EC5
ENCODING 7877
SWIDTH 612 0
DWIDTH 15 0
BBX 14 21 2 0
BITMAP
03DC
07F8
0EF0
0000
00F0
01F8
071C
0000
03E0
0FF0
1FF8
3CF8
78F0
7FF0
FFC0
FF00
F808
F838
FFF8
7FF0
1F80
ENDCHAR
STARTCHAR uni1EC6
ENCODING 7878
SWIDTH 642 0
DWIDTH 16 0
BBX 16 26 2 -4
BITMAP
01E0
03F0
0E38
0000
0FFF
1FFF
1FFE
1F00
1F00
1E00
3E00
3FF8
3FF8
3FF8
3C00
7C00
7C00
7C00
7C00
7FFC
FFF8
FFF8
0000
0700
0F00
0E00
ENDCHAR
STARTCHAR uni1EC7
ENCODING 7879
SWIDTH 612 0
DWIDTH 15 0
BBX 13 21 2 -4
BITMAP
03C0
07E0
1C70
0000
03E0
0FF0
1FF8
3CF8
78F0
7FF0
FFC0
FF00
F808
F838
FFF8
7FF0
1F80
0000
0700
0F00
0E00
ENDCHAR
STARTCHAR uni1ECA
ENCODING 7882
SWIDTH 361 0
DWIDTH 9 0
BBX 8 22 2 -4
BITMAP
1F
1F
1F
1E
1E
3E
3E
3E
3C
3C
7C
7C
7C
78
78
F8
F8
F8
00
38
78
70
ENDCHAR
STARTCHAR uni1ECB
ENCODING 7883
SWIDTH 343 0
DWIDTH 9 0
BBX 9 23 2 -4
BITMAP
0F80
0F80
1F00
1F00
0000
0000
1F00
3E00
3E00
3E00
3E00
3E00
7C00
7C00
7C00
7C00
7800
F800
F800
0000
3800
7800
7000
ENDCHAR
STARTCHAR uni1ECC
ENCODING 7884
SWIDTH 855 0
DWIDTH 21 0
BBX 20 22 2 -4
BITMAP
007F00
03FFC0
07FFE0
0F87E0
1F03F0
3E01F0
7C01F0
7C01F0
F801F0
F801F0
F803E0
F803E0
F807C0
FC0F80
7E1F00
7FFE00
3FFC00
0FE000
000000
01C000
03C000
038000
ENDCHAR
STARTCHAR uni1ECD
ENCODING 7885
SWIDTH 663 0
DWIDTH 17 0
BBX 15 17 2 -4
BITMAP
01F8
0FFC
1FFE
3E3E
7C3E
783E
F83E
F83E
F87C
FCF8
FFF0
7FE0
1F80
0000
0700
0F00
0E00
ENDCHAR
STARTCHAR uni1ED0
ENCODING 7888
SWIDTH 855 0
DWIDTH 21 0
BBX 20 26 2 0
BITMAP
000F00
001C00
007000
000000
003C00
007E00
01C700
000000
007F00
03FFC0
07FFE0
0F87E0
1F03F0
3E01F0
7C01F0
7C01F0
F801F0
F801F0
F803E0
F803E0
F807C0
FC0F80
7E1F00
7FFE00
3FFC00
0FE000
ENDCHAR
STARTCHAR uni1ED1
ENCODING 7889
SWIDTH 663 0
DWIDTH 17 0
BBX 15 21 2 0
BITMAP
003C
0070
01C0
0000
00F0
01F8
071C
0000
01F8
0FFC
1FFE
3E3E
7C3E
783E
F83E
F83E
F87C
FCF8
FFF0
7FE0
1F80
ENDCHAR
STARTCHAR uni1ED2
ENCODING 7890
SWIDTH 855 0
DWIDTH 21 0
BBX 20 26 2 0
BITMAP
01E000
007000
003800
000000
003C00
007E00
01C700
000000
007F00
03FFC0
07FFE0
0F87E0
1F03F0
3E01F0
7C01F0
7C01F0
F801F0
F801F0
F803E0
F803E0
F807C0
FC0F80
7E1F00
7FFE00
3FFC00
0FE000
ENDCHAR
STARTCHAR uni1ED3
ENCODING 7891
SWIDTH 663 0
DWIDTH 17 0
BBX 15 21 2 0
BITMAP
0780
01C0
00E0
0000
00F0
01F8
071C
0000
01F8
0FFC
1FFE
3E3E
7C3E
783E
F83E
F83E
F87C
FCF8
FFF0
7FE0
1F80
ENDCHAR
STARTCHAR uni1ED6
ENCODING 7894
SWIDTH 855 0
DWIDTH 21 0
BBX 20 26 2 0
BITMAP
007B80
00FF00
01DE00
000000
003C00
007E00
01C700
000000
007F00
03FFC0
07FFE0
0F87E0
1F03F0
3E01F0
7C01F0
7C01F0
F801F0
F801F0
F803E0
F803E0
F807C0
FC0F80
7E1F00
7FFE00
3FFC00
0FE000
ENDCHAR
STARTCHAR uni1ED7
ENCODING 7895
SWIDTH 663 0
DWIDTH 17 0
BBX 15 21 2 0
BITMAP
01EE
03FC
0778
0000
00F0
01F8
071C
0000
01F8
0FFC
1FFE
3E3E
7C3E
783E
F83E
F83E
F87C
FCF8
FFF0
7FE0
1F80
ENDCHAR
STARTCHAR uni1ED8
ENCODING 7896
SWIDTH 855 0
DWIDTH 21 0
BBX 20 26 2 -4
BITMAP
003C00
007E00
01C700
000000
007F00
03FFC0
07FFE0
0F87E0
1F03F0
3E01F0
7C01F0
7C01F0
F801F0
F801F0
F803E0
F803E0
F807C0
FC0F80
7E1F00
7FFE00
3FFC00
0FE000
000000
01C000
03C000
038000
ENDCHAR
STARTCHAR uni1ED9
ENCODING 7897
SWIDTH 663 0
DWIDTH 17 0
BBX 15 21 2 -4
BITMAP
01E0
03F0
0E38
0000
01F8
0FFC
1FFE
3E3E
7C3E
783E
F83E
F83E
F87C
FCF8
FFF0
7FE0
1F80
0000
0700
0F00
0E00
ENDCHAR
STARTCHAR uni1EDA
ENCODING 7898
SWIDTH 855 0
DWIDTH 21 0
BBX 24 22 2 0
BITMAP
0001E0
000380
000E00
000000
007F1F
03FFDF
07FFFF
0F87FE
1F03FE
3E01FE
7C01FE
7C01FC
F801F8
F801F0
F803E0
F803E0
F807C0
FC0F80
7E1F00
7FFE00
3FFC00
0FE000
ENDCHAR
STARTCHAR uni1EDB
ENCODING 7899
SWIDTH 663 0
DWIDTH 17 0
BBX 20 17 2 0
BITMAP
000F00
001C00
007000
000000
01F9F0
0FFDF0
1FFFF0
3E3FE0
7C3FE0
783EE0
F83EE0
F83FC0
F87F80
FCF800
FFF000
7FE000
1F8000
ENDCHAR
STARTCHAR uni1EDC
ENCODING 7900
SWIDTH 855 0
DWIDTH 21 0
BBX 24 22 2 0
BITMAP
003C00
000E00
000700
000000
007F1F
03FFDF
07FFFF
0F87FE
1F03FE
3E01FE
7C01FE
7C01FC
F801F8
F801F0
F803E0
F803E0
F807C0
FC0F80
7E1F00
7FFE00
3FFC00
0FE000
ENDCHAR
STARTCHAR uni1EDD
ENCODING 7901
SWIDTH 663 0
DWIDTH 17 0
BBX 20 17 2 0
BITMAP
01E000
007000
003800
000000
01F9F0
0FFDF0
1FFFF0
3E3FE0
7C3FE0
783EE0
F83EE0
F83FC0
F87F80
FCF800
FFF000
7FE000
1F8000
ENDCHAR
STARTCHAR uni1EE0
ENCODING 7904
SWIDTH 855 0
DWIDTH 21 0
BBX 24 22 2 0
BITMAP
001EE0
003FC0
007780
000000
007F1F
03FFDF
07FFFF
0F87FE
1F03FE
3E01FE
7C01FE
7C01FC
F801F8
F801F0
F803E0
F803E0
F807C0
FC0F80
7E1F00
7FFE00
3FFC00
0FE000
ENDCHAR
STARTCHAR uni1EE1
ENCODING 7905
SWIDTH 663 0
DWIDTH 17 0
BBX 20 17 2 0
BITMAP
007B80
00FF00
01DE00
000000
01F9F0
0FFDF0
1FFFF0
3E3FE0
7C3FE0
783EE0
F83EE0
F83FC0
F87F80
FCF800
FFF000
7FE000
1F8000
ENDCHAR
STARTCHAR uni1EE2
ENCODING 7906
SWIDTH 855 0
DWIDTH 21 0
BBX 24 22 2 -4
BITMAP
007F1F
03FFDF
07FFFF
0F87FE
1F03FE
3E01FE
7C01FE
7C01FC
F801F8
F801F0
F803E0
F803E0
F807C0
FC0F80
7E1F00
7FFE00
3FFC00
0FE000
000000
00E000
01E000
01C000
ENDCHAR
STARTCHAR uni1EE3
ENCODING 7907
SWIDTH 663 0
DWIDTH 17 0
BBX 20 17 2 -4
BITMAP
01F9F0
0FFDF0
1FFFF0
3E3FE0
7C3FE0
783EE0
F83EE0
F83FC0
F87F80
FCF800
FFF000
7FE000
1F8000
000000
038000
078000
070000
ENDCHAR
STARTCHAR uni1EE4
ENCODING 7908
SWIDTH 759 0
DWIDTH 19 0
BBX 18 22 3 -4
BITMAP
3E03C0
3E07C0
3E0780
3E0780
3C0780
7C0780
7C0F80
7C0F00
780F00
F80F00
F80F00
F81F00
F81E00
F81E00
FC3C00
7FFC00
3FF800
0FE000
000000
01C000
03C000
038000
ENDCHAR
STARTCHAR uni1EE5
ENCODING 7909
SWIDTH 675 0
DWIDTH 17 0
BBX 15 17 3 -4
BITMAP
3E3E
3C3E
7C3C
7C3C
7C7C
7C7C
78FC
F9F8
FB78
FF78
FEF8
FCF8
70F0
0000
0700
0F00
0E00
ENDCHAR
STARTCHAR uni1EE8
ENCODING 7912
SWIDTH 759 0
DWIDTH 19 0
BBX 22 22 3 0
BITMAP
000780
000E00
003800
000000
3E03FC
3E07FC
3E07FC
3E07F8
3C07F8
7C07B8
7C0FB8
7C0FF0
780FE0
F80F00
F80F00
F81F00
F81E00
F81E00
FC3C00
7FFC00
3FF800
0FE000
ENDCHAR
STARTCHAR uni1EE9
ENCODING 7913
SWIDTH 675 0
DWIDTH 17 0
BBX 20 17 3 0
BITMAP
000F00
001C00
007000
000000
3E3FF0
3C3FF0
7C3DF0
7C3DE0
7C7DE0
7C7CE0
78FCE0
F9FBC0
FB7B80
FF7800
FEF800
FCF800
70F000
ENDCHAR
STARTCHAR uni1EEA
ENCODING 7914
SWIDTH 759 0
DWIDTH 19 0
BBX 22 22 3 0
BITMAP
00F000
003800
001C00
000000
3E03FC
3E07FC
3E07FC
3E07F8
3C07F8
7C07B8
7C0FB8
7C0FF0
780FE0
F80F00
F80F00
F81F00
F81E00
F81E00
FC3C00
7FFC00
3FF800
0FE000
ENDCHAR
STARTCHAR uni1EEB
ENCODING 7915
SWIDTH 675 0
DWIDTH 17 0
BBX 20 17 3 0
BITMAP
01E000
007000
003800
000000
3E3FF0
3C3FF0
7C3DF0
7C3DE0
7C7DE0
7C7CE0
78FCE0
F9FBC0
FB7B80
FF7800
FEF800
FCF800
70F000
ENDCHAR
STARTCHAR uni1EEE
ENCODING 7918
SWIDTH 759 0
DWIDTH 19 0
BBX 22 22 3 0
BITMAP
003DC0
007F80
00EF00
000000
3E03FC
3E07FC
3E07FC
3E07F8
3C07F8
7C07B8
7C0FB8
7C0FF0
780FE0
F80F00
F80F00
F81F00
F81E00
F81E00
FC3C00
7FFC00
3FF800
0FE000
ENDCHAR
STARTCHAR uni1EEF
ENCODING 7919
SWIDTH 675 0
DWIDTH 17 0
BBX 20 17 3 0
BITMAP
00F700
01FE00
03BC00
000000
3E3FF0
3C3FF0
7C3DF0
7C3DE0
7C7DE0
7C7CE0
78FCE0
F9FBC0
FB7B80
FF7800
FEF800
FCF800
70F000
ENDCHAR
STARTCHAR uni1EF0
ENCODING 7920
SWIDTH 759 0
DWIDTH 19 0
BBX 22 22 3 -4
BITMAP
3E03FC
3E07FC
3E07FC
3E07F8
3C07F8
7C07B8
7C0FB8
7C0FF0
780FE0
F80F00
F80F00
F81F00
F81E00
F81E00
FC3C00
7FFC00
3FF800
0FE000
000000
01C000
03C000
038000
ENDCHAR
STARTCHAR uni1EF1
ENCODING 7921
SWIDTH 675 0
DWIDTH 17 0
BBX 20 17 3 -4
BITMAP
3E3FF0
3C3FF0
7C3DF0
7C3DE0
7C7DE0
7C7CE0
78FCE0
F9FBC0
FB7B80
FF7800
FEF800
FCF800
70F000
000000
038000
078000
070000
ENDCHAR
STARTCHAR Ygrave
ENCODING 7922
SWIDTH 681 0
DWIDTH 17 0
BBX 16 22 4 0
BITMAP
0F00
0380
01C0
0000
F80F
781E
7C3C
7C38
3C78
3EF0
3FE0
1FC0
1F80
1F80
1F00
1F00
1F00
1F00
1F00
3E00
3E00
3E00
ENDCHAR
STARTCHAR ygrave
ENCODING 7923
SWIDTH 633 0
DWIDTH 16 0
BBX 17 22 1 -5
BITMAP
078000
01C000
00E000
000000
3E0780
3E0F00
3E0E00
1E1E00
1F3C00
1F3800
1F7800
1FF000
0FE000
0FE000
0FC000
0F8000
0F8000
0F0000
1E0000
3E0000
7C0000
F80000
ENDCHAR
STARTCHAR uni1EF4
ENCODING 7924
SWIDTH 681 0
DWIDTH 17 0
BBX 16 22 4 -4
BITMAP
F80F
781E
7C3C
7C38
3C78
3EF0
3FE0
1FC0
1F80
1F80
1F00
1F00
1F00
1F00
1F00
3E00
3E00
3E00
0000
0700
0F00
0E00
ENDCHAR
STARTCHAR uni1EF5
ENCODING 7925
SWIDTH 633 0
DWIDTH 16 0
BBX 17 22 1 -9
BITMAP
3E0780
3E0F00
3E0E00
1E1E00
1F3C00
1F3800
1F7800
1FF000
0FE000
0FE000
0FC000
0F8000
0F8000
0F0000
1E0000
3E0000
7C0000
F80000
000000
0E0000
1E0000
1C0000
ENDCHAR
STARTCHAR uni1EF8
ENCODING 7928
SWIDTH 681 0
DWIDTH 17 0
BBX 16 22 4 0
BITMAP
07B8
0FF0
1DE0
0000
F80F
781E
7C3C
7C38
3C78
3EF0
3FE0
1FC0
1F80
1F80
1F00
1F00
1F00
1F00
1F00
3E00
3E00
3E00
ENDCHAR
STARTCHAR uni1EF9
ENCODING 7929
SWIDTH 633 0
DWIDTH 16 0
BBX 17 22 1 -5
BITMAP
03DC00
07F800
0EF000
000000
3E0780
3E0F00
3E0E00
1E1E00
1F3C00
1F3800
1F7800
1FF000
0FE000
0FE000
0FC000
0F8000
0F8000
0F0000
1E0000
3E0000
7C0000
F80000
ENDCHAR
STARTCHAR uni2000
ENCODING 8192
SWIDTH 500 0
DWIDTH 13 0
BBX 1 1 0 0
BITMAP
00
ENDCHAR
STARTCHAR uni2001
ENCODING 8193
SWIDTH 1000 0
DWIDTH 25 0
BBX 1 1 0 0
BITMAP
00
ENDCHAR
STARTCHAR uni2002
ENCODING 8194
SWIDTH 500 0
DWIDTH 13 0
BBX 1 1 0 0
BITMAP
00
ENDCHAR
STARTCHAR uni2003
ENCODING 8195
SWIDTH 1000 0
DWIDTH 25 0
BBX 1 1 0 0
BITMAP
00
ENDCHAR
STARTCHAR uni2004
ENCODING 8196
SWIDTH 333 0
DWIDTH 8 0
BBX 1 1 0 0
BITMAP
00
ENDCHAR
STARTCHAR uni2005
ENCODING 8197
SWIDTH 250 0
DWIDTH 6 0
BBX 1 1 0 0
BITMAP
00
ENDCHAR
STARTCHAR uni2006
ENCODING 8198
SWIDTH 167 0
DWIDTH 4 0
BBX 1 1 0 0
BITMAP
00
ENDCHAR
STARTCHAR uni2007
ENCODING 8199
SWIDTH 687 0
DWIDTH 17 0
BBX 1 1 0 0
BITMAP
00
ENDCHAR
STARTCHAR uni2008
ENCODING 8200
SWIDTH 343 0
DWIDTH 9 0
BBX 1 1 0 0
BITMAP
00
ENDCHAR
STARTCHAR uni2009
ENCODING 8201
SWIDTH 200 0
DWIDTH 5 0
BBX 1 1 0 0
BITMAP
00
ENDCHAR
STARTCHAR uni200A
ENCODING 8202
SWIDTH 100 0
DWIDTH 3 0
BBX 1 1 0 0
BITMAP
00
ENDCHAR
STARTCHAR uni200B
ENCODING 8203
SWIDTH 0 0
DWIDTH 0 0
BBX 1 1 0 0
BITMAP
00
ENDCHAR
STARTCHAR uni2010
ENCODING 8208
SWIDTH 289 0
DWIDTH 7 0
BBX 6 3 2 6
BITMAP
FC
FC
FC
ENDCHAR
STARTCHAR uni2011
ENCODING 8209
SWIDTH 289 0
DWIDTH 7 0
BBX 6 3 2 6
BITMAP
FC
FC
FC
ENDCHAR
STARTCHAR figuredash
ENCODING 8210
SWIDTH 500 0
DWIDTH 13 0
BBX 11 3 2 6
BITMAP
FFE0
FFE0
FFE0
ENDCHAR
STARTCHAR endash
ENCODING 8211
SWIDTH 500 0
DWIDTH 13 0
BBX 11 3 2 6
BITMAP
FFE0
FFE0
FFE0
ENDCHAR
STARTCHAR emdash
ENCODING 8212
SWIDTH 1000 0
DWIDTH 25 0
BBX 24 2 2 6
BITMAP
FFFFFF
FFFFFF
ENDCHAR
STARTCHAR afii00208
ENCODING 8213
SWIDTH 1000 0
DWIDTH 25 0
BBX 24 2 2 6
BITMAP
FFFFFF
FFFFFF
ENDCHAR
STARTCHAR quoteleft
ENCODING 8216
SWIDTH 265 0
DWIDTH 7 0
BBX 6 9 3 10
BITMAP
0C
1C
3C
70
78
78
F8
F8
F8
ENDCHAR
STARTCHAR quoteright
ENCODING 8217
SWIDTH 265 0
DWIDTH 7 0
BBX 6 9 3 10
BITMAP
7C
7C
7C
78
78
38
38
F0
E0
ENDCHAR
STARTCHAR quotesinglbase
ENCODING 8218
SWIDTH 265 0
DWIDTH 7 0
BBX 6 9 0 -4
BITMAP
7C
7C
7C
78
78
38
38
F0
E0
ENDCHAR
STARTCHAR quotereversed
ENCODING 8219
SWIDTH 265 0
DWIDTH 7 0
BBX 6 9 3 10
BITMAP
F8
F8
F8
78
78
70
70
3C
1C
ENDCHAR
STARTCHAR quotedblleft
ENCODING 8220
SWIDTH 530 0
DWIDTH 13 0
BBX 13 9 3 10
BITMAP
0418
1C78
3CF8
70E0
70E0
7DF0
F9F0
F9F0
F9E0
ENDCHAR
STARTCHAR quotedblright
ENCODING 8221
SWIDTH 530 0
DWIDTH 13 0
BBX 13 9 3 10
BITMAP
3CF8
7CF8
7CF8
7CF0
7DF0
3870
38F0
F1E0
E1C0
ENDCHAR
STARTCHAR quotedblbase
ENCODING 8222
SWIDTH 530 0
DWIDTH 13 0
BBX 13 9 0 -4
BITMAP
3CF8
7CF8
7CF8
7CF0
7DF0
3870
38E0
F1E0
E180
ENDCHAR
STARTCHAR uni201F
ENCODING 8223
SWIDTH 530 0
DWIDTH 13 0
BBX 13 9 3 10
BITMAP
F9E0
F9F0
F9F0
79F0
7DF0
70E0
78E0
3C78
1C38
ENDCHAR
STARTCHAR dagger
ENCODING 8224
SWIDTH 687 0
DWIDTH 17 0
BBX 13 22 4 -4
BITMAP
07C0
07C0
07C0
0780
0780
0780
7FF8
FFF8
FFF0
0F00
0F00
0F00
1F00
1E00
1E00
1E00
1E00
3E00
3E00
3C00
3C00
7C00
ENDCHAR
STARTCHAR daggerdbl
ENCODING 8225
SWIDTH 687 0
DWIDTH 17 0
BBX 15 22 3 -4
BITMAP
01F0
01F0
01F0
01E0
01E0
03E0
3FFE
3FFE
7FFC
03C0
07C0
07C0
0780
7FFC
FFF8
FFF8
0F00
0F00
0F00
1F00
1F00
1F00
ENDCHAR
STARTCHAR bullet
ENCODING 8226
SWIDTH 687 0
DWIDTH 17 0
BBX 12 10 4 2
BITMAP
3FF0
3FF0
3FE0
7FE0
7FE0
7FE0
7FE0
7FC0
FFC0
FFC0
ENDCHAR
STARTCHAR ellipsis
ENCODING 8230
SWIDTH 1000 0
DWIDTH 25 0
BBX 20 3 3 0
BITMAP
707070
E0F070
E0E0E0
ENDCHAR
STARTCHAR perthousand
ENCODING 8240
SWIDTH 1332 0
DWIDTH 33 0
BBX 31 18 3 0
BITMAP
1F007000
3F80E000
7FC1C000
F3C38000
F3C70000
F78E0000
FF9C0000
7F380000
3C700000
00E3E078
01C7F1FC
03CFF3FE
079E739E
0F1E779E
1E1EF79E
3C1FF7FC
781FE3F8
F00781F0
ENDCHAR
STARTCHAR guilsinglleft
ENCODING 8249
SWIDTH 386 0
DWIDTH 10 0
BBX 8 11 3 1
BITMAP
02
0F
1F
3E
7C
F8
78
78
3C
1C
08
ENDCHAR
STARTCHAR guilsinglright
ENCODING 8250
SWIDTH 386 0
DWIDTH 10 0
BBX 8 11 2 1
BITMAP
10
38
3C
1E
1E
1F
3E
7C
F8
F0
40
ENDCHAR
STARTCHAR fraction
ENCODING 8260
SWIDTH 130 0
DWIDTH 3 0
BBX 20 18 -6 0
BITMAP
0000F0
0001E0
0003C0
000780
000F00
001E00
003C00
007800
00F000
00F000
01E000
03C000
078000
0F0000
1E0000
3C0000
780000
F00000
ENDCHAR
STARTCHAR oneinferior
ENCODING 8321
SWIDTH 539 0
DWIDTH 10 0
BBX 5 11 -17 -6
BITMAP
F8
F8
38
30
70
70
70
70
60
E0
E0
ENDCHAR
STARTCHAR twoinferior
ENCODING 8322
SWIDTH 539 0
DWIDTH 10 0
BBX 10 11 -14 -6
BITMAP
1F80
3FC0
21C0
01C0
0380
0700
1E00
3800
7000
FF80
FF00
ENDCHAR
STARTCHAR threeinferior
ENCODING 8323
SWIDTH 539 0
DWIDTH 10 0
BBX 9 11 -15 -6
BITMAP
3F00
3F80
0380
0700
3E00
3E00
0700
0700
8700
FF00
FC00
ENDCHAR
STARTCHAR uni20A5
ENCODING 8357
SWIDTH 991 0
DWIDTH 25 0
BBX 23 23 2 -5
BITMAP
000078
0000F0
0000E0
0001E0
0003C0
1E3FBC
3E7FFE
3CFFFE
3DFFFE
3FBFBE
3F3F3C
7E3F3C
7E7E3C
7CFC7C
78F87C
79F878
FBF878
FBF8F8
078000
0F0000
0E0000
1E0000
3C0000
ENDCHAR
STARTCHAR uni20A6
ENCODING 8358
SWIDTH 789 0
DWIDTH 20 0
BBX 19 18 2 0
BITMAP
1F01E0
1F01E0
1F81E0
1F81C0
1FC3C0
3FFFC0
3FFFC0
3FFFC0
3DF380
39F780
7FFF80
7FFF80
7FFF80
787F00
703F00
F03F00
F01F00
F01F00
ENDCHAR
STARTCHAR uni20A9
ENCODING 8361
SWIDTH 991 0
DWIDTH 25 0
BBX 23 18 4 0
BITMAP
F03C1E
F07C1C
F07C3C
F87C38
F8FC78
FBFFF0
FFFFF0
FFFFE0
FBBCE0
FBBDE0
FFFFE0
7FFFE0
7FFFC0
7E3F80
7E3F00
7C3F00
7C3E00
7C3E00
ENDCHAR
STARTCHAR Euro
ENCODING 8364
SWIDTH 737 0
DWIDTH 18 0
BBX 22 18 -2 0
BITMAP
0007F8
003FFC
007FFC
00FC08
01F000
3FFF00
7FFF00
7FFE00
078000
0F8000
FFFE00
FFFE00
FFFC00
0FC000
07E060
07FFE0
03FFE0
00FF80
ENDCHAR
STARTCHAR uni20AD
ENCODING 8365
SWIDTH 753 0
DWIDTH 19 0
BBX 17 18 2 0
BITMAP
1F0780
1F0F00
1F1E00
1F1C00
1E3800
3E7800
3EF000
FFFF80
FFFF80
FFFF80
7DF000
7CF800
7CF800
7C7C00
787E00
F83E00
F83F00
F81F00
ENDCHAR
STARTCHAR uni2103
ENCODING 8451
SWIDTH 966 0
DWIDTH 24 0
BBX 22 18 4 0
BITMAP
7007F8
903FFC
907FFC
70FC08
01F000
03E000
07C000
07C000
078000
0F8000
0F8000
0F8000
0F8000
0FC000
07E060
07FFE0
03FFE0
00FF80
ENDCHAR
STARTCHAR uni2109
ENCODING 8457
SWIDTH 843 0
DWIDTH 21 0
BBX 20 18 4 0
BITMAP
70FFF0
91FFF0
91FFE0
71F000
01F000
01E000
03E000
03E000
03FF80
03FF80
03FF00
07C000
07C000
07C000
07C000
078000
0F8000
0F8000
ENDCHAR
STARTCHAR trademark
ENCODING 8482
SWIDTH 901 0
DWIDTH 23 0
BBX 22 9 3 9
BITMAP
FFDE7C
FFDE7C
FFFEFC
1E3EF8
3E3EF8
3C3778
3C3778
3C76F8
7C70F0
ENDCHAR
STARTCHAR uni212A
ENCODING 8490
SWIDTH 753 0
DWIDTH 19 0
BBX 17 18 2 0
BITMAP
1F0780
1F0F00
1F1E00
1F1C00
1E3800
3E7800
3EF000
3FE000
3FE000
3FF000
7DF000
7CF800
7CF800
7C7C00
787E00
F83E00
F83F00
F81F00
ENDCHAR
STARTCHAR uni212B
ENCODING 8491
SWIDTH 771 0
DWIDTH 19 0
BBX 18 23 1 0
BITMAP
000C00
001200
001200
000C00
000000
003E00
007E00
007E00
00FE00
01FE00
01DF00
03DF00
039F00
078F00
070F00
0F0F80
0FFF80
1FFF80
1FFF80
380780
3807C0
7007C0
F007C0
ENDCHAR
STARTCHAR uni2132
ENCODING 8498
SWIDTH 614 0
DWIDTH 15 0
BBX 16 18 2 0
BITMAP
001F
001F
001E
003E
003E
003E
003E
0FFC
1FFC
1FFC
007C
007C
0078
00F8
00F8
7FF8
FFF8
FFF0
ENDCHAR
STARTCHAR minus
ENCODING 8722
SWIDTH 687 0
DWIDTH 17 0
BBX 15 3 3 5
BITMAP
FFFE
FFFE
FFFC
ENDCHAR
STARTCHAR fraction
ENCODING 8725
SWIDTH 130 0
DWIDTH 3 0
BBX 20 18 -6 0
BITMAP
0000F0
0001E0
0003C0
000780
000F00
001E00
003C00
007800
00F000
00F000
01E000
03C000
078000
0F0000
1E0000
3C0000
780000
F00000
ENDCHAR
STARTCHAR periodcentered
ENCODING 8729
SWIDTH 343 0
DWIDTH 17 0
BBX 4 3 8 6
BITMAP
70
F0
E0
ENDCHAR
STARTCHAR uni2236
ENCODING 8758
SWIDTH 343 0
DWIDTH 9 0
BBX 8 13 2 0
BITMAP
1F
1F
3E
3E
3E
00
00
00
7C
7C
FC
F8
F8
ENDCHAR
STARTCHAR uni2259
ENCODING 8793
SWIDTH 687 0
DWIDTH 17 0
BBX 16 12 2 3
BITMAP
01E0
03F0
0E38
0000
3FFF
7FFF
7FFE
0000
0000
FFFE
FFFE
FFFC
ENDCHAR
STARTCHAR uni225A
ENCODING 8794
SWIDTH 687 0
DWIDTH 17 0
BBX 16 12 2 3
BITMAP
0E38
07E0
03C0
0000
3FFF
7FFF
7FFE
0000
0000
FFFE
FFFE
FFFC
ENDCHAR
STARTCHAR notequal
ENCODING 8800
SWIDTH 687 0
DWIDTH 17 0
BBX 19 23 1 -4
BITMAP
0001E0
0003C0
000380
000780
000F00
000E00
001E00
003C00
1FFF80
3FFF80
3FFF00
00E000
01E000
7FFF00
7FFF00
7FFE00
0F0000
0E0000
1E0000
3C0000
380000
780000
F00000
ENDCHAR
STARTCHAR equivalence
ENCODING 8801
SWIDTH 687 0
DWIDTH 17 0
BBX 16 11 0 2
BITMAP
FFFF
FFFF
FFFF
0000
FFFF
FFFF
FFFF
0000
FFFF
FFFF
FFFF
ENDCHAR
STARTCHAR uni2262
ENCODING 8802
SWIDTH 687 0
DWIDTH 17 0
BBX 19 23 -1 -4
BITMAP
0001E0
0003C0
000380
000780
000F00
000E00
7FFF80
7FFF80
7FFF80
007800
7FFF80
7FFF80
7FFF80
03C000
7FFF80
7FFF80
7FFF80
0E0000
1E0000
3C0000
380000
780000
F00000
ENDCHAR
STARTCHAR lessequal
ENCODING 8804
SWIDTH 687 0
DWIDTH 17 0
BBX 16 19 3 -4
BITMAP
0001
0007
001F
007E
03F8
0FE0
3F80
FE00
3E00
0F80
07E0
01F0
007C
0018
0008
0000
FFFF
FFFF
FFFF
ENDCHAR
STARTCHAR greaterequal
ENCODING 8805
SWIDTH 687 0
DWIDTH 17 0
BBX 16 19 1 -4
BITMAP
1000
1800
3E00
0F80
07E0
01F0
007C
007F
01FC
07F0
1FC0
7E00
7800
E000
8000
0000
FFFF
FFFF
FFFF
ENDCHAR
STARTCHAR uni226E
ENCODING 8814
SWIDTH 687 0
DWIDTH 17 0
BBX 19 23 2 -4
BITMAP
0001E0
0003C0
000380
000780
000F80
000F80
001F80
003F00
01FC00
07F800
1FF000
7FE000
1FE000
07C000
03F000
07F800
0F3E00
0E0C00
1E0400
3C0000
380000
780000
F00000
ENDCHAR
STARTCHAR uni226F
ENCODING 8815
SWIDTH 687 0
DWIDTH 17 0
BBX 19 23 0 -4
BITMAP
0001E0
0003C0
000380
000780
080F00
0C0E00
1F1E00
07FC00
03F800
00F800
00FE00
00FF80
01FE00
03F800
0FE000
3F8000
3F0000
7E0000
5E0000
3C0000
380000
780000
F00000
ENDCHAR
STARTCHAR uni2270
ENCODING 8816
SWIDTH 687 0
DWIDTH 17 0
BBX 19 23 2 -6
BITMAP
0001E0
0003C0
000380
000780
000F80
003F00
01FE00
07FC00
1FF800
7F7800
1FF000
07E000
03F000
03F800
03BE00
078C00
0F0400
0E0000
7FFF80
7FFF80
7FFF80
780000
F00000
ENDCHAR
STARTCHAR uni2271
ENCODING 8817
SWIDTH 687 0
DWIDTH 17 0
BBX 19 23 0 -6
BITMAP
0001E0
0003C0
080380
0C0780
1F0F00
07CE00
03FE00
00FC00
003E00
007F80
00FE00
03F800
0FE000
3FC000
3F8000
778000
4F0000
0E0000
7FFF80
7FFF80
7FFF80
780000
F00000
ENDCHAR
STARTCHAR fi
ENCODING -1
SWIDTH 695 0
DWIDTH 17 0
BBX 17 24 1 -5
BITMAP
00FC00
01FE00
07FC00
078400
0F8000
0F8000
3FFF80
3FFF80
7FFF00
1F0F00
1F1F00
1E1F00
3E1F00
3E1E00
3E3E00
3E3E00
3C3E00
7C3E00
7C7C00
7C0000
7C0000
780000
F80000
F80000
ENDCHAR
STARTCHAR fl
ENCODING -1
SWIDTH 695 0
DWIDTH 17 0
BBX 18 24 1 -5
BITMAP
00FFC0
03FFC0
07FF80
078780
0F8F80
0F8F80
3FEF80
3FEF00
7FCF00
1F1F00
1F1F00
1E1F00
3E1E00
3E1E00
3E3E00
3E3E00
3C3E00
7C3C00
7C7C00
7C0000
7C0000
780000
F80000
F80000
ENDCHAR
ENDFONT
